<?xml version="1.0" encoding="UTF-8" standalone="no"?>
<!-- Created with Inkscape (http://www.inkscape.org/) -->

<svg
   xmlns:dc="http://purl.org/dc/elements/1.1/"
   xmlns:cc="http://creativecommons.org/ns#"
   xmlns:rdf="http://www.w3.org/1999/02/22-rdf-syntax-ns#"
   xmlns:svg="http://www.w3.org/2000/svg"
   xmlns="http://www.w3.org/2000/svg"
   xmlns:sodipodi="http://sodipodi.sourceforge.net/DTD/sodipodi-0.dtd"
   xmlns:inkscape="http://www.inkscape.org/namespaces/inkscape"
   width="660mm"
   height="270mm"
   viewBox="0 0 659.99996 270.00001"
   version="1.1"
   id="svg8"
   inkscape:version="0.92.2 5c3e80d, 2017-08-06"
   sodipodi:docname="ForConnpassPage.svg"
   inkscape:export-filename="/Users/reno.89m/git/NagoyaBeginnersLT_Logo/背景あり/ForConnpassPage.png"
   inkscape:export-xdpi="25.435989"
   inkscape:export-ydpi="25.435989">
  <defs
     id="defs2">
    <marker
       inkscape:stockid="Arrow1Lstart"
       orient="auto"
       refY="0"
       refX="0"
       id="marker1300"
       style="overflow:visible"
       inkscape:isstock="true">
      <path
         id="path1298"
         d="M 0,0 5,-5 -12.5,0 5,5 Z"
         style="fill:#66ff00;fill-opacity:1;fill-rule:evenodd;stroke:#67ff00;stroke-width:1.00000003pt;stroke-opacity:1"
         transform="matrix(0.8,0,0,0.8,10,0)"
         inkscape:connector-curvature="0" />
    </marker>
    <marker
       inkscape:stockid="Arrow1Lstart"
       orient="auto"
       refY="0"
       refX="0"
       id="Arrow1Lstart"
       style="overflow:visible"
       inkscape:isstock="true">
      <path
         id="path1022"
         d="M 0,0 5,-5 -12.5,0 5,5 Z"
         style="fill:#66ff00;fill-opacity:1;fill-rule:evenodd;stroke:#67ff00;stroke-width:1.00000003pt;stroke-opacity:1"
         transform="matrix(0.8,0,0,0.8,10,0)"
         inkscape:connector-curvature="0" />
    </marker>
  </defs>
  <sodipodi:namedview
     id="base"
     pagecolor="#ffffff"
     bordercolor="#666666"
     borderopacity="1.0"
     inkscape:pageopacity="0.0"
     inkscape:pageshadow="2"
     inkscape:zoom="0.35355339"
     inkscape:cx="998.71505"
     inkscape:cy="684.63626"
     inkscape:document-units="mm"
     inkscape:current-layer="layer1"
     showgrid="false"
     inkscape:window-width="1725"
     inkscape:window-height="967"
     inkscape:window-x="189"
     inkscape:window-y="0"
     inkscape:window-maximized="0"
     showguides="false"
     units="mm" />
  <metadata
     id="metadata5">
    <rdf:RDF>
      <cc:Work
         rdf:about="">
        <dc:format>image/svg+xml</dc:format>
        <dc:type
           rdf:resource="http://purl.org/dc/dcmitype/StillImage" />
        <dc:title></dc:title>
      </cc:Work>
    </rdf:RDF>
  </metadata>
  <g
     inkscape:groupmode="layer"
     id="layer3"
     inkscape:label="background"
     style="display:inline"
     transform="translate(0,92.00002)">
    <rect
       style="opacity:0.98999999;fill:#ececec;fill-opacity:1;fill-rule:nonzero;stroke:none;stroke-width:0.13974193;stroke-linecap:round;stroke-linejoin:round;stroke-miterlimit:4;stroke-dasharray:none;stroke-opacity:1"
       id="rect877"
       width="82.54998"
       height="177.53542"
       x="254.52885"
       y="-2.4458344" />
    <rect
       style="display:inline;opacity:0.98999999;fill:#fbfbfb;fill-opacity:1;fill-rule:nonzero;stroke:none;stroke-width:0.48723507;stroke-linecap:round;stroke-linejoin:round;stroke-miterlimit:4;stroke-dasharray:none;stroke-opacity:1"
       id="rect877-7"
       width="659.06616"
       height="270.33139"
       x="0.52917987"
       y="-92.463684" />
  </g>
  <g
     inkscape:groupmode="layer"
     id="layer4"
     inkscape:label="Beginners"
     style="display:inline">
    <path
       d="m 81.590573,148.23154 q 0,0.47903 -0.0798,1.67659 -0.0798,1.19757 -0.47903,2.79433 -0.39919,1.51691 -1.2774,3.27335 -0.79838,1.75643 -2.3153,3.27334 -4.15156,4.15157 -11.25712,4.15157 h -19.719942 -0.15968 q -0.878211,0 -1.437081,-0.55887 -0.55886,-0.6387 -0.55886,-1.51691 v -51.73488 q 0,-0.87822 0.55886,-1.43708 0.55887,-0.55887 1.437081,-0.55887 0.87822,0 1.437081,0.55887 0.63871,0.55886 0.63871,1.43708 v 23.39247 h 17.803821 q 7.1854,0 11.25713,4.2314 2.71448,2.71448 3.67254,6.78621 0.39919,1.51692 0.39919,2.63464 0.0798,1.11773 0.0798,1.51692 z m -7.02572,8.14345 q 1.11773,-1.11773 1.67659,-2.47497 0.6387,-1.35724 0.87822,-2.47497 0.31935,-1.19757 0.31935,-2.07578 0.0798,-0.87822 0.0798,-1.03789 v -0.15968 -0.0798 q 0,-0.15967 -0.0798,-1.03789 0,-0.87821 -0.31935,-2.07578 -0.71854,-2.954 -2.55481,-4.94994 -2.954,-2.954 -8.38297,-2.954 h -2.63465 -0.0798 -15.089341 v 22.27474 h 17.803821 q 5.42897,0 8.38297,-2.954 z m -21.87555,-44.70915 q -0.87822,0 -1.51692,-0.55887 -0.55887,-0.6387 -0.55887,-1.51691 0,-0.87822 0.55887,-1.43708 0.6387,-0.55887 1.51692,-0.55887 h 5.10961 q 0.87822,0 1.43708,0.55887 0.55887,0.55886 0.55887,1.43708 0,0.87821 -0.55887,1.51691 -0.55886,0.55887 -1.43708,0.55887 z m 10.7781,0 q -0.87822,0 -1.43708,-0.55887 -0.55887,-0.6387 -0.55887,-1.51691 0,-0.87822 0.55887,-1.43708 0.55886,-0.55887 1.43708,-0.55887 5.90799,0 9.42086,3.5927 1.43707,1.51692 2.23545,3.35319 0.79838,1.75643 1.11773,3.35319 0.39919,1.59675 0.47903,2.79432 0.0798,1.19756 0.0798,1.59675 0,0.47903 -0.15968,2.63465 -0.15967,2.07578 -1.2774,4.55075 -0.47903,1.27741 -1.83627,1.27741 -0.31935,0 -0.79838,-0.15968 -0.79838,-0.39919 -1.11773,-1.11773 -0.31935,-0.79837 0,-1.59675 0.79838,-1.83627 0.95806,-3.43303 0.15967,-1.59675 0.15967,-1.99594 v -0.15968 -0.31935 q 0,-0.47902 -0.15967,-1.35724 -0.0798,-0.95805 -0.3992,-2.07578 -0.23951,-1.11773 -0.79837,-2.3153 -0.47903,-1.2774 -1.43708,-2.23546 -2.3153,-2.31529 -6.46686,-2.31529 z"
       style="font-style:normal;font-variant:normal;font-weight:normal;font-stretch:normal;font-size:200px;line-height:1.25;font-family:BOKEH;-inkscape-font-specification:BOKEH;letter-spacing:5.36000061px;word-spacing:0px;display:inline;fill:#2f8c88;fill-opacity:1;stroke:#2f8c88;stroke-width:1.96136904;stroke-miterlimit:4;stroke-dasharray:none;stroke-opacity:1"
       id="path885-9"
       inkscape:connector-curvature="0" />
    <path
       d="m 82.586353,149.21288 c 0,0.31935 -0.0266,0.87821 -0.0798,1.67659 -0.0532,0.79838 -0.2129,1.72982 -0.47903,2.79432 -0.26613,1.01128 -0.69193,2.1024 -1.2774,3.27335 -0.53225,1.17096 -1.30402,2.26207 -2.3153,3.27335 -2.76771,2.76771 -6.52008,4.15157 -11.25713,4.15157 h -19.719922 -0.15968 c -0.58548,0 -1.06451,-0.18629 -1.43708,-0.55887 -0.37258,-0.4258 -0.558861,-0.93144 -0.558861,-1.51692 v -51.73488 c 0,-0.58547 0.186281,-1.0645 0.558861,-1.43708 0.37257,-0.37257 0.8516,-0.55886 1.43708,-0.55886 0.585481,0 1.064501,0.18629 1.437081,0.55886 0.425801,0.37258 0.638701,0.85161 0.638701,1.43708 v 23.39247 h 17.80383 c 4.79026,0 8.54264,1.41047 11.25712,4.2314 1.80966,1.80966 3.03384,4.07173 3.67254,6.78622 0.26613,1.01127 0.39919,1.88949 0.39919,2.63464 0.0532,0.74516 0.0798,1.25079 0.0798,1.51692 z m -7.02573,8.14345 c 0.74516,-0.74515 1.30402,-1.57014 1.6766,-2.47497 0.4258,-0.90483 0.71854,-1.72982 0.87821,-2.47497 0.2129,-0.79838 0.31935,-1.4903 0.31935,-2.07578 0.0532,-0.58548 0.0798,-0.93144 0.0798,-1.03789 v -0.15968 -0.0798 c 0,-0.10645 -0.0266,-0.45241 -0.0798,-1.03789 0,-0.58548 -0.10645,-1.2774 -0.31935,-2.07578 -0.47903,-1.96933 -1.33063,-3.61932 -2.55481,-4.94995 -1.96933,-1.96933 -4.76365,-2.95399 -8.38296,-2.95399 h -2.63465 -0.0798 -15.08934 v 22.27474 h 17.80383 c 3.61931,0 6.41363,-0.98467 8.38296,-2.954 z m -21.87555,-44.70915 c -0.58548,0 -1.09111,-0.18629 -1.51692,-0.55887 -0.37257,-0.4258 -0.55886,-0.93144 -0.55886,-1.51692 0,-0.58547 0.18629,-1.0645 0.55886,-1.43708 0.42581,-0.37257 0.93144,-0.55886 1.51692,-0.55886 h 5.10962 c 0.58548,0 1.0645,0.18629 1.43708,0.55886 0.37258,0.37258 0.55886,0.85161 0.55886,1.43708 0,0.58548 -0.18628,1.09112 -0.55886,1.51692 -0.37258,0.37258 -0.8516,0.55887 -1.43708,0.55887 z m 10.7781,0 c -0.58548,0 -1.0645,-0.18629 -1.43708,-0.55887 -0.37257,-0.4258 -0.55886,-0.93144 -0.55886,-1.51692 0,-0.58547 0.18629,-1.0645 0.55886,-1.43708 0.37258,-0.37257 0.8516,-0.55886 1.43708,-0.55886 3.93867,0 7.07895,1.19757 9.42086,3.5927 0.95805,1.01128 1.70321,2.12901 2.23546,3.35319 0.53225,1.17095 0.90482,2.28868 1.11773,3.35318 0.26612,1.06451 0.4258,1.99595 0.47902,2.79432 0.0532,0.79838 0.0798,1.33063 0.0798,1.59676 0,0.31935 -0.0532,1.19757 -0.15967,2.63465 -0.10645,1.38385 -0.53226,2.90077 -1.27741,4.55075 -0.31935,0.8516 -0.93144,1.2774 -1.83627,1.2774 -0.2129,0 -0.47902,-0.0532 -0.79837,-0.15967 -0.53225,-0.26613 -0.90483,-0.6387 -1.11773,-1.11773 -0.2129,-0.53225 -0.2129,-1.0645 0,-1.59676 0.53225,-1.22418 0.8516,-2.36851 0.95805,-3.43302 0.10645,-1.0645 -0.10128,-1.94375 0.15968,-1.99594 v -0.15968 -0.31935 c 0,-0.31935 -0.0532,-0.77176 -0.15968,-1.35724 -0.0532,-0.63871 -0.18629,-1.33063 -0.39919,-2.07579 -0.15967,-0.74515 -0.4258,-1.51691 -0.79838,-2.31529 -0.31935,-0.8516 -0.79838,-1.59676 -1.43708,-2.23546 -1.54353,-1.54353 -3.69915,-2.31529 -6.46686,-2.31529 z"
       style="font-style:normal;font-variant:normal;font-weight:normal;font-stretch:normal;font-size:200px;line-height:1.25;font-family:BOKEH;-inkscape-font-specification:BOKEH;letter-spacing:5.63999987px;word-spacing:0px;display:inline;fill:#eee531;fill-opacity:1;stroke:none;stroke-width:0.39918891"
       id="path944-3"
       inkscape:connector-curvature="0"
       sodipodi:nodetypes="ssccsscscsssscscscccssscccscscccsccccssscscsssscssscssscccssccscccsscscccss" />
    <path
       d="m 114.7348,124.12054 q 2.07578,2.07578 3.19351,4.63059 1.19757,2.55481 1.19757,5.42897 v 5.18945 q 0,0.87822 -0.63871,1.43708 -0.55886,0.55887 -1.43708,0.55887 -0.87821,0 -1.43708,-0.55887 -0.55886,-0.55886 -0.55886,-1.43708 v -5.18945 q 0,-2.07578 -0.87822,-3.91205 -0.79838,-1.83627 -2.31529,-3.19351 -1.43708,-1.43708 -3.43304,-2.23546 -1.9161,-0.79838 -4.15156,-0.79838 h -0.95806 q -2.23547,0 -4.231424,0.79838 -1.916108,0.79838 -3.433023,2.23546 -1.43708,1.35724 -2.315295,3.19351 -0.798378,1.83627 -0.798378,3.91205 v 3.11367 h 10.5386 q 0.87822,0 1.43709,0.6387 0.55887,0.55887 0.55887,1.43708 0,0.87822 -0.55887,1.43708 -0.55887,0.55887 -1.43709,0.55887 h -10.5386 v 3.51286 4.31124 q 0,2.07578 0.798378,3.99189 0.878215,1.83627 2.315295,3.19351 1.516915,1.35724 3.433023,2.15562 1.995954,0.79838 4.231424,0.79838 h 0.95806 q 3.03384,0 5.50882,-1.43708 2.55481,-1.43708 3.99188,-3.91205 0.39919,-0.71854 1.19757,-0.87822 0.79838,-0.23951 1.59675,0.15968 0.71854,0.39919 0.87822,1.19756 0.23951,0.79838 -0.15968,1.59676 -1.99594,3.43302 -5.5088,5.42897 -3.43303,1.9161 -7.50476,1.9161 h -0.95806 q -6.147532,0 -10.458769,-4.15156 -2.15562,-1.99595 -3.273349,-4.55075 -1.117729,-2.63465 -1.117729,-5.50881 v -4.31124 -6.38702 -4.31124 q 0,-5.908 4.391078,-10.05956 4.311237,-4.15157 10.458769,-4.15157 h 0.95806 q 2.954,0 5.66849,1.03789 2.71449,1.0379 4.79027,3.11368 z m -3.11367,13.17323 q 0.87821,0 1.43707,0.6387 0.63871,0.55887 0.63871,1.43708 0,0.87822 -0.63871,1.43708 -0.55886,0.55887 -1.43707,0.55887 h -2.95401 q -0.87822,0 -1.51692,-0.55887 -0.55886,-0.55886 -0.55886,-1.43708 0,-0.87821 0.55886,-1.43708 0.6387,-0.6387 1.51692,-0.6387 z"
       style="font-style:normal;font-variant:normal;font-weight:normal;font-stretch:normal;font-size:200px;line-height:1.25;font-family:BOKEH;-inkscape-font-specification:BOKEH;letter-spacing:5.36000061px;word-spacing:0px;display:inline;fill:#2f8c88;fill-opacity:1;stroke:#2f8c88;stroke-width:1.96136904;stroke-miterlimit:4;stroke-dasharray:none;stroke-opacity:1"
       id="path887-8"
       inkscape:connector-curvature="0" />
    <path
       d="m 115.84235,125.10188 c 1.38385,1.38385 2.44836,2.92738 3.19351,4.63059 0.79838,1.7032 1.19757,3.51286 1.19757,5.42897 v 5.18945 c 0,0.58548 -0.2129,1.06451 -0.6387,1.43708 -0.37258,0.37258 -0.85161,0.55887 -1.43709,0.55887 -0.58548,0 -1.0645,-0.18629 -1.43708,-0.55887 -0.37257,-0.37257 -0.55886,-0.8516 -0.55886,-1.43708 v -5.18945 c 0,-1.38386 -0.29274,-2.68787 -0.87822,-3.91206 -0.53225,-1.22418 -1.30401,-2.28868 -2.31529,-3.19351 -0.95806,-0.95805 -2.1024,-1.7032 -3.43303,-2.23545 -1.27741,-0.53226 -2.66127,-0.79838 -4.15158,-0.79838 h -0.95805 c -1.49031,0 -2.90079,0.26612 -4.23142,0.79838 -1.277411,0.53225 -2.421745,1.2774 -3.433029,2.23545 -0.958058,0.90483 -1.729818,1.96933 -2.315295,3.19351 -0.532252,1.22419 -0.798378,2.5282 -0.798378,3.91206 v 3.11367 h 10.538602 c 0.58549,0 1.06451,0.2129 1.43708,0.6387 0.37259,0.37258 0.55888,0.8516 0.55888,1.43708 0,0.58548 -0.18629,1.06451 -0.55888,1.43708 -0.37257,0.37258 -0.85159,0.55887 -1.43708,0.55887 H 93.647408 v 3.51286 4.31124 c 0,1.38385 0.266126,2.71448 0.798378,3.99189 0.585477,1.22418 1.357237,2.28868 2.315295,3.19351 1.011284,0.90483 2.155618,1.62337 3.433029,2.15562 1.33063,0.53225 2.74111,0.79838 4.23142,0.79838 h 0.95805 c 2.02256,0 3.85884,-0.47903 5.50882,-1.43708 1.70321,-0.95806 3.03384,-2.26208 3.99189,-3.91206 0.26613,-0.47902 0.66532,-0.77176 1.19757,-0.87821 0.53225,-0.15968 1.0645,-0.10645 1.59676,0.15967 0.47902,0.26613 0.77176,0.66532 0.87821,1.19757 0.15968,0.53225 0.10645,1.06451 -0.15967,1.59676 -1.33063,2.28868 -3.1669,4.09834 -5.50881,5.42897 -2.28868,1.2774 -4.79028,1.9161 -7.50477,1.9161 h -0.95805 c -4.09836,0 -7.584612,-1.38385 -10.458771,-4.15156 -1.43708,-1.33063 -2.528196,-2.84755 -3.273349,-4.55075 -0.745153,-1.75644 -1.466631,-3.62474 -1.117729,-5.50881 v -4.31124 -6.38702 -4.31124 c 0,-3.93867 1.463693,-7.29186 4.391078,-10.05956 2.874159,-2.76771 6.360411,-4.15157 10.458771,-4.15157 h 0.95805 c 1.96934,0 3.85884,0.34597 5.6685,1.03789 1.80966,0.69193 3.40641,1.72982 4.79027,3.11368 z m -3.11368,13.17323 c 0.58548,0 1.06451,0.2129 1.43708,0.6387 0.42581,0.37258 0.63871,0.8516 0.63871,1.43708 0,0.58548 -0.2129,1.06451 -0.63871,1.43708 -0.37257,0.37258 -0.8516,0.55887 -1.43708,0.55887 h -2.95399 c -0.58548,0 -1.09113,-0.18629 -1.51693,-0.55887 -0.37258,-0.37257 -0.55887,-0.8516 -0.55887,-1.43708 0,-0.58548 0.18629,-1.0645 0.55887,-1.43708 0.4258,-0.4258 0.93145,-0.6387 1.51693,-0.6387 z"
       style="font-style:normal;font-variant:normal;font-weight:normal;font-stretch:normal;font-size:200px;line-height:1.25;font-family:BOKEH;-inkscape-font-specification:BOKEH;letter-spacing:5.63999987px;word-spacing:0px;display:inline;fill:#eee531;fill-opacity:1;stroke:none;stroke-width:0.39918891"
       id="path946-0"
       inkscape:connector-curvature="0"
       sodipodi:nodetypes="scsscsssscccsscccscscsssccscccsscccccccssccsccscssssscscsscssss" />
    <path
       d="m 145.9679,155.17744 q -0.87821,0 -1.43708,-0.55887 -0.55886,-0.6387 -0.55886,-1.51692 0,-0.87821 0.55886,-1.43708 0.55887,-0.55886 1.43708,-0.55886 h 2.87416 q 0.87822,0 1.43708,0.55886 0.6387,0.55887 0.6387,1.43708 0,0.87822 -0.6387,1.51692 -0.55886,0.55887 -1.43708,0.55887 z m 10.45875,9.26118 q 0,5.74832 -3.99189,9.97972 -1.9161,2.07578 -4.39108,3.11367 -2.47497,1.03789 -5.26929,1.03789 h -0.87821 q -4.94997,0 -8.70235,-3.27334 -0.6387,-0.55887 -0.71854,-1.43709 -0.0798,-0.79837 0.47902,-1.43707 0.63871,-0.63871 1.43708,-0.71854 0.79838,-0.0798 1.43709,0.47902 2.7145,2.3153 6.0677,2.3153 h 0.87821 q 1.99595,0 3.67254,-0.79838 1.75643,-0.79838 3.03383,-2.15562 1.35725,-1.35724 2.07579,-3.19351 0.79838,-1.83627 0.79838,-3.91205 v -4.63059 -35.76733 h -10.69827 q -2.47497,0 -4.71045,0.6387 -2.23546,0.63871 -3.91206,1.91611 -3.19351,2.3153 -3.19351,5.42897 v 3.91205 5.26929 1.91611 q 0,1.51692 0.79838,2.87416 0.79838,1.35724 2.23546,2.47497 1.43708,1.03789 3.35319,1.75643 1.91612,0.63871 4.15159,0.79838 0.87821,0.0798 1.35724,0.71854 0.55887,0.6387 0.47903,1.51692 -0.0798,0.79838 -0.63871,1.35724 -0.55886,0.47903 -1.35724,0.47903 h -0.15967 q -3.03386,-0.23952 -5.66852,-1.19757 -2.63464,-1.03789 -4.55075,-2.63465 -1.91611,-1.67659 -3.03384,-3.75237 -1.0379,-2.07578 -1.0379,-4.39108 v -1.91611 -5.26929 -3.91205 q 0,-2.55481 1.35725,-4.8701 1.19757,-2.23546 3.51287,-3.83222 2.23546,-1.59675 5.02979,-2.47497 2.87417,-0.87821 5.98785,-0.87821 h 12.69421 q 0.55886,0 1.19757,0.31935 0.87821,0.71854 0.87821,1.75643 v 29.93917 z"
       style="font-style:normal;font-variant:normal;font-weight:normal;font-stretch:normal;font-size:200px;line-height:1.25;font-family:BOKEH;-inkscape-font-specification:BOKEH;letter-spacing:5.36000061px;word-spacing:0px;display:inline;fill:#2f8c88;fill-opacity:1;stroke:#2f8c88;stroke-width:1.96136904;stroke-miterlimit:4;stroke-dasharray:none;stroke-opacity:1"
       id="path889-2"
       inkscape:connector-curvature="0" />
    <path
       d="m 147.18722,156.15877 c -0.58548,0 -1.0645,-0.18629 -1.43708,-0.55886 -0.37257,-0.4258 -0.55886,-0.93144 -0.55886,-1.51692 0,-0.58548 0.18629,-1.0645 0.55886,-1.43708 0.37258,-0.37257 0.8516,-0.55886 1.43708,-0.55886 h 2.87416 c 0.58548,0 1.06451,0.18629 1.43708,0.55886 0.4258,0.37258 0.6387,0.8516 0.6387,1.43708 0,0.58548 -0.2129,1.09112 -0.6387,1.51692 -0.37257,0.37257 -0.8516,0.55886 -1.43708,0.55886 z m 10.45875,9.26118 c 0,3.83222 -1.33063,7.15879 -3.99189,9.97973 -1.2774,1.38385 -2.7411,2.42175 -4.39108,3.11367 -1.64998,0.69193 -3.40641,1.03789 -5.26929,1.03789 h -0.87821 c -3.29997,0 -6.20076,-1.09111 -8.70235,-3.27335 -0.42581,-0.37257 -0.66532,-0.8516 -0.71854,-1.43708 -0.0532,-0.53225 0.10645,-1.01128 0.47902,-1.43708 0.42581,-0.4258 0.90483,-0.66531 1.43709,-0.71854 0.53225,-0.0532 1.01128,0.10646 1.43709,0.47903 1.80966,1.54353 3.83223,2.3153 6.06769,2.3153 h 0.87821 c 1.33063,0 2.55481,-0.26613 3.67254,-0.79838 1.17095,-0.53225 2.18223,-1.25079 3.03383,-2.15562 0.90483,-0.90483 1.59676,-1.96933 2.07579,-3.19351 0.53225,-1.22419 0.56325,-2.54832 0.79837,-3.91206 v -4.63058 -35.76733 h -10.69826 c -1.64998,0 -3.22012,0.2129 -4.71044,0.6387 -1.49031,0.4258 -2.79434,1.06451 -3.91207,1.91611 -2.129,1.54353 -3.60858,3.39511 -3.19351,5.42897 v 3.91205 5.26929 1.91611 c 0,1.01128 0.26613,1.96933 0.79838,2.87416 0.53225,0.90483 1.2774,1.72982 2.23546,2.47497 0.95805,0.69193 2.07579,1.2774 3.3532,1.75643 1.27741,0.4258 2.66127,0.69193 4.15158,0.79838 0.58548,0.0532 1.03789,0.29274 1.35724,0.71854 0.37257,0.4258 0.53225,0.93144 0.47903,1.51692 -0.0532,0.53225 -0.26613,0.98466 -0.63871,1.35724 -0.37257,0.31935 -0.82499,0.47903 -1.35724,0.47903 h -0.15967 c -2.02256,-0.15968 -3.91207,-0.55887 -5.66851,-1.19757 -1.75644,-0.69193 -3.27336,-1.57014 -4.55076,-2.63465 -1.2774,-1.11773 -2.28868,-2.36852 -3.03384,-3.75237 -0.69193,-1.38386 -1.63156,-2.96628 -1.03789,-4.39108 v -1.91611 -5.26929 -3.91205 c 0,-1.70321 0.45241,-3.32657 1.35725,-4.87011 0.79837,-1.4903 1.96933,-2.76771 3.51286,-3.83221 1.4903,-1.06451 3.1669,-1.88949 5.02979,-2.47497 1.91612,-0.58548 3.91207,-0.87822 5.98785,-0.87822 h 12.69421 c 0.37257,0 0.77176,0.10645 1.19756,0.31935 0.58548,0.47903 0.85977,1.06475 0.87822,1.75644 v 29.93916 z"
       style="font-style:normal;font-variant:normal;font-weight:normal;font-stretch:normal;font-size:200px;line-height:1.25;font-family:BOKEH;-inkscape-font-specification:BOKEH;letter-spacing:5.63999987px;word-spacing:0px;display:inline;fill:#eee531;fill-opacity:1;stroke:none;stroke-width:0.39918891"
       id="path948-4"
       inkscape:connector-curvature="0"
       sodipodi:nodetypes="scsssscssssscssscccscsscccsccsscsccssccccccsccccsccscccsscscs" />
    <path
       d="m 165.30513,120.68752 q 0.87822,0 1.43708,0.55886 0.55886,0.55887 0.55886,1.43708 v 38.64148 q 0,0.87822 -0.55886,1.51692 -0.55886,0.55887 -1.43708,0.55887 -0.87822,0 -1.51692,-0.55887 -0.55886,-0.6387 -0.55886,-1.51692 v -38.64148 q 0,-0.87821 0.55886,-1.43708 0.6387,-0.55886 1.51692,-0.55886 z m 0,-13.17324 q 0.87822,0 1.43708,0.63871 0.55886,0.55886 0.55886,1.43708 v 5.58864 q 0,0.87822 -0.55886,1.51692 -0.55886,0.55886 -1.43708,0.55886 -0.87822,0 -1.51692,-0.55886 -0.55886,-0.6387 -0.55886,-1.51692 v -5.58864 q 0,-0.87822 0.55886,-1.43708 0.6387,-0.63871 1.51692,-0.63871 z"
       style="font-style:normal;font-variant:normal;font-weight:normal;font-stretch:normal;font-size:200px;line-height:1.25;font-family:BOKEH;-inkscape-font-specification:BOKEH;letter-spacing:5.36000061px;word-spacing:0px;display:inline;fill:#2f8c88;fill-opacity:1;stroke:#2f8c88;stroke-width:1.96136904;stroke-miterlimit:4;stroke-dasharray:none;stroke-opacity:1"
       id="path891-8"
       inkscape:connector-curvature="0" />
    <path
       d="m 166.63622,121.66885 c 0.58548,0 1.06451,0.18629 1.43708,0.55887 0.37258,0.37257 0.55887,0.8516 0.55887,1.43708 v 38.64148 c 0,0.58548 -0.18629,1.09112 -0.55887,1.51692 -0.37257,0.37258 -0.8516,0.55887 -1.43708,0.55887 -0.58548,0 -1.09111,-0.18629 -1.51692,-0.55887 -0.37257,-0.4258 -0.55886,-0.93144 -0.55886,-1.51692 V 123.6648 c 0,-0.58548 0.18629,-1.06451 0.55886,-1.43708 0.42581,-0.37258 0.93144,-0.55887 1.51692,-0.55887 z m 0,-13.17323 c 0.58548,0 1.06451,0.2129 1.43708,0.6387 0.37258,0.37258 0.55887,0.85161 0.55887,1.43708 v 5.58865 c 0,0.58548 -0.18629,1.09111 -0.55887,1.51692 -0.37257,0.37257 -0.8516,0.55886 -1.43708,0.55886 -0.58548,0 -1.09111,-0.18629 -1.51692,-0.55886 -0.37257,-0.42581 -0.55886,-0.93144 -0.55886,-1.51692 v -5.58865 c 0,-0.58547 0.18629,-1.0645 0.55886,-1.43708 0.42581,-0.4258 0.93144,-0.6387 1.51692,-0.6387 z"
       style="font-style:normal;font-variant:normal;font-weight:normal;font-stretch:normal;font-size:200px;line-height:1.25;font-family:BOKEH;-inkscape-font-specification:BOKEH;letter-spacing:5.63999987px;word-spacing:0px;display:inline;fill:#eee531;fill-opacity:1;stroke:none;stroke-width:0.39918891"
       id="path950-3"
       inkscape:connector-curvature="0"
       sodipodi:nodetypes="sssscscsscsscsscscssss" />
    <path
       d="m 202.76301,133.70107 q 0.87822,0 1.43708,0.63871 0.55887,0.55886 0.55887,1.43708 v 25.54809 q 0,0.87821 -0.55887,1.51691 -0.55886,0.55887 -1.43708,0.55887 -0.87822,0 -1.51692,-0.55887 -0.55886,-0.6387 -0.55886,-1.51691 v -25.54809 q 0,-0.87822 0.55886,-1.43708 0.6387,-0.63871 1.51692,-0.63871 z m -0.47903,-1.19756 q -1.51691,0 -1.9161,-1.43708 -0.47903,-1.19757 -1.19757,-2.47497 -0.15967,-0.23952 -0.39919,-0.39919 -0.15967,-0.23952 -0.31935,-0.47903 -0.47903,-0.47903 -0.71854,-0.79838 -0.6387,-0.55886 -0.71854,-1.35724 0,-0.87821 0.55887,-1.51692 0.6387,-0.6387 1.43708,-0.6387 0.87821,-0.0798 1.51691,0.55887 0.23952,0.23951 0.47903,0.55886 0.31935,0.23951 0.55887,0.55886 l 0.95805,1.19757 q 0.55886,0.87822 0.95805,1.75643 0.47903,0.87822 0.71854,1.83627 0.31935,0.79838 -0.0798,1.59676 -0.39919,0.71854 -1.2774,0.95805 -0.15968,0 -0.31935,0.0798 -0.0798,0 -0.23952,0 z m -8.06361,-11.97567 q 0.87821,0.15968 1.2774,0.87822 0.39919,0.71854 0.15968,1.59675 -0.23951,0.87822 -0.95805,1.27741 -0.71854,0.39919 -1.59676,0.15967 -1.59676,-0.47902 -3.19351,-0.47902 h -0.95805 q -2.23546,0 -4.23141,0.79837 -1.9161,0.71854 -3.43302,2.07579 -1.43708,1.2774 -2.3153,3.03383 -0.79837,1.67659 -0.79837,3.67254 v 27.78355 q 0,0.87821 -0.55887,1.51691 -0.55886,0.55887 -1.43708,0.55887 -0.87821,0 -1.51692,-0.55887 -0.55886,-0.6387 -0.55886,-1.51691 V 133.5414 q 0,-2.79432 1.11773,-5.26929 1.19756,-2.47498 3.27335,-4.47092 2.15562,-1.83627 4.79026,-2.87416 2.71449,-1.03789 5.66849,-1.03789 h 0.95805 q 2.15562,0 4.31124,0.6387 z"
       style="font-style:normal;font-variant:normal;font-weight:normal;font-stretch:normal;font-size:200px;line-height:1.25;font-family:BOKEH;-inkscape-font-specification:BOKEH;letter-spacing:5.36000061px;word-spacing:0px;display:inline;fill:#2f8c88;fill-opacity:1;stroke:#2f8c88;stroke-width:1.96136904;stroke-miterlimit:4;stroke-dasharray:none;stroke-opacity:1"
       id="path893-9"
       inkscape:connector-curvature="0" />
    <path
       d="m 204.20588,134.68241 c 0.58547,0 1.0645,0.2129 1.43707,0.6387 0.37258,0.37258 0.55887,0.85161 0.55887,1.43708 v 25.54809 c 0,0.58548 -0.18629,1.09112 -0.55887,1.51692 -0.37257,0.37258 -0.8516,0.55886 -1.43707,0.55886 -0.58548,0 -1.09112,-0.18628 -1.51692,-0.55886 -0.37258,-0.4258 -0.55887,-0.93144 -0.55887,-1.51692 v -25.54809 c 0,-0.58547 0.18629,-1.0645 0.55887,-1.43708 0.4258,-0.4258 0.93144,-0.6387 1.51692,-0.6387 z m -0.47903,-1.19756 c -1.01128,0 -1.64998,-0.47903 -1.91611,-1.43708 -0.31935,-0.79838 -0.71854,-1.62337 -1.19756,-2.47498 -0.10645,-0.15967 -0.23952,-0.29273 -0.39919,-0.39918 l -0.31935,-0.47903 c -0.31936,-0.31935 -0.55887,-0.58548 -0.71854,-0.79838 -0.42581,-0.37257 -0.66532,-0.82499 -0.71854,-1.35724 0,-0.58548 0.18629,-1.09112 0.55886,-1.51692 0.4258,-0.4258 0.90483,-0.6387 1.43708,-0.6387 0.58548,-0.0532 1.09111,0.13306 1.51692,0.55886 0.15967,0.15968 0.31935,0.34597 0.47902,0.55887 0.2129,0.15967 0.39919,0.34596 0.55887,0.55886 l 0.95805,1.19757 c 0.37258,0.58548 0.69193,1.17095 0.95806,1.75643 0.31935,0.58548 0.55886,1.19757 0.71853,1.83627 0.2129,0.53225 0.1863,1.0645 -0.0798,1.59675 -0.26612,0.47903 -0.69192,0.79838 -1.2774,0.95806 -0.10645,0 -0.2129,0.0266 -0.31935,0.0798 z m -8.06362,-11.97567 c 0.58548,0.10645 1.01128,0.39919 1.27741,0.87821 0.26613,0.47903 0.31935,1.01128 0.15967,1.59676 -0.15967,0.58548 -0.47902,1.01128 -0.95805,1.2774 -0.47903,0.26613 -1.01128,0.31936 -1.59676,0.15968 -1.0645,-0.31935 -2.129,-0.47903 -3.19351,-0.47903 h -0.95805 c -1.4903,0 -2.90077,0.26613 -4.2314,0.79838 -1.27741,0.47903 -2.42175,1.17095 -3.43303,2.07578 -0.95805,0.8516 -1.72981,1.86289 -2.31529,3.03384 -0.53225,1.11773 -0.79838,2.34191 -0.79838,3.67254 v 27.78354 c 0,0.58548 -0.18629,1.09112 -0.55886,1.51692 -0.37258,0.37258 -0.85161,0.55886 -1.43708,0.55886 -0.58548,0 -1.09112,-0.18628 -1.51692,-0.55886 -0.37258,-0.4258 -0.55887,-0.93144 -0.55887,-1.51692 v -27.78354 c 0,-1.86289 0.37258,-3.61932 1.11773,-5.2693 0.79838,-1.64998 1.8895,-3.14028 3.27335,-4.47091 1.43708,-1.22418 3.03384,-2.18224 4.79027,-2.87416 1.80965,-0.69193 3.69915,-1.03789 5.66848,-1.03789 h 0.95805 c 1.43708,0 2.87416,0.2129 4.31124,0.6387 z"
       style="font-style:normal;font-variant:normal;font-weight:normal;font-stretch:normal;font-size:200px;line-height:1.25;font-family:BOKEH;-inkscape-font-specification:BOKEH;letter-spacing:5.63999987px;word-spacing:0px;display:inline;fill:#eee531;fill-opacity:1;stroke:none;stroke-width:0.39918891"
       id="path952-0"
       inkscape:connector-curvature="0"
       sodipodi:nodetypes="scsscscsssssccccccccsccccccccscssscsscccsscscsscccssc" />
    <path
       d="m 240.29948,133.70108 q 0.87822,0 1.43708,0.6387 0.55887,0.55886 0.55887,1.43708 v 25.54809 q 0,0.87821 -0.55887,1.51692 -0.55886,0.55886 -1.43708,0.55886 -0.87821,0 -1.51692,-0.55886 -0.55886,-0.63871 -0.55886,-1.51692 v -25.54809 q 0,-0.87822 0.55886,-1.43708 0.63871,-0.6387 1.51692,-0.6387 z m -0.47902,-1.19757 q -1.51692,0 -1.91611,-1.43708 -0.47903,-1.19757 -1.19757,-2.47497 -0.15967,-0.23951 -0.39919,-0.39919 -0.15967,-0.23951 -0.31935,-0.47903 -0.47902,-0.47902 -0.71854,-0.79837 -0.6387,-0.55887 -0.71854,-1.35725 0,-0.87821 0.55887,-1.51691 0.6387,-0.63871 1.43708,-0.63871 0.87821,-0.0798 1.51692,0.55887 0.23951,0.23951 0.47902,0.55886 0.31935,0.23952 0.55887,0.55887 l 0.95805,1.19756 q 0.55886,0.87822 0.95805,1.75643 0.47903,0.87822 0.71854,1.83627 0.31935,0.79838 -0.0798,1.59676 -0.39919,0.71854 -1.2774,0.95805 -0.15968,0 -0.31935,0.0798 -0.0798,0 -0.23952,0 z m -8.06362,-11.97567 q 0.87822,0.15968 1.27741,0.87822 0.39918,0.71854 0.15967,1.59675 -0.23951,0.87822 -0.95805,1.27741 -0.71854,0.39919 -1.59676,0.15968 -1.59675,-0.47903 -3.19351,-0.47903 h -0.95805 q -2.23546,0 -4.2314,0.79838 -1.91611,0.71854 -3.43303,2.07578 -1.43708,1.2774 -2.31529,3.03383 -0.79838,1.6766 -0.79838,3.67254 v 27.78355 q 0,0.87821 -0.55887,1.51692 -0.55886,0.55886 -1.43708,0.55886 -0.87821,0 -1.51691,-0.55886 -0.55887,-0.63871 -0.55887,-1.51692 V 133.5414 q 0,-2.79432 1.11773,-5.26929 1.19757,-2.47497 3.27335,-4.47092 2.15562,-1.83627 4.79027,-2.87416 2.71448,-1.03789 5.66848,-1.03789 h 0.95805 q 2.15562,0 4.31124,0.6387 z"
       style="font-style:normal;font-variant:normal;font-weight:normal;font-stretch:normal;font-size:200px;line-height:1.25;font-family:BOKEH;-inkscape-font-specification:BOKEH;letter-spacing:5.36000061px;word-spacing:0px;display:inline;fill:#2f8c88;fill-opacity:1;stroke:#2f8c88;stroke-width:1.96136904;stroke-miterlimit:4;stroke-dasharray:none;stroke-opacity:1"
       id="path895-5"
       inkscape:connector-curvature="0" />
    <path
       d="m 241.85413,134.68241 c 0.58548,0 1.06451,0.2129 1.43708,0.63871 0.37258,0.37257 0.55887,0.8516 0.55887,1.43708 v 25.54809 c 0,0.58547 -0.18629,1.09111 -0.55887,1.51691 -0.37257,0.37258 -0.8516,0.55887 -1.43708,0.55887 -0.58548,0 -1.09111,-0.18629 -1.51692,-0.55887 -0.37257,-0.4258 -0.55886,-0.93144 -0.55886,-1.51691 V 136.7582 c 0,-0.58548 0.18629,-1.06451 0.55886,-1.43708 0.42581,-0.42581 0.93144,-0.63871 1.51692,-0.63871 z m -0.47902,-1.19756 c -1.01128,0 -1.64998,-0.47903 -1.91611,-1.43708 -0.31935,-0.79838 -0.71854,-1.62337 -1.19757,-2.47497 -0.10645,-0.15968 -0.23951,-0.29274 -0.39919,-0.39919 l -0.31935,-0.47903 c -0.31935,-0.31935 -0.55886,-0.58548 -0.71854,-0.79838 -0.4258,-0.37257 -0.66531,-0.82499 -0.71854,-1.35724 0,-0.58548 0.18629,-1.09111 0.55887,-1.51692 0.4258,-0.4258 0.90483,-0.6387 1.43708,-0.6387 0.58548,-0.0532 1.09111,0.13306 1.51691,0.55887 0.15968,0.15967 0.31936,0.34596 0.47903,0.55886 0.2129,0.15968 0.39919,0.34597 0.55887,0.55886 l 0.95805,1.19757 c 0.37257,0.58548 0.69193,1.17095 0.95805,1.75643 0.31935,0.58548 0.55887,1.19757 0.71854,1.83627 0.2129,0.53225 0.18629,1.06451 -0.0798,1.59676 -0.26613,0.47902 -0.69192,0.79837 -1.2774,0.95805 -0.10645,0 -0.2129,0.0266 -0.31935,0.0798 z m -8.06362,-11.97567 c 0.58548,0.10645 1.01128,0.39919 1.27741,0.87822 0.26612,0.47902 0.31935,1.01127 0.15967,1.59675 -0.15967,0.58548 -0.47903,1.01128 -0.95805,1.27741 -0.47903,0.26612 -1.01128,0.31935 -1.59676,0.15967 -1.0645,-0.31935 -2.129,-0.47902 -3.19351,-0.47902 h -0.95805 c -1.49031,0 -2.90078,0.26612 -4.2314,0.79837 -1.27741,0.47903 -2.42175,1.17096 -3.43303,2.07579 -0.95805,0.8516 -1.72982,1.86288 -2.31529,3.03383 -0.53225,1.11773 -0.79838,2.34191 -0.79838,3.67254 v 27.78355 c 0,0.58547 -0.18629,1.09111 -0.55887,1.51691 -0.37257,0.37258 -0.8516,0.55887 -1.43708,0.55887 -0.58547,0 -1.09111,-0.18629 -1.51691,-0.55887 -0.37258,-0.4258 -0.55887,-0.93144 -0.55887,-1.51691 v -27.78355 c 0,-1.86288 0.37258,-3.61931 1.11773,-5.26929 0.79838,-1.64998 1.88949,-3.14029 3.27335,-4.47092 1.43708,-1.22418 3.03383,-2.18223 4.79026,-2.87416 1.80966,-0.69193 3.69916,-1.03789 5.66849,-1.03789 h 0.95805 c 1.43708,0 2.87416,0.2129 4.31124,0.6387 z"
       style="font-style:normal;font-variant:normal;font-weight:normal;font-stretch:normal;font-size:200px;line-height:1.25;font-family:BOKEH;-inkscape-font-specification:BOKEH;letter-spacing:5.63999987px;word-spacing:0px;display:inline;fill:#eee531;fill-opacity:1;stroke:none;stroke-width:0.39918891"
       id="path954-2"
       inkscape:connector-curvature="0"
       sodipodi:nodetypes="scsscscsssssccccccccsccccccccscssscsscccsscscsscccssc" />
    <path
       d="m 275.44086,124.12054 q 2.07578,2.07578 3.19351,4.63059 1.19756,2.55481 1.19756,5.42897 v 5.18946 q 0,0.87821 -0.6387,1.43708 -0.55886,0.55886 -1.43708,0.55886 -0.87822,0 -1.43708,-0.55886 -0.55886,-0.55887 -0.55886,-1.43708 v -5.18946 q 0,-2.07578 -0.87822,-3.91205 -0.79838,-1.83627 -2.31529,-3.19351 -1.43708,-1.43708 -3.43303,-2.23546 -1.91611,-0.79838 -4.15156,-0.79838 h -0.95806 q -2.23545,0 -4.2314,0.79838 -1.91611,0.79838 -3.43302,2.23546 -1.43708,1.35724 -2.3153,3.19351 -0.79838,1.83627 -0.79838,3.91205 v 3.11367 h 10.53859 q 0.87822,0 1.43708,0.63871 0.55886,0.55886 0.55886,1.43708 0,0.87821 -0.55886,1.43708 -0.55886,0.55886 -1.43708,0.55886 h -10.53859 v 3.51286 4.31124 q 0,2.07578 0.79838,3.99189 0.87822,1.83627 2.3153,3.19351 1.51691,1.35725 3.43302,2.15562 1.99595,0.79838 4.2314,0.79838 h 0.95806 q 3.03383,0 5.5088,-1.43708 2.55481,-1.43708 3.99189,-3.91205 0.39919,-0.71854 1.19757,-0.87822 0.79838,-0.23951 1.59675,0.15968 0.71854,0.39919 0.87822,1.19757 0.23951,0.79838 -0.15968,1.59675 -1.99594,3.43303 -5.5088,5.42897 -3.43303,1.91611 -7.50475,1.91611 h -0.95806 q -6.14751,0 -10.45874,-4.15157 -2.15563,-1.99594 -3.27335,-4.55075 -1.11773,-2.63465 -1.11773,-5.50881 v -4.31124 -6.38702 -4.31124 q 0,-5.908 4.39108,-10.05956 4.31123,-4.15156 10.45874,-4.15156 h 0.95806 q 2.95399,0 5.66848,1.03789 2.71448,1.03789 4.79027,3.11367 z m -3.11368,13.17323 q 0.87822,0 1.43708,0.63871 0.6387,0.55886 0.6387,1.43708 0,0.87821 -0.6387,1.43708 -0.55886,0.55886 -1.43708,0.55886 h -2.954 q -0.87821,0 -1.51691,-0.55886 -0.55887,-0.55887 -0.55887,-1.43708 0,-0.87822 0.55887,-1.43708 0.6387,-0.63871 1.51691,-0.63871 z"
       style="font-style:normal;font-variant:normal;font-weight:normal;font-stretch:normal;font-size:200px;line-height:1.25;font-family:BOKEH;-inkscape-font-specification:BOKEH;letter-spacing:5.36000061px;word-spacing:0px;display:inline;fill:#2f8c88;fill-opacity:1;stroke:#2f8c88;stroke-width:1.96136904;stroke-miterlimit:4;stroke-dasharray:none;stroke-opacity:1"
       id="path897-2"
       inkscape:connector-curvature="0" />
    <path
       d="m 277.10727,125.10188 c 1.38385,1.38385 2.44835,2.92738 3.19351,4.63059 0.79838,1.70321 1.19757,3.51286 1.19757,5.42897 v 5.18945 c 0,0.58548 -0.2129,1.06451 -0.63871,1.43708 -0.37257,0.37258 -0.8516,0.55887 -1.43708,0.55887 -0.58548,0 -1.0645,-0.18629 -1.43708,-0.55887 -0.37257,-0.37257 -0.55886,-0.8516 -0.55886,-1.43708 v -5.18945 c 0,-1.38386 -0.29274,-2.68787 -0.87822,-3.91205 -0.53225,-1.22418 -1.30402,-2.28869 -2.31529,-3.19351 -0.95806,-0.95806 -2.1024,-1.70321 -3.43303,-2.23546 -1.2774,-0.53225 -2.66126,-0.79838 -4.15156,-0.79838 h -0.95806 c -1.4903,0 -2.90077,0.26613 -4.2314,0.79838 -1.2774,0.53225 -2.42175,1.2774 -3.43302,2.23546 -0.95806,0.90482 -1.72982,1.96933 -2.3153,3.19351 -0.53225,1.22418 -0.45466,2.57156 -0.79838,3.91205 v 3.11367 h 10.53859 c 0.58548,0 1.06451,0.2129 1.43708,0.6387 0.37258,0.37258 0.55887,0.85161 0.55887,1.43708 0,0.58548 -0.18629,1.06451 -0.55887,1.43708 -0.37257,0.37258 -0.8516,0.55887 -1.43708,0.55887 h -10.53859 v 3.51286 4.31124 c 0,1.38386 0.26613,2.71449 0.79838,3.99189 0.58548,1.22418 1.35724,2.28868 2.3153,3.19351 1.01127,0.90483 2.15562,1.62337 3.43302,2.15562 1.33063,0.53225 2.7411,0.79838 4.2314,0.79838 h 0.95806 c 2.02256,0 3.85882,-0.47903 5.5088,-1.43708 1.70321,-0.95805 3.03384,-2.26207 3.99189,-3.91205 0.26613,-0.47903 0.66532,-0.77177 1.19757,-0.87822 0.53225,-0.15967 1.0645,-0.10645 1.59675,0.15968 0.47903,0.26613 0.77177,0.66531 0.87822,1.19756 0.15968,0.53225 0.10645,1.06451 -0.15967,1.59676 -1.33063,2.28868 -3.1669,4.09834 -5.50881,5.42897 -2.28868,1.2774 -4.79027,1.91611 -7.50475,1.91611 h -0.95806 c -4.09834,0 -7.58458,-1.38386 -10.45874,-4.15157 -1.43708,-1.33063 -2.5282,-2.84755 -3.27335,-4.55075 -0.74516,-1.75643 -1.11773,-3.5927 -1.11773,-5.50881 v -4.31124 -6.38702 -4.31124 c 0,-3.93867 1.46369,-7.29185 4.39108,-10.05956 2.87416,-2.76771 6.3604,-4.15157 10.45874,-4.15157 h 0.95806 c 1.96933,0 3.85882,0.34597 5.66848,1.03789 1.80965,0.69193 3.40641,1.72982 4.79027,3.11368 z m -3.11368,13.17323 c 0.58548,0 1.06451,0.2129 1.43708,0.6387 0.42581,0.37258 0.63871,0.85161 0.63871,1.43708 0,0.58548 -0.2129,1.06451 -0.63871,1.43708 -0.37257,0.37258 -0.8516,0.55887 -1.43708,0.55887 h -2.95399 c -0.58548,0 -1.09112,-0.18629 -1.51692,-0.55887 -0.37258,-0.37257 -0.55887,-0.8516 -0.55887,-1.43708 0,-0.58547 0.18629,-1.0645 0.55887,-1.43708 0.4258,-0.4258 0.93144,-0.6387 1.51692,-0.6387 z"
       style="font-style:normal;font-variant:normal;font-weight:normal;font-stretch:normal;font-size:200px;line-height:1.25;font-family:BOKEH;-inkscape-font-specification:BOKEH;letter-spacing:5.63999987px;word-spacing:0px;display:inline;fill:#eee531;fill-opacity:1;stroke:none;stroke-width:0.39918891"
       id="path956-7"
       inkscape:connector-curvature="0"
       sodipodi:nodetypes="scsscsssscccsscccscscsssccscccsscccccccssccsccscssssscscsscssss" />
    <path
       d="m 288.63054,146.47504 q 0.87821,0 1.43708,0.55887 0.55886,0.55886 0.55886,1.43708 v 12.93372 q 0,0.87821 -0.55886,1.43708 -0.55887,0.55886 -1.43708,0.55886 -0.87822,0 -1.51692,-0.55886 -0.55886,-0.55887 -0.55886,-1.43708 v -12.93372 q 0,-0.87822 0.55886,-1.43708 0.6387,-0.55887 1.51692,-0.55887 z m 18.04333,-26.58598 q 0.87822,0.23952 1.27741,0.95806 0.39919,0.71854 0.15967,1.59675 -0.23951,0.87822 -0.95805,1.27741 -0.71854,0.31935 -1.51692,0.15967 -0.71854,-0.23951 -1.43708,-0.31935 -0.71854,-0.0798 -1.43708,-0.0798 h -0.95805 q -2.3153,0 -4.39108,0.95806 -1.99594,0.95805 -3.51286,2.63464 -1.51692,1.59676 -2.39513,3.83222 -0.87822,2.15562 -0.87822,4.63059 v 5.82816 q 0,0.87821 -0.55886,1.51691 -0.55887,0.55887 -1.43708,0.55887 -0.87822,0 -1.51692,-0.55887 -0.55886,-0.6387 -0.55886,-1.51691 v -5.74832 -0.0798 -13.57243 q 0,-0.87821 0.55886,-1.43708 0.6387,-0.55886 1.51692,-0.55886 0.87821,0 1.43708,0.55886 0.55886,0.55887 0.55886,1.43708 v 2.55481 l 0.31935,-0.31935 q 2.15562,-2.31529 4.94995,-3.51286 2.87415,-1.2774 5.90799,-1.2774 h 0.95805 q 1.99595,0 3.91205,0.47902 z"
       style="font-style:normal;font-variant:normal;font-weight:normal;font-stretch:normal;font-size:200px;line-height:1.25;font-family:BOKEH;-inkscape-font-specification:BOKEH;letter-spacing:5.36000061px;word-spacing:0px;display:inline;fill:#2f8c88;fill-opacity:1;stroke:#2f8c88;stroke-width:1.96136904;stroke-miterlimit:4;stroke-dasharray:none;stroke-opacity:1"
       id="path899-3"
       inkscape:connector-curvature="0" />
    <path
       d="m 290.40871,147.45638 c 0.58548,0 1.0645,0.18629 1.43708,0.55887 0.37257,0.37257 0.55886,0.8516 0.55886,1.43708 v 12.93371 c 0,0.58548 -0.18629,1.06451 -0.55886,1.43709 -0.37258,0.37257 -0.8516,0.55886 -1.43708,0.55886 -0.58548,0 -1.09112,-0.18629 -1.51692,-0.55886 -0.37257,-0.37258 -0.55886,-0.85161 -0.55886,-1.43709 v -12.93371 c 0,-0.58548 0.18629,-1.06451 0.55886,-1.43708 0.4258,-0.37258 0.93144,-0.55887 1.51692,-0.55887 z m 18.04334,-26.58598 c 0.58547,0.15968 1.01127,0.47903 1.2774,0.95805 0.26613,0.47903 0.31935,1.01128 0.15968,1.59676 -0.15968,0.58548 -0.47903,1.01128 -0.95806,1.2774 -0.47902,0.2129 -0.98466,0.26613 -1.51691,0.15968 -0.47903,-0.15968 -0.95806,-0.26613 -1.43708,-0.31935 -0.47903,-0.0532 -0.95806,-0.0798 -1.43708,-0.0798 h -0.95806 c -1.54353,0 -3.00722,0.31935 -4.39108,0.95805 -1.33062,0.63871 -2.50158,1.51692 -3.51286,2.63465 -1.01127,1.06451 -1.80965,2.34191 -2.39513,3.83221 -0.58548,1.43708 -0.87822,2.98062 -0.87822,4.6306 v 5.82815 c 0,0.58548 -0.18629,1.09112 -0.55886,1.51692 -0.37258,0.37258 -0.8516,0.55887 -1.43708,0.55887 -0.58548,0 -1.09112,-0.18629 -1.51692,-0.55887 -0.37257,-0.4258 -0.55886,-0.93144 -0.55886,-1.51692 v -5.74832 -0.0798 -13.57242 c 0,-0.58548 0.18629,-1.0645 0.55886,-1.43708 0.4258,-0.37257 0.93144,-0.55886 1.51692,-0.55886 0.58548,0 1.0645,0.18629 1.43708,0.55886 0.37257,0.37258 0.7335,0.87826 0.55886,1.43708 v 2.55481 l 0.31935,-0.31935 c 1.43708,-1.54353 3.08706,-2.71448 4.94995,-3.51286 1.9161,-0.8516 3.88543,-1.27741 5.90799,-1.27741 H 304.54 c 1.33062,0 2.63464,0.15968 3.91205,0.47903 z"
       style="font-style:normal;font-variant:normal;font-weight:normal;font-stretch:normal;font-size:200px;line-height:1.25;font-family:BOKEH;-inkscape-font-specification:BOKEH;letter-spacing:5.63999987px;word-spacing:0px;display:inline;fill:#eee531;fill-opacity:1;stroke:none;stroke-width:0.39918891"
       id="path958-7"
       inkscape:connector-curvature="0"
       sodipodi:nodetypes="sssssscsscscssccssscccsscscsccscssscccssc" />
    <path
       d="m 314.24,119.48996 q -0.87821,0 -1.51692,-0.55887 -0.55886,-0.6387 -0.55886,-1.51691 v -7.90394 q 0,-0.87822 0.55886,-1.43708 0.63871,-0.55887 1.51692,-0.55887 0.87822,0 1.43708,0.55887 0.6387,0.55886 0.6387,1.43708 v 7.90394 q 0,0.87821 -0.6387,1.51691 -0.55886,0.55887 -1.43708,0.55887 z"
       style="font-style:normal;font-variant:normal;font-weight:normal;font-stretch:normal;font-size:200px;line-height:1.25;font-family:BOKEH;-inkscape-font-specification:BOKEH;letter-spacing:5.36000061px;word-spacing:0px;display:inline;fill:#2f8c88;fill-opacity:1;stroke:#2f8c88;stroke-width:1.96136904;stroke-miterlimit:4;stroke-dasharray:none;stroke-opacity:1"
       id="path901-7"
       inkscape:connector-curvature="0" />
    <path
       d="m 316.12996,120.4713 c -0.58548,0 -1.09112,-0.18629 -1.51692,-0.55887 -0.37257,-0.4258 -0.55886,-0.93144 -0.55886,-1.51692 v -7.90394 c 0,-0.58547 0.18629,-1.0645 0.55886,-1.43708 0.4258,-0.37257 0.93144,-0.55886 1.51692,-0.55886 0.58548,0 1.0645,0.18629 1.43708,0.55886 0.4258,0.37258 0.6387,0.85161 0.6387,1.43708 v 7.90394 c 0,0.58548 -0.2129,1.09112 -0.6387,1.51692 -0.37258,0.37258 -0.8516,0.55887 -1.43708,0.55887 z"
       style="font-style:normal;font-variant:normal;font-weight:normal;font-stretch:normal;font-size:200px;line-height:1.25;font-family:BOKEH;-inkscape-font-specification:BOKEH;letter-spacing:5.63999987px;word-spacing:0px;display:inline;fill:#eee531;fill-opacity:1;stroke:none;stroke-width:0.39918891"
       id="path960-0"
       inkscape:connector-curvature="0"
       sodipodi:nodetypes="scsscscssss" />
    <path
       d="m 326.06246,138.57118 q -1.03789,-1.11773 -1.67659,-2.31529 -0.55886,-1.19757 -0.87821,-2.23546 -0.23952,-1.11773 -0.31936,-1.91611 0,-0.87821 0,-1.11773 0,-0.23951 0,-1.03789 0.0798,-0.87821 0.31936,-1.9161 0.31935,-1.11773 0.87821,-2.3153 0.6387,-1.2774 1.67659,-2.39513 3.03384,-3.19351 8.54265,-3.19351 h 13.81193 q 0.87822,0 1.43708,0.6387 0.63871,0.55886 0.63871,1.43708 0,0.87821 -0.63871,1.43708 -0.55886,0.55886 -1.43708,0.55886 h -13.81193 q -3.83222,0 -5.58865,1.99595 -0.71854,0.71854 -1.11773,1.51692 -0.31935,0.79837 -0.47902,1.51691 -0.23952,0.87822 -0.15968,1.59676 v 0.23951 q 0,0.15968 0,0.6387 0.0798,0.47903 0.23951,1.19757 0.15968,0.6387 0.47903,1.43708 0.39919,0.79838 1.03789,1.43708 1.75643,1.91611 5.58865,1.91611 h 7.66442 0.15968 q 4.15156,0 6.94589,2.15562 0.6387,0.55886 0.71853,1.43708 0.15968,0.79838 -0.39918,1.43708 -0.6387,0.79838 -1.59676,0.79838 -0.6387,0 -1.2774,-0.39919 -1.75643,-1.35725 -4.39108,-1.35725 h -6.62654 -1.19756 q -5.58865,0 -8.54265,-3.19351 z m 27.30453,7.98378 q 0.39918,1.51692 0.39918,2.63465 0.0798,1.03789 0.0798,1.35724 0,0.23951 -0.0798,1.03789 0,0.71854 -0.15967,1.75643 -0.15968,0.71854 -0.71854,1.19757 -0.55887,0.47903 -1.27741,0.47903 h -0.31935 q -0.87821,-0.15968 -1.35724,-0.79838 -0.47903,-0.6387 -0.31935,-1.51692 0.0798,-0.39919 0.0798,-0.79838 0.0798,-0.39919 0.0798,-0.71854 v -0.55886 -0.15968 q 0,-0.0798 -0.0798,-0.87821 0,-0.87822 -0.23951,-2.07578 -0.0798,-0.0798 -0.0798,-0.31936 -0.23952,-0.79837 0.15967,-1.51691 0.39919,-0.71854 1.27741,-0.95806 0.87821,-0.15967 1.59675,0.23952 0.71854,0.39918 0.87822,1.19756 0.0798,0.15968 0.0798,0.39919 z m -2.47498,9.74021 q 0.71854,0.47903 0.87822,1.35724 0.15967,0.79838 -0.39919,1.43708 -3.03384,4.31124 -8.94183,4.31124 h -17.16512 q -0.87822,0 -1.51692,-0.55886 -0.55887,-0.55887 -0.55887,-1.43708 0,-0.87822 0.55887,-1.43708 0.6387,-0.6387 1.51692,-0.6387 h 17.16512 q 3.83221,0 5.66848,-2.55481 0.47903,-0.71854 1.27741,-0.87822 0.87821,-0.15968 1.51691,0.39919 z"
       style="font-style:normal;font-variant:normal;font-weight:normal;font-stretch:normal;font-size:200px;line-height:1.25;font-family:BOKEH;-inkscape-font-specification:BOKEH;letter-spacing:5.36000061px;word-spacing:0px;display:inline;fill:#2f8c88;fill-opacity:1;stroke:#2f8c88;stroke-width:1.96136904;stroke-miterlimit:4;stroke-dasharray:none;stroke-opacity:1"
       id="path903-3"
       inkscape:connector-curvature="0" />
    <path
       d="m 328.06421,139.55252 c -0.69193,-0.74515 -1.25079,-1.51692 -1.6766,-2.31529 -0.37257,-0.79838 -0.66531,-1.54354 -0.87821,-2.23546 -0.15968,-0.74516 -0.26613,-1.38386 -0.31935,-1.91611 v -1.11773 -1.03789 c 0.0532,-0.58548 0.15967,-1.22418 0.31935,-1.91611 0.2129,-0.74515 0.50564,-1.51691 0.87821,-2.31529 0.42581,-0.8516 0.98467,-1.64998 1.6766,-2.39513 2.02255,-2.12901 4.8701,-3.19352 8.54264,-3.19352 h 13.81193 c 0.58548,0 1.06451,0.2129 1.43708,0.63871 0.42581,0.37257 0.63871,0.8516 0.63871,1.43708 0,0.58548 -0.2129,1.0645 -0.63871,1.43708 -0.37257,0.37257 -0.8516,0.55886 -1.43708,0.55886 h -13.81193 c -2.55481,0 -4.41769,0.66532 -5.58865,1.99595 -0.47902,0.47902 -0.8516,0.98466 -1.11773,1.51691 -0.21289,0.53225 -0.37257,1.03789 -0.47902,1.51692 -0.15968,0.58548 -0.2129,1.11773 -0.15968,1.59676 v 0.23951 0.6387 c 0.0532,0.31935 0.13306,0.71854 0.23952,1.19757 0.10645,0.4258 0.26612,0.90483 0.47902,1.43708 0.26613,0.53225 0.61209,1.01128 1.03789,1.43708 1.17096,1.2774 3.03384,1.91611 5.58865,1.91611 h 7.66442 0.15968 c 2.76771,0 5.083,0.71854 6.94589,2.15562 0.4258,0.37257 0.66531,0.8516 0.71854,1.43708 0.10645,0.53225 -0.0266,1.01127 -0.39919,1.43708 -0.4258,0.53225 -0.95805,0.79837 -1.59676,0.79837 -0.4258,0 -0.8516,-0.13306 -1.2774,-0.39919 -1.17095,-0.90483 -2.63465,-1.35724 -4.39108,-1.35724 h -6.62653 -1.19757 c -3.72576,0 -6.57331,-1.0645 -8.54264,-3.19351 z m 27.30452,7.98378 c 0.26612,1.01128 0.39919,1.88949 0.39919,2.63465 0.0532,0.69192 0.0798,1.14434 0.0798,1.35724 0,0.15967 -0.0266,0.50564 -0.0798,1.03789 0,0.47903 -0.0532,1.0645 -0.15968,1.75643 -0.10645,0.47903 -0.34596,0.87821 -0.71854,1.19757 -0.37258,0.31935 -0.79838,0.47902 -1.27741,0.47902 h -0.31935 c -0.58548,-0.10645 -1.03789,-0.37257 -1.35724,-0.79838 -0.31935,-0.4258 -0.4258,-0.93143 -0.31935,-1.51691 0.0532,-0.26613 0.0798,-0.53225 0.0798,-0.79838 0.0532,-0.26613 0.0798,-0.50564 0.0798,-0.71854 v -0.55887 -0.15967 c 0,-0.0532 -0.0266,-0.34597 -0.0798,-0.87821 0,-0.58549 -0.0798,-1.27741 -0.23951,-2.07579 -0.0532,-0.0532 -0.0798,-0.15967 -0.0798,-0.31935 -0.15968,-0.53225 -0.10645,-1.03789 0.15968,-1.51692 0.26612,-0.47902 0.69192,-0.79837 1.2774,-0.95805 0.58548,-0.10645 1.11773,-0.0266 1.59675,0.23951 0.47903,0.26613 0.77177,0.66532 0.87822,1.19757 0.0532,0.10645 0.0798,0.23951 0.0798,0.39919 z m -2.47498,9.74021 c 0.47903,0.31935 0.77177,0.77176 0.87822,1.35724 0.10645,0.53225 -0.0266,1.01128 -0.39919,1.43708 -2.02256,2.87416 -5.00316,4.31124 -8.94183,4.31124 h -17.16512 c -0.58548,0 -1.09112,-0.18629 -1.51692,-0.55887 -0.37257,-0.37257 -0.55886,-0.8516 -0.55886,-1.43707 0,-0.58548 0.18629,-1.06451 0.55886,-1.43708 0.4258,-0.42581 0.93144,-0.63871 1.51692,-0.63871 h 17.16512 c 2.55481,0 4.4443,-0.8516 5.66848,-2.55481 0.31935,-0.47902 0.74516,-0.77176 1.27741,-0.87821 0.58548,-0.10645 1.09111,0.0266 1.51691,0.39919 z"
       style="font-style:normal;font-variant:normal;font-weight:normal;font-stretch:normal;font-size:200px;line-height:1.25;font-family:BOKEH;-inkscape-font-specification:BOKEH;letter-spacing:5.63999987px;word-spacing:0px;display:inline;fill:#eee531;fill-opacity:1;stroke:none;stroke-width:0.39918891"
       id="path962-9"
       inkscape:connector-curvature="0"
       sodipodi:nodetypes="cccccccccsscscsscccccccccscscccscscscccsccsscsccscscccscscccccsscssssccc" />
  </g>
  <g
     inkscape:groupmode="layer"
     id="layer2"
     inkscape:label="Nagoya"
     transform="translate(0,60.00002)"
     style="display:inline">
    <flowRoot
       xml:space="preserve"
       id="flowRoot969"
       style="font-style:normal;font-weight:normal;font-size:40px;line-height:1.25;font-family:sans-serif;letter-spacing:0px;word-spacing:0px;fill:#000000;fill-opacity:1;stroke:none"><flowRegion
         id="flowRegion971"><rect
           id="rect973"
           width="134.67303"
           height="102.02502"
           x="1.0202502"
           y="17.800503" /></flowRegion><flowPara
         id="flowPara975" /></flowRoot>    <flowRoot
       xml:space="preserve"
       id="flowRoot977"
       style="font-style:normal;font-variant:normal;font-weight:normal;font-stretch:normal;font-size:40px;line-height:1.25;font-family:bokeh;-inkscape-font-specification:bokeh;letter-spacing:0px;word-spacing:0px;fill:#000000;fill-opacity:1;stroke:none"><flowRegion
         id="flowRegion979"
         style="font-style:normal;font-variant:normal;font-weight:normal;font-stretch:normal;font-family:bokeh;-inkscape-font-specification:bokeh"><rect
           id="rect981"
           width="416.26208"
           height="204.56017"
           x="-0.5101251"
           y="-9.746254"
           style="font-style:normal;font-variant:normal;font-weight:normal;font-stretch:normal;font-family:bokeh;-inkscape-font-specification:bokeh" /></flowRegion><flowPara
         id="flowPara983" /></flowRoot>    <flowRoot
       xml:space="preserve"
       id="flowRoot845"
       style="font-style:normal;font-variant:normal;font-weight:normal;font-stretch:normal;font-size:40px;line-height:1.25;font-family:BOKEH;-inkscape-font-specification:BOKEH;letter-spacing:0px;word-spacing:0px;fill:#000000;fill-opacity:1;stroke:none"><flowRegion
         id="flowRegion847"
         style="font-style:normal;font-variant:normal;font-weight:normal;font-stretch:normal;font-family:BOKEH;-inkscape-font-specification:BOKEH"><rect
           id="rect849"
           width="318.82819"
           height="199.45892"
           x="-68.86689"
           y="-4.1348944"
           style="font-style:normal;font-variant:normal;font-weight:normal;font-stretch:normal;font-family:BOKEH;-inkscape-font-specification:BOKEH" /></flowRegion><flowPara
         id="flowPara851" /></flowRoot>    <flowRoot
       xml:space="preserve"
       id="flowRoot853"
       style="font-style:normal;font-weight:normal;font-size:40px;line-height:1.25;font-family:sans-serif;letter-spacing:0px;word-spacing:0px;fill:#000000;fill-opacity:1;stroke:none"><flowRegion
         id="flowRegion855"><rect
           id="rect857"
           width="322.90921"
           height="202.00955"
           x="-97.944023"
           y="-12.296896" /></flowRegion><flowPara
         id="flowPara859" /></flowRoot>    <g
       aria-label="Nagoya Beginner's LT"
       transform="matrix(0.39918888,0,0,0.39918888,72.999471,-65.622245)"
       style="font-style:normal;font-weight:normal;font-size:40px;line-height:1.25;font-family:sans-serif;letter-spacing:0px;word-spacing:0px;fill:#44aa00;fill-opacity:1;stroke:none;stroke-width:6.04724407;stroke-miterlimit:4;stroke-dasharray:none"
       id="flowRoot861">
      <path
         d="m 20.121484,171.01602 q -0.2,0.4 -0.6,0.8 v 0.2 h -0.2 v 0.2 h -0.2 q 0,0.2 -0.2,0.2 0,0 -0.2,0.2 -0.2,0 -0.4,0.2 0,0 -0.2,0 0,0 -0.8,0.4 h -0.2 -0.2 -0.2 -0.2 q 0,0.2 -0.2,0.2 h -0.2 -0.2 -0.2 -0.2 -0.2 v -0.2 h -0.2 -0.2 q -0.6,0 -0.8,-0.2 -0.2,0 -0.2,-0.2 h -0.2 -0.2 q 0,-0.2 -0.2,-0.2 h -0.2 v -0.2 h -0.2 v -0.2 h -0.2 l -0.4,-0.4 h -0.2 v -0.2 -0.2 q -0.2,0 -0.2,-0.2 -0.2,0 -0.2,-0.2 l -16.5999996,-26 q -1.2,-1.8 -0.8,-3.8 0.6,-2 2.2,-3.2 1.8,-1.2 3.79999997,-0.6 2.20000003,0.4 3.40000003,2.2 l 7.1999996,11.2 V 38.616016 q 0,-2.2 1.4,-3.6 1.4,-1.6 3.6,-1.6 2.2,0 3.6,1.6 1.6,1.4 1.6,3.6 v 129.600004 0.2 0.2 0.2 l -0.2,0.2 v 0.2 0.2 q 0,0.2 -0.2,0.4 0,0.2 0,0.4 l -0.2,0.2 v 0.2 l -0.2,0.2 q 0,0.2 -0.2,0.2 z m -36.4,-62.6 q 1.2,1.8 0.6,4 -0.4,2 -2,3 -1.4,0.8 -2.8,0.8 -2.8,0 -4.4,-2.2 l -37,-58.000004 V 168.21602 q 0,2.2 -1.4,3.8 -1.4,1.4 -3.6,1.4 -2.2,0 -3.8,-1.4 -1.4,-1.6 -1.4,-3.8 v -129.600004 -0.2 -0.2 -0.2 -0.2 l 0.2,-0.2 v -0.2 q 0,-0.2 0,-0.4 0.2,-0.2 0.2,-0.4 0,-0.2 0.2,-0.2 v -0.2 q 0,-0.2 0.2,-0.2 v -0.2 q 0.2,-0.6 0.8,-0.8 v -0.2 h 0.2 v -0.2 h 0.2 q 0,0 0.2,-0.2 h 0.2 v -0.2 h 0.2 l 0.2,-0.2 h 0.2 l 0.2,-0.2 h 0.2 0.2 v -0.2 h 0.2 0.2 0.2 0.2 0.2 q 0.2,0 0.2,-0.2 h 0.2 0.2 0.2 q 0,0.2 0.2,0.2 h 0.2 0.2 0.2 q 0.2,0 1,0.4 h 0.2 q 0,0 0.2,0.2 h 0.2 l 0.2,0.2 q 0.4,0.4 0.8,0.6 v 0.2 h 0.2 v 0.2 h 0.2 v 0.2 h 0.2 v 0.2 z m 12.6000004,19.6 q 1.2,1.8 0.6,4 -0.4,2 -2.2,3.2 -1.6,0.8 -2.6,0.8 -2.6000004,0 -4.4000004,-2.4 l -4.8,-7.4 q -1,-1.8 -0.6,-3.8 0.4,-2.2 2.2,-3.4 1.8,-1 3.8,-0.6 2.2000004,0.4 3.2000004,2.2 z"
         style="font-style:normal;font-variant:normal;font-weight:normal;font-stretch:normal;font-size:200px;line-height:1.25;font-family:BOKEH;-inkscape-font-specification:BOKEH;letter-spacing:5.36000061px;fill:#2f8c88;fill-opacity:1;stroke:#2f8c88;stroke-width:4.91338587;stroke-linejoin:round;stroke-miterlimit:4;stroke-dasharray:none;stroke-opacity:1"
         id="path873"
         inkscape:connector-curvature="0" />
      <path
         d="m 109.95961,142.01602 q 2.2,0 3.6,1.6 1.4,1.4 1.4,3.6 v 7.6 q 0,2.2 -1.4,3.6 -1.4,1.4 -3.6,1.4 -2.2,0 -3.8,-1.4 -1.4,-1.4 -1.4,-3.6 v -7.6 q 0,-2.2 1.4,-3.6 1.6,-1.6 3.8,-1.6 z m 0,21.2 q 2.2,0 3.6,1.4 1.6,1.4 1.6,3.6 0,2.2 -1.6,3.8 -1.4,1.4 -3.6,1.4 h -41.6 q -13.6,0 -21.6,-8.4 -3.2,-3.2 -5,-7 -1.8,-4 -2.6,-7.4 -0.8,-3.4 -1,-6 0,-2.6 0,-3.4 0,-0.8 0,-3.4 0.2,-2.6 1,-6 0.8,-3.4 2.6,-7.2 1.8,-4 5,-7.4 8,-8.4 21.6,-8.4 h 36.4 v -8.8 q 0,-5.200004 -2,-9.800004 -1.8,-4.6 -5,-8 -3.2,-3.4 -7.6,-5.4 -4.2,-2 -9.2,-2 h -2.2 q -8.2,0 -14.6,5.2 -6.2,5 -8.4,13.2 -0.6,2.2 -2.4,3.2 -1.8,1 -4,0.4 -2,-0.4 -3,-2.2 -1,-1.8 -0.6,-4 3.2,-11.6 12,-18.6 4.6,-3.8 9.8,-5.6 5.4,-1.8 11.2,-1.8 h 2.2 q 6.8,0 13,2.6 6.2,2.6 11.2,7.8 4.8,5 7.2,11.6 2.6,6.4 2.6,13.400004 v 31.2 q 0,2.2 -1.4,3.6 -1.4,1.4 -3.6,1.4 -2.2,0 -3.8,-1.4 -1.4,-1.4 -1.4,-3.6 v -12.2 h -36.4 q -9,0 -14.2,5.2 -2.2,2.4 -3.4,5.4 -1.2,2.8 -1.8,5.4 -0.4,2.4 -0.4,4.2 0,1.8 0,1.8 v 0.4 q 0,0.4 0,2.2 0,1.6 0.4,4.2 0.6,2.4 1.8,5.2 1.2,2.8 3.4,5 5.2,5.2 14.2,5.2 z"
         style="font-style:normal;font-variant:normal;font-weight:normal;font-stretch:normal;font-size:200px;line-height:1.25;font-family:BOKEH;-inkscape-font-specification:BOKEH;letter-spacing:5.36000061px;fill:#2f8c88;fill-opacity:1;stroke:#2f8c88;stroke-width:4.91338587;stroke-miterlimit:4;stroke-dasharray:none;stroke-opacity:1"
         id="path875"
         inkscape:connector-curvature="0" />
      <path
         d="m 182.79149,152.81602 q -2.2,0 -3.6,-1.4 -1.4,-1.6 -1.4,-3.8 0,-2.2 1.4,-3.6 1.4,-1.4 3.6,-1.4 h 7.2 q 2.2,0 3.6,1.4 1.6,1.4 1.6,3.6 0,2.2 -1.6,3.8 -1.4,1.4 -3.6,1.4 z m 26.2,23.2 q 0,14.4 -10,25 -4.8,5.2 -11,7.8 -6.2,2.6 -13.2,2.6 h -2.2 q -12.4,0 -21.8,-8.2 -1.6,-1.4 -1.8,-3.6 -0.2,-2 1.2,-3.6 1.6,-1.6 3.6,-1.8 2,-0.2 3.6,1.2 6.8,5.8 15.2,5.8 h 2.2 q 5,0 9.2,-2 4.4,-2 7.6,-5.4 3.4,-3.4 5.2,-8 2,-4.6 2,-9.8 v -11.6 -89.600004 h -26.8 q -6.2,0 -11.8,1.6 -5.6,1.6 -9.8,4.8 -8,5.8 -8,13.6 v 9.800004 13.2 4.8 q 0,3.8 2,7.2 2,3.4 5.6,6.2 3.6,2.6 8.4,4.4 4.8,1.6 10.4,2 2.2,0.2 3.4,1.8 1.4,1.6 1.2,3.8 -0.2,2 -1.6,3.4 -1.4,1.2 -3.4,1.2 h -0.4 q -7.6,-0.6 -14.2,-3 -6.6,-2.6 -11.4,-6.6 -4.8,-4.2 -7.6,-9.4 -2.6,-5.2 -2.6,-11 v -4.8 -13.2 -9.800004 q 0,-6.4 3.4,-12.2 3,-5.6 8.8,-9.6 5.6,-4 12.6,-6.2 7.2,-2.2 15,-2.2 h 31.8 q 1.4,0 3,0.8 2.2,1.8 2.2,4.4 v 75.000004 z"
         style="font-style:normal;font-variant:normal;font-weight:normal;font-stretch:normal;font-size:200px;line-height:1.25;font-family:BOKEH;-inkscape-font-specification:BOKEH;letter-spacing:5.36000061px;fill:#2f8c88;fill-opacity:1;stroke:#2f8c88;stroke-width:4.91338587;stroke-miterlimit:4;stroke-dasharray:none;stroke-opacity:1"
         id="path877"
         inkscape:connector-curvature="0" />
      <path
         d="m 269.83275,64.816016 q 7,0.8 13,4 6.2,3 10.6,7.8 4.4,4.8 6.8,10.8 2.6,6 2.6,12.800004 v 10.4 16.8 10.4 q 0,7.2 -3,13.8 -2.8,6.4 -8,11.4 -11,10.4 -26.4,10.4 h -2.2 q -15.4,0 -26.4,-10.4 -5.2,-5 -8.2,-11.4 -2.8,-6.6 -2.8,-13.8 v -10.8 -16 -10.8 q 0,-6.800004 2.8,-13.600004 1,-2 2.8,-2.8 2,-0.8 4,0.2 2,1 2.8,3 0.8,1.8 -0.2,3.8 -1.8,4.6 -1.8,9.400004 v 10.8 16 10.8 q 0,5.2 2,10 2.2,4.6 5.8,8 3.8,3.4 8.6,5.4 5,2 10.6,2 h 2.2 q 5.6,0 10.4,-2 5,-2 8.6,-5.4 3.8,-3.4 5.8,-8 2.2,-4.8 2.2,-10 v -10.4 -16.8 -10.4 q 0,-4.800004 -1.8,-9.000004 -1.8,-4.4 -5,-7.8 -3.2,-3.4 -7.6,-5.6 -4.2,-2.2 -9.2,-2.8 -2.2,-0.4 -3.6,-1.8 -1.2,-1.6 -1,-3.8 0.4,-2.2 1.8,-3.6 1.6,-1.4 3.8,-1 z m -25.6,15.8 q -2.6,0 -4.2,-2.2 -1.2,-1.6 -0.8,-3.6 0.4,-2.2 2,-3.4 5.4,-3.8 11,-5.2 2.2,-0.6 4,0.4 1.8,0.8 2.4,3 0.6,2 -0.4,4 -1,1.8 -3,2.4 -4.6,1.2 -8,3.8 -1.4,0.8 -3,0.8 z"
         style="font-style:normal;font-variant:normal;font-weight:normal;font-stretch:normal;font-size:200px;line-height:1.25;font-family:BOKEH;-inkscape-font-specification:BOKEH;letter-spacing:5.36000061px;fill:#2f8c88;fill-opacity:1;stroke:#2f8c88;stroke-width:4.91338587;stroke-miterlimit:4;stroke-dasharray:none;stroke-opacity:1"
         id="path879"
         inkscape:connector-curvature="0" />
      <path
         d="m 393.06461,64.816016 q 2.2,0.8 3,2.8 1,1.8 0.2,3.8 l -38.6,109.600004 q 0,0 -0.2,0.2 -5.8,13.6 -14.4,22.4 -9.2,9.8 -18,9.8 h -0.2 q -2.2,0 -3.6,-1.4 -1.4,-1.4 -1.4,-3.6 0,-2.2 1.4,-3.8 1.4,-1.4 3.6,-1.4 2.2,0 5,-1.8 3,-1.8 6,-4.8 3.4,-3.6 6.6,-8.6 3.2,-4.8 5.6,-10.6 l 38.6,-109.400004 q 0.6,-2 2.4,-2.8 2,-1 4,-0.4 z m -72,7 q -0.8,-2 -0.2,-3.8 0.8,-2 2.8,-3 2,-1 3.8,-0.2 2,0.8 3,2.8 l 18.4,41.600004 q 1,2 0.2,4 -0.8,1.8 -2.8,2.8 -1.2,0.4 -2,0.4 -3.2,0 -4.6,-3 z m 24.8,55.600004 q -1,-1.8 -0.2,-3.8 0.8,-2 2.8,-2.8 2,-1 3.8,-0.2 2,0.8 3,2.8 l 3.2,7.6 q 1,1.8 0.2,3.8 -0.8,2 -2.8,2.8 -1,0.6 -2,0.6 -3.4,0 -4.6,-3.2 z"
         style="font-style:normal;font-variant:normal;font-weight:normal;font-stretch:normal;font-size:200px;line-height:1.25;font-family:BOKEH;-inkscape-font-specification:BOKEH;letter-spacing:5.36000061px;fill:#2f8c88;fill-opacity:1;stroke:#2f8c88;stroke-width:4.91338587;stroke-miterlimit:4;stroke-dasharray:none;stroke-opacity:1"
         id="path881"
         inkscape:connector-curvature="0" />
      <path
         d="m 485.69647,142.01602 q 2.2,0 3.6,1.6 1.4,1.4 1.4,3.6 v 7.6 q 0,2.2 -1.4,3.6 -1.4,1.4 -3.6,1.4 -2.2,0 -3.8,-1.4 -1.4,-1.4 -1.4,-3.6 v -7.6 q 0,-2.2 1.4,-3.6 1.6,-1.6 3.8,-1.6 z m 0,21.2 q 2.2,0 3.6,1.4 1.6,1.4 1.6,3.6 0,2.2 -1.6,3.8 -1.4,1.4 -3.6,1.4 h -41.6 q -13.6,0 -21.6,-8.4 -3.2,-3.2 -5,-7 -1.8,-4 -2.6,-7.4 -0.8,-3.4 -1,-6 0,-2.6 0,-3.4 0,-0.8 0,-3.4 0.2,-2.6 1,-6 0.8,-3.4 2.6,-7.2 1.8,-4 5,-7.4 8,-8.4 21.6,-8.4 h 36.4 v -8.8 q 0,-5.200004 -2,-9.800004 -1.8,-4.6 -5,-8 -3.2,-3.4 -7.6,-5.4 -4.2,-2 -9.2,-2 h -2.2 q -8.2,0 -14.6,5.2 -6.2,5 -8.4,13.2 -0.6,2.2 -2.4,3.2 -1.8,1 -4,0.4 -2,-0.4 -3,-2.2 -1,-1.8 -0.6,-4 3.2,-11.6 12,-18.6 4.6,-3.8 9.8,-5.6 5.4,-1.8 11.2,-1.8 h 2.2 q 6.8,0 13,2.6 6.2,2.6 11.2,7.8 4.8,5 7.2,11.6 2.6,6.4 2.6,13.400004 v 31.2 q 0,2.2 -1.4,3.6 -1.4,1.4 -3.6,1.4 -2.2,0 -3.8,-1.4 -1.4,-1.4 -1.4,-3.6 v -12.2 h -36.4 q -9,0 -14.2,5.2 -2.2,2.4 -3.4,5.4 -1.2,2.8 -1.8,5.4 -0.4,2.4 -0.4,4.2 0,1.8 0,1.8 v 0.4 q 0,0.4 0,2.2 0,1.6 0.4,4.2 0.6,2.4 1.8,5.2 1.2,2.8 3.4,5 5.2,5.2 14.2,5.2 z"
         style="font-style:normal;font-variant:normal;font-weight:normal;font-stretch:normal;font-size:200px;line-height:1.25;font-family:BOKEH;-inkscape-font-specification:BOKEH;letter-spacing:5.36000061px;fill:#2f8c88;fill-opacity:1;stroke:#2f8c88;stroke-width:4.91338587;stroke-miterlimit:4;stroke-dasharray:none;stroke-opacity:1"
         id="path883"
         inkscape:connector-curvature="0" />
    </g>
    <g
       aria-label="Nagoya Beginner's LT "
       transform="matrix(0.39918888,0,0,0.39918888,91.36854,-62.359603)"
       style="font-style:normal;font-weight:normal;font-size:40px;line-height:1.25;font-family:sans-serif;letter-spacing:0px;word-spacing:0px;fill:#000000;fill-opacity:1;stroke:none"
       id="flowRoot910">
      <path
         d="m -21.4,165.30117 c -0.133333,0.26667 -0.333333,0.53333 -0.6,0.8 v 0.2 h -0.2 v 0.2 h -0.2 c 0,0.13333 -0.06667,0.2 -0.2,0.2 l -0.2,0.2 c -0.133333,0 -0.266667,0.0667 -0.4,0.2 h -0.2 l -0.8,0.4 h -0.2 -0.2 -0.2 -0.2 c 0,0.13333 -0.06667,0.2 -0.2,0.2 h -0.2 -0.2 -0.2 -0.2 -0.2 v -0.2 h -0.2 -0.2 c -0.4,0 -0.666667,-0.0667 -0.8,-0.2 -0.133333,0 -0.2,-0.0667 -0.2,-0.2 h -0.2 -0.2 c 0,-0.13333 -0.06667,-0.2 -0.2,-0.2 h -0.2 v -0.2 h -0.2 v -0.2 h -0.2 l -0.4,-0.4 h -0.2 v -0.2 -0.2 c -0.133333,0 -0.2,-0.0667 -0.2,-0.2 -0.133333,0 -0.2,-0.0667 -0.2,-0.2 l -16.6,-26 c -0.8,-1.2 -1.066667,-2.46667 -0.8,-3.8 0.4,-1.33333 1.133333,-2.4 2.2,-3.2 1.2,-0.8 2.466667,-1 3.8,-0.6 1.466667,0.26667 2.6,1 3.4,2.2 l 7.2,11.2 V 32.901172 c 0,-1.466667 0.466667,-2.666667 1.4,-3.6 0.933333,-1.066667 2.133333,-1.6 3.6,-1.6 1.466667,0 2.666667,0.533333 3.6,1.6 1.066667,0.933333 1.622631,2.133508 1.6,3.6 v 129.599998 0.2 0.2 0.2 l -0.2,0.2 v 0.2 0.2 c 0,0.13333 -0.06667,0.26667 -0.2,0.4 v 0.4 l -0.2,0.2 v 0.2 l -0.2,0.2 c 0,0.13333 -0.06667,0.2 -0.2,0.2 z m -36.4,-62.6 c 0.8,1.2 1,2.53333 0.6,4 -0.266667,1.33333 -0.933333,2.33333 -2,3 -0.933333,0.53333 -1.866667,0.8 -2.8,0.8 -1.866667,0 -3.333333,-0.73333 -4.4,-2.2 l -37,-57.999998 V 162.50117 c 0,1.46667 -0.46667,2.73333 -1.4,3.8 -0.93333,0.93333 -2.13333,1.4 -3.6,1.4 -1.46667,0 -2.73333,-0.46667 -3.8,-1.4 -0.93333,-1.06667 -1.37737,-2.33351 -1.4,-3.8 v -129.599998 -0.2 -0.2 -0.2 -0.2 l 0.2,-0.2 v -0.2 -0.4 c 0.13333,-0.133333 0.2,-0.266667 0.2,-0.4 0,-0.133333 0.0667,-0.2 0.2,-0.2 v -0.2 c 0,-0.133333 0.0667,-0.2 0.2,-0.2 v -0.2 c 0.13333,-0.4 0.4,-0.666667 0.8,-0.8 v -0.2 h 0.2 v -0.2 h 0.2 l 0.2,-0.2 h 0.2 v -0.2 h 0.2 l 0.2,-0.2 h 0.2 l 0.2,-0.2 h 0.2 0.2 v -0.2 h 0.2 0.2 0.2 0.2 0.2 c 0.13333,0 0.2,-0.06667 0.2,-0.2 h 0.2 0.2 0.2 c 0,0.133333 0.0667,0.2 0.2,0.2 h 0.2 0.2 0.2 c 0.13333,0 0.46667,0.133333 1,0.4 h 0.2 l 0.2,0.2 h 0.2 l 0.2,0.2 c 0.26667,0.266669 0.53333,0.466667 0.8,0.6 v 0.2 h 0.2 v 0.2 h 0.2 v 0.2 h 0.2 v 0.2 z m 12.6,19.6 c 0.8,1.2 1,2.53333 0.6,4 -0.266667,1.33333 -1,2.4 -2.2,3.2 -1.066667,0.53333 -1.933333,0.8 -2.6,0.8 -1.733333,0 -3.2,-0.8 -4.4,-2.4 l -4.8,-7.4 c -0.666667,-1.2 -0.866667,-2.46667 -0.6,-3.8 0.266667,-1.46667 1,-2.6 2.2,-3.4 1.2,-0.66667 2.466667,-0.86667 3.8,-0.6 1.466667,0.26667 2.533333,1 3.2,2.2 z"
         style="font-style:normal;font-variant:normal;font-weight:normal;font-stretch:normal;font-size:200px;font-family:BOKEH;-inkscape-font-specification:BOKEH;letter-spacing:5.63999987px;fill:#eee531;fill-opacity:1"
         id="path932"
         inkscape:connector-curvature="0"
         sodipodi:nodetypes="cccccccccccccccscccccccsccccscccccccccccccccccscscsccccccscccccccccsccscscsccccccccscscccccccccccccccccccccsccccsccsccccsccccccccccccsccccccc" />
      <path
         d="m 68.718124,136.30117 c 1.466667,0 2.666667,0.53333 3.6,1.6 0.933333,0.93333 1.4,2.13333 1.4,3.6 v 7.6 c 0,1.46667 -0.466667,2.66667 -1.4,3.6 -0.933333,0.93333 -2.133333,1.4 -3.6,1.4 -1.466667,0 -2.733333,-0.46667 -3.8,-1.4 -0.933333,-0.93333 -1.4,-2.13333 -1.4,-3.6 v -7.6 c 0,-1.46667 0.466667,-2.66667 1.4,-3.6 1.066667,-1.06667 2.333333,-1.6 3.8,-1.6 z m 0,21.2 c 1.466667,0 2.666667,0.46667 3.6,1.4 1.066667,0.93333 1.6,2.13333 1.6,3.6 0,1.46667 -0.533333,2.73333 -1.6,3.8 -0.933333,0.93333 -2.133333,1.4 -3.6,1.4 h -41.6 c -9.066667,0 -16.266667,-2.8 -21.5999996,-8.4 -2.1333334,-2.13333 -3.8,-4.46667 -4.99999997,-7 -1.2,-2.66667 -2.06666673,-5.13333 -2.60000003,-7.4 -0.5333334,-2.26667 -0.8666667,-4.26667 -1,-6 v -3.4 -3.4 c 0.1333333,-1.73333 0.4666666,-3.73333 1,-6 0.5333333,-2.26667 1.40000003,-4.66667 2.60000003,-7.2 1.19999997,-2.66667 2.86666657,-5.13333 4.99999997,-7.4 5.3333326,-5.6 12.5333326,-8.4 21.5999996,-8.4 h 36.4 v -8.799998 c 0,-3.466667 -0.666667,-6.733333 -2,-9.8 -1.2,-3.066667 -2.866667,-5.733333 -5,-8 -2.133333,-2.266667 -4.666667,-4.066667 -7.6,-5.4 -2.8,-1.333333 -5.866667,-2 -9.2,-2 h -2.2 c -5.466667,0 -10.333333,1.733333 -14.6,5.2 -4.133333,3.333333 -6.933333,7.733333 -8.4,13.2 -0.4,1.466667 -1.2,2.533333 -2.4,3.2 -1.2,0.666667 -2.5333332,0.8 -3.9999996,0.4 -1.3333334,-0.266667 -2.3333334,-1 -3,-2.2 -0.6666667,-1.2 -0.8666667,-2.533333 -0.6,-4 2.1333333,-7.733333 6.1333336,-13.933333 11.9999996,-18.6 3.066667,-2.533333 6.333333,-4.4 9.8,-5.6 3.6,-1.2 7.333333,-1.8 11.2,-1.8 h 2.2 c 4.533333,0 8.866667,0.866667 13,2.6 4.133333,1.733333 7.866667,4.333333 11.2,7.8 3.2,3.333333 5.6,7.2 7.2,11.6 1.733333,4.266667 2.6,8.733333 2.6,13.4 v 31.199998 c 0,1.46667 -0.466667,2.66667 -1.4,3.6 -0.933333,0.93333 -2.133333,1.4 -3.6,1.4 -1.466667,0 -2.733333,-0.46667 -3.8,-1.4 -0.933333,-0.93333 -1.162729,-2.15265 -1.4,-3.6 v -12.2 h -36.4 c -6,0 -10.733333,1.73333 -14.2,5.2 -1.466667,1.6 -2.6,3.4 -3.3999996,5.4 -0.8,1.86667 -1.4,3.66667 -1.8,5.4 -0.2666667,1.6 0.4919542,3.39724 -0.4,4.2 v 1.8 0.4 2.2 c 0,1.06667 0.1333333,2.46667 0.4,4.2 0.4,1.6 1,3.33333 1.8,5.2 0.7999996,1.86667 1.9333326,3.53333 3.3999996,5 3.466667,3.46667 8.2,5.2 14.2,5.2 z"
         style="font-style:normal;font-variant:normal;font-weight:normal;font-stretch:normal;font-size:200px;font-family:BOKEH;-inkscape-font-specification:BOKEH;letter-spacing:5.63999987px;fill:#eee531;fill-opacity:1"
         id="path934"
         inkscape:connector-curvature="0"
         sodipodi:nodetypes="scsssscssssscssssccscccsccscscscssccscscccsssccsssscscscccsccscssss" />
      <path
         d="m 139.83,147.10117 c -1.46667,0 -2.66667,-0.46667 -3.6,-1.4 -0.93333,-1.06667 -1.4,-2.33333 -1.4,-3.8 0,-1.46667 0.46667,-2.66667 1.4,-3.6 0.93333,-0.93333 2.13333,-1.4 3.6,-1.4 h 7.2 c 1.46667,0 2.66667,0.46667 3.6,1.4 1.06667,0.93333 1.6,2.13333 1.6,3.6 0,1.46667 -0.53333,2.73333 -1.6,3.8 -0.93333,0.93333 -2.13333,1.4 -3.6,1.4 z m 26.2,23.2 c 0,9.6 -3.33333,17.93333 -10,25 -3.2,3.46667 -6.86667,6.06667 -11,7.8 -4.13333,1.73333 -8.53333,2.6 -13.2,2.6 h -2.2 c -8.26667,0 -15.53333,-2.73333 -21.8,-8.2 -1.06667,-0.93333 -1.66667,-2.13333 -1.8,-3.6 -0.13333,-1.33333 0.26667,-2.53333 1.2,-3.6 1.06667,-1.06667 2.26667,-1.66667 3.6,-1.8 1.33333,-0.13333 2.53333,0.26667 3.6,1.2 4.53333,3.86667 9.6,5.8 15.2,5.8 h 2.2 c 3.33333,0 6.4,-0.66667 9.2,-2 2.93333,-1.33333 5.46667,-3.13333 7.6,-5.4 2.26667,-2.26667 4,-4.93333 5.2,-8 1.33333,-3.06667 1.41099,-6.38374 2,-9.8 v -11.6 -89.599998 h -26.8 c -4.13333,0 -8.06667,0.533333 -11.8,1.6 -3.73333,1.066667 -7,2.666667 -9.8,4.8 -5.33333,3.866667 -9.039792,8.505019 -8,13.6 v 9.8 13.199998 4.8 c 0,2.53333 0.66667,4.93333 2,7.2 1.33333,2.26667 3.2,4.33333 5.6,6.2 2.4,1.73333 5.2,3.2 8.4,4.4 3.2,1.06667 6.66667,1.73333 10.4,2 1.46667,0.13333 2.6,0.73333 3.4,1.8 0.93333,1.06667 1.33333,2.33333 1.2,3.8 -0.13333,1.33333 -0.66667,2.46667 -1.6,3.4 -0.93333,0.8 -2.06667,1.2 -3.4,1.2 h -0.4 c -5.06667,-0.4 -9.8,-1.4 -14.2,-3 -4.4,-1.73333 -8.2,-3.93333 -11.4,-6.6 -3.200001,-2.8 -5.733334,-5.93333 -7.600001,-9.4 -1.733333,-3.46667 -2.6,-7.13333 -2.6,-11 v -4.8 -13.199998 -9.8 c 0,-4.266667 1.133333,-8.333333 3.4,-12.2 2,-3.733333 4.933334,-6.933333 8.800001,-9.6 3.73333,-2.666667 7.93333,-4.733333 12.6,-6.2 4.8,-1.466667 9.8,-2.2 15,-2.2 h 31.8 c 0.93333,0 1.93333,0.266667 3,0.8 1.46667,1.2 2.2,2.666667 2.2,4.4 v 74.999998 z"
         style="font-style:normal;font-variant:normal;font-weight:normal;font-stretch:normal;font-size:200px;font-family:BOKEH;-inkscape-font-specification:BOKEH;letter-spacing:5.63999987px;fill:#eee531;fill-opacity:1"
         id="path936"
         inkscape:connector-curvature="0"
         sodipodi:nodetypes="scsssscssssscssscccscsscccsccsscsccssccccccsccccsccscccsscscs" />
      <path
         d="m 227.15126,59.101172 c 4.66667,0.533333 9,1.866667 13,4 4.13333,2 7.66667,4.6 10.6,7.8 2.93333,3.2 5.2,6.8 6.8,10.8 1.73333,4 2.6,8.266667 2.6,12.8 v 10.399998 16.8 10.4 c 0,4.8 -1,9.4 -3,13.8 -1.86667,4.26667 -4.53333,8.06667 -8,11.4 -7.33333,6.93333 -16.13333,10.4 -26.4,10.4 h -2.2 c -10.26667,0 -19.06667,-3.46667 -26.4,-10.4 -3.46667,-3.33333 -6.2,-7.13333 -8.2,-11.4 -1.86667,-4.4 -3.67403,-9.08025 -2.8,-13.8 v -10.8 -16 -10.799998 c 0,-4.533333 0.93333,-9.066667 2.8,-13.6 0.66667,-1.333333 1.6,-2.266667 2.8,-2.8 1.33333,-0.533333 2.66667,-0.466667 4,0.2 1.33333,0.666667 2.26667,1.666667 2.8,3 0.53333,1.2 0.46667,2.466667 -0.2,3.8 -1.2,3.066667 -2.38269,6.253498 -1.8,9.4 v 10.799998 16 10.8 c 0,3.46667 0.66667,6.8 2,10 1.46667,3.06667 3.4,5.73333 5.8,8 2.53333,2.26667 5.4,4.06667 8.6,5.4 3.33333,1.33333 6.86667,2 10.6,2 h 2.2 c 3.73333,0 7.2,-0.66667 10.4,-2 3.33333,-1.33333 6.2,-3.13333 8.6,-5.4 2.53333,-2.26667 4.46667,-4.93333 5.8,-8 1.46667,-3.2 1.54533,-6.59571 2.2,-10 v -10.4 -16.8 -10.399998 c 0,-3.2 -0.6,-6.2 -1.8,-9 -1.2,-2.933333 -2.86667,-5.533333 -5,-7.8 -2.13333,-2.266667 -4.66667,-4.133333 -7.6,-5.6 -2.8,-1.466667 -5.86667,-2.4 -9.2,-2.8 -1.46667,-0.266667 -2.66667,-0.866667 -3.6,-1.8 -0.8,-1.066667 -1.13333,-2.333333 -1,-3.8 0.26667,-1.466667 0.86667,-2.666667 1.8,-3.6 1.06667,-0.933333 2.33333,-1.266667 3.8,-1 z m -25.6,15.8 c -1.73333,0 -3.13333,-0.733333 -4.2,-2.2 -0.8,-1.066667 -1.06667,-2.266667 -0.8,-3.6 0.26667,-1.466667 0.93333,-2.6 2,-3.4 3.6,-2.533333 7.26667,-4.266667 11,-5.2 1.46667,-0.4 2.8,-0.266667 4,0.4 1.2,0.533333 2,1.533333 2.4,3 0.4,1.333333 0.26667,2.666667 -0.4,4 -0.66667,1.2 -1.66667,2 -3,2.4 -3.06667,0.8 -5.73333,2.066667 -8,3.8 -0.93333,0.533333 -1.93333,0.8 -3,0.8 z"
         style="font-style:normal;font-variant:normal;font-weight:normal;font-stretch:normal;font-size:200px;font-family:BOKEH;-inkscape-font-specification:BOKEH;letter-spacing:5.63999987px;fill:#eee531;fill-opacity:1"
         id="path938"
         inkscape:connector-curvature="0"
         sodipodi:nodetypes="ccscsccsccssccsccsccsccsccscccsscccsccscsccccccscccccccccs" />
      <path
         d="m 350.66312,59.101172 c 1.46667,0.533333 2.46667,1.466667 3,2.8 0.66667,1.2 0.73333,2.466667 0.2,3.8 l -38.6,109.599998 -0.2,0.2 c -3.86667,9.06667 -8.66667,16.53333 -14.4,22.4 -6.13333,6.53333 -12.13333,9.8 -18,9.8 h -0.2 c -1.46667,0 -2.66667,-0.46667 -3.6,-1.4 -0.93333,-0.93333 -1.4,-2.13333 -1.4,-3.6 0,-1.46667 0.46667,-2.73333 1.4,-3.8 0.93333,-0.93333 2.13333,-1.4 3.6,-1.4 1.46667,0 3.13333,-0.6 5,-1.8 2,-1.2 4,-2.8 6,-4.8 2.26667,-2.4 4.46667,-5.26667 6.6,-8.6 2.13333,-3.2 4,-6.73333 5.6,-10.6 l 38.6,-109.399998 c 0.4,-1.333333 1.2,-2.266667 2.4,-2.8 1.33333,-0.666667 2.66667,-0.8 4,-0.4 z m -72,7 c -0.53333,-1.333333 -0.6,-2.6 -0.2,-3.8 0.53333,-1.333333 1.46667,-2.333333 2.8,-3 1.33333,-0.666667 2.6,-0.733333 3.8,-0.2 1.33333,0.533333 2.33333,1.466667 3,2.8 l 18.4,41.599998 c 0.66667,1.33333 0.73333,2.66667 0.2,4 -0.53333,1.2 -1.46667,2.13333 -2.8,2.8 -0.8,0.26667 -1.46667,0.4 -2,0.4 -2.13333,0 -3.66667,-1 -4.6,-3 z m 24.8,55.599998 c -0.66667,-1.2 -0.73333,-2.46667 -0.2,-3.8 0.53333,-1.33333 1.46667,-2.26667 2.8,-2.8 1.33333,-0.66667 2.6,-0.73333 3.8,-0.2 1.33333,0.53333 2.33333,1.46667 3,2.8 l 3.2,7.6 c 0.66667,1.2 0.73333,2.46667 0.2,3.8 -0.53333,1.33333 -1.46667,2.26667 -2.8,2.8 -0.66667,0.4 -1.33333,0.6 -2,0.6 -2.26667,0 -3.8,-1.06667 -4.6,-3.2 z"
         style="font-style:normal;font-variant:normal;font-weight:normal;font-stretch:normal;font-size:200px;font-family:BOKEH;-inkscape-font-specification:BOKEH;letter-spacing:5.63999987px;fill:#eee531;fill-opacity:1"
         id="path940"
         inkscape:connector-curvature="0"
         sodipodi:nodetypes="ccccccsssscscccccccccscccccscccsccccscscc" />
      <path
         d="m 443.57501,136.30117 c 1.46667,0 2.66667,0.53333 3.6,1.6 0.93333,0.93333 1.4,2.13333 1.4,3.6 v 7.6 c 0,1.46667 -0.46667,2.66667 -1.4,3.6 -0.93333,0.93333 -2.13333,1.4 -3.6,1.4 -1.46667,0 -2.73333,-0.46667 -3.8,-1.4 -0.93333,-0.93333 -1.4,-2.13333 -1.4,-3.6 v -7.6 c 0,-1.46667 0.46667,-2.66667 1.4,-3.6 1.06667,-1.06667 2.33333,-1.6 3.8,-1.6 z m 0,21.2 c 1.46667,0 2.66667,0.46667 3.6,1.4 1.06667,0.93333 1.6,2.13333 1.6,3.6 0,1.46667 -0.53333,2.73333 -1.6,3.8 -0.93333,0.93333 -2.13333,1.4 -3.6,1.4 h -41.6 c -9.06667,0 -16.26667,-2.8 -21.6,-8.4 -2.13333,-2.13333 -3.8,-4.46667 -5,-7 -1.2,-2.66667 -2.06667,-5.13333 -2.6,-7.4 -0.53333,-2.26667 -0.86667,-4.26667 -1,-6 v -3.4 -3.4 c 0.13333,-1.73333 0.46667,-3.73333 1,-6 0.53333,-2.26667 1.4,-4.66667 2.6,-7.2 1.2,-2.66667 2.86667,-5.13333 5,-7.4 5.33333,-5.6 12.53333,-8.4 21.6,-8.4 h 36.4 v -8.799998 c 0,-3.466667 -0.66667,-6.733333 -2,-9.8 -1.2,-3.066667 -2.86667,-5.733333 -5,-8 -2.13333,-2.266667 -4.66667,-4.066667 -7.6,-5.4 -2.8,-1.333333 -5.86667,-2 -9.2,-2 h -2.2 c -5.46667,0 -10.33333,1.733333 -14.6,5.2 -4.13333,3.333333 -6.93333,7.733333 -8.4,13.2 -0.4,1.466667 -1.2,2.533333 -2.4,3.2 -1.2,0.666667 -2.53333,0.8 -4,0.4 -1.33333,-0.266667 -2.33333,-1 -3,-2.2 -0.66667,-1.2 -0.86667,-2.533333 -0.6,-4 2.13333,-7.733333 6.13333,-13.933333 12,-18.6 3.06667,-2.533333 6.33333,-4.4 9.8,-5.6 3.6,-1.2 7.33333,-1.8 11.2,-1.8 h 2.2 c 4.53333,0 8.86667,0.866667 13,2.6 4.13333,1.733333 7.86667,4.333333 11.2,7.8 3.2,3.333333 5.6,7.2 7.2,11.6 1.73333,4.266667 2.6,8.733333 2.6,13.4 v 31.199998 c 0,1.46667 -0.46667,2.66667 -1.4,3.6 -0.93333,0.93333 -2.13333,1.4 -3.6,1.4 -1.46667,0 -2.73333,-0.46667 -3.8,-1.4 -0.93333,-0.93333 -1.4,-2.13333 -1.4,-3.6 v -12.2 h -36.4 c -6,0 -10.73333,1.73333 -14.2,5.2 -1.46667,1.6 -2.6,3.4 -3.4,5.4 -0.8,1.86667 -1.4,3.66667 -1.8,5.4 -0.26667,1.6 -0.4,3 -0.4,4.2 v 1.8 0.4 2.2 c 0,1.06667 0.13333,2.46667 0.4,4.2 0.4,1.6 1,3.33333 1.8,5.2 0.8,1.86667 1.93333,3.53333 3.4,5 3.46667,3.46667 8.2,5.2 14.2,5.2 z"
         style="font-style:normal;font-variant:normal;font-weight:normal;font-stretch:normal;font-size:200px;font-family:BOKEH;-inkscape-font-specification:BOKEH;letter-spacing:5.63999987px;fill:#eee531;fill-opacity:1"
         id="path942"
         inkscape:connector-curvature="0"
         sodipodi:nodetypes="scsssscssssscssssccscccsccscscscssccscscccsssccsssscscscccsccscssss" />
    </g>
  </g>
  <g
     inkscape:groupmode="layer"
     id="layer5"
     inkscape:label="LT"
     style="display:inline">
    <path
       d="m 79.355154,259.12622 q 0.87821,0 1.43708,0.6387 0.6387,0.55886 0.6387,1.43708 0,0.87821 -0.6387,1.43708 -0.55887,0.55886 -1.43708,0.55886 H 68.2577 q -0.878215,0 -1.437079,-0.55886 -0.558865,-0.55887 -0.558865,-1.43708 0,-0.87822 0.558865,-1.43708 0.558864,-0.6387 1.437079,-0.6387 z m -17.564313,0 q 0.878215,0 1.437079,0.6387 0.638703,0.55886 0.638703,1.43708 0,0.87821 -0.638703,1.43708 -0.558864,0.55886 -1.437079,0.55886 h -2.315296 q -0.878215,0 -1.516918,-0.55886 -0.558864,-0.55887 -0.558864,-1.43708 0,-0.87822 0.558864,-1.43708 0.638703,-0.6387 1.516918,-0.6387 z m -7.90394,0 q 0.878215,0 1.43708,0.6387 0.638702,0.55886 0.638702,1.43708 0,0.87821 -0.638702,1.43708 -0.558865,0.55886 -1.43708,0.55886 H 46.30231 45.823283 q -0.638703,-0.15967 -1.11773,-0.71854 -0.479026,-0.55886 -0.479026,-1.2774 v -51.73488 q 0,-0.87822 0.558864,-1.43708 0.638702,-0.6387 1.516919,-0.6387 0.878216,0 1.437081,0.6387 0.558864,0.55886 0.558864,1.43708 v 49.6591 z"
       style="font-style:normal;font-variant:normal;font-weight:normal;font-stretch:normal;font-size:200px;line-height:1.25;font-family:BOKEH;-inkscape-font-specification:BOKEH;letter-spacing:5.36000061px;word-spacing:0px;display:inline;fill:#2f8c88;fill-opacity:1;stroke:#2f8c88;stroke-width:1.96136904;stroke-miterlimit:4;stroke-dasharray:none;stroke-opacity:1"
       id="path905-8"
       inkscape:connector-curvature="0" />
    <path
       d="m 81.149304,260.10755 c 0.58548,0 1.0645,0.2129 1.43708,0.63871 0.4258,0.37257 0.6387,0.8516 0.6387,1.43708 0,0.58548 -0.2129,1.0645 -0.6387,1.43708 -0.37258,0.37257 -0.8516,0.55886 -1.43708,0.55886 h -11.09745 c -0.585477,0 -1.064504,-0.18629 -1.43708,-0.55886 -0.372576,-0.37258 -0.558865,-0.8516 -0.558865,-1.43708 0,-0.58548 0.186289,-1.06451 0.558865,-1.43708 0.372576,-0.42581 0.851603,-0.63871 1.43708,-0.63871 z m -17.56431,0 c 0.585477,0 1.064504,0.2129 1.43708,0.63871 0.425801,0.37257 0.638702,0.8516 0.638702,1.43708 0,0.58548 -0.212901,1.0645 -0.638702,1.43708 -0.372576,0.37257 -0.851603,0.55886 -1.43708,0.55886 h -2.315296 c -0.585477,0 -1.091116,-0.18629 -1.516917,-0.55886 -0.372577,-0.37258 -0.558865,-0.8516 -0.558865,-1.43708 0,-0.58548 0.186288,-1.06451 0.558865,-1.43708 0.425801,-0.42581 0.93144,-0.63871 1.516917,-0.63871 z m -7.90394,0 c 0.585477,0 1.064504,0.2129 1.43708,0.63871 0.425801,0.37257 0.638702,0.8516 0.638702,1.43708 0,0.58548 -0.212901,1.0645 -0.638702,1.43708 -0.372576,0.37257 -0.851603,0.55886 -1.43708,0.55886 h -7.58459 -0.479026 c -0.425803,-0.10645 -0.798379,-0.34596 -1.11773,-0.71854 -0.319352,-0.37258 -0.479027,-0.79838 -0.479027,-1.2774 v -51.73488 c 0,-0.58548 0.186289,-1.06451 0.558864,-1.43708 0.425803,-0.42581 0.931441,-0.63871 1.516919,-0.63871 0.585479,0 1.064506,0.2129 1.437081,0.63871 0.372575,0.37257 0.568277,0.85167 0.558864,1.43708 v 49.65909 z"
       style="font-style:normal;font-variant:normal;font-weight:normal;font-stretch:normal;font-size:200px;line-height:1.25;font-family:BOKEH;-inkscape-font-specification:BOKEH;letter-spacing:5.63999987px;word-spacing:0px;display:inline;fill:#eee531;fill-opacity:1;stroke:none;stroke-width:0.39918891"
       id="path964-6"
       inkscape:connector-curvature="0"
       sodipodi:nodetypes="scscsssscssscscsscssssscscsccssssscscs" />
    <path
       d="m 106.20711,213.77837 q 0.87823,0 1.43709,0.55886 0.55886,0.55887 0.55886,1.43708 v 5.66849 q 0,0.87821 -0.55886,1.51691 -0.55886,0.55887 -1.43709,0.55887 -0.87822,0 -1.51691,-0.55887 -0.55887,-0.6387 -0.55887,-1.51691 v -5.66849 q 0,-0.87821 0.55887,-1.43708 0.63869,-0.55886 1.51691,-0.55886 z m 0,13.01356 q 0.87823,0 1.43709,0.6387 0.55886,0.55886 0.55886,1.43708 v 32.25446 q 0,0.87822 -0.55886,1.51692 -0.55886,0.55886 -1.43709,0.55886 -0.87822,0 -1.51691,-0.55886 -0.55887,-0.6387 -0.55887,-1.51692 v -32.25446 q 0,-0.87822 0.55887,-1.43708 0.63869,-0.6387 1.51691,-0.6387 z m 16.52645,-19.40058 q 0.87823,0 1.43709,0.6387 0.55885,0.55886 0.55885,1.43708 0,0.87822 -0.55885,1.43708 -0.55886,0.55886 -1.43709,0.55886 H 89.600832 q -0.878216,0 -1.43708,-0.55886 -0.558864,-0.55886 -0.558864,-1.43708 0,-0.87822 0.558864,-1.43708 0.558864,-0.6387 1.43708,-0.6387 z"
       style="font-style:normal;font-variant:normal;font-weight:normal;font-stretch:normal;font-size:200px;line-height:1.25;font-family:BOKEH;-inkscape-font-specification:BOKEH;letter-spacing:5.36000061px;word-spacing:0px;display:inline;fill:#2f8c88;fill-opacity:1;stroke:#2f8c88;stroke-width:1.96136904;stroke-miterlimit:4;stroke-dasharray:none;stroke-opacity:1"
       id="path907-5"
       inkscape:connector-curvature="0" />
    <path
       d="m 108.11304,214.75971 c 0.58548,0 1.06451,0.18629 1.43709,0.55886 0.37258,0.37258 0.55887,0.8516 0.55887,1.43708 v 5.66848 c 0,0.58548 -0.18629,1.09112 -0.55887,1.51692 -0.37258,0.37258 -0.85161,0.55887 -1.43709,0.55887 -0.58547,0 -1.09111,-0.18629 -1.51692,-0.55887 -0.37258,-0.4258 -0.55886,-0.93144 -0.55886,-1.51692 v -5.66848 c 0,-0.58548 0.18628,-1.0645 0.55886,-1.43708 0.42581,-0.37257 0.93145,-0.55886 1.51692,-0.55886 z m 0,13.01355 c 0.58548,0 1.06451,0.2129 1.43709,0.63871 0.37258,0.37257 0.55887,0.8516 0.55887,1.43708 v 32.25446 c 0,0.58548 -0.18629,1.09111 -0.55887,1.51692 -0.37258,0.37257 -0.85161,0.55886 -1.43709,0.55886 -0.58547,0 -1.09111,-0.18629 -1.51692,-0.55886 -0.37258,-0.42581 -0.55886,-0.93144 -0.55886,-1.51692 v -32.25446 c 0,-0.58548 0.18628,-1.06451 0.55886,-1.43708 0.42581,-0.42581 0.93145,-0.63871 1.51692,-0.63871 z m 16.52645,-19.40058 c 0.58548,0 1.06451,0.2129 1.43709,0.63871 0.37257,0.37257 0.55887,0.8516 0.55887,1.43708 0,0.58548 -0.1863,1.0645 -0.55887,1.43708 -0.37258,0.37257 -0.85161,0.55886 -1.43709,0.55886 H 91.506758 c -0.585477,0 -1.064504,-0.18629 -1.43708,-0.55886 -0.372577,-0.37258 -0.558865,-0.8516 -0.558865,-1.43708 0,-0.58548 0.186288,-1.06451 0.558865,-1.43708 0.372576,-0.42581 0.851603,-0.63871 1.43708,-0.63871 z"
       style="font-style:normal;font-variant:normal;font-weight:normal;font-stretch:normal;font-size:200px;line-height:1.25;font-family:BOKEH;-inkscape-font-specification:BOKEH;letter-spacing:5.63999987px;word-spacing:0px;display:inline;fill:#eee531;fill-opacity:1;stroke:none;stroke-width:0.39918891"
       id="path966-7"
       inkscape:connector-curvature="0"
       sodipodi:nodetypes="sssscscsscsscsscscssssscsssssscss" />
  </g>
  <g
     inkscape:groupmode="layer"
     id="layer1"
     inkscape:label="Wakaba"
     transform="translate(0,60.00002)"
     style="display:inline">
    <path
       style="fill:#eee531;fill-opacity:1;stroke:#ffcc00;stroke-width:7.5319376;stroke-linecap:square;stroke-linejoin:round;stroke-miterlimit:4;stroke-dasharray:none;stroke-opacity:1"
       d="m 504.85904,14.583368 -66.16912,-65.056328 1.50819,187.79917 66.16962,65.11528"
       id="path978-4-7"
       inkscape:connector-curvature="0"
       sodipodi:nodetypes="cccc" />
    <path
       style="fill:#2f8c88;fill-opacity:1;stroke:#55d400;stroke-width:7.5319376;stroke-linecap:round;stroke-linejoin:round;stroke-miterlimit:4;stroke-dasharray:none;stroke-opacity:1;paint-order:normal"
       d="M 506.36829,202.38274 571.4835,136.21312 569.97531,-51.586025 504.85904,14.583368"
       id="path1069"
       inkscape:connector-curvature="0"
       sodipodi:nodetypes="cccc" />
  </g>
</svg>
