<?xml version="1.0" encoding="UTF-8" standalone="no"?>
<!-- Created with Inkscape (http://www.inkscape.org/) -->

<svg
   xmlns:dc="http://purl.org/dc/elements/1.1/"
   xmlns:cc="http://creativecommons.org/ns#"
   xmlns:rdf="http://www.w3.org/1999/02/22-rdf-syntax-ns#"
   xmlns:svg="http://www.w3.org/2000/svg"
   xmlns="http://www.w3.org/2000/svg"
   xmlns:sodipodi="http://sodipodi.sourceforge.net/DTD/sodipodi-0.dtd"
   xmlns:inkscape="http://www.inkscape.org/namespaces/inkscape"
   width="297mm"
   height="178mm"
   viewBox="0 0 297 178"
   version="1.1"
   id="svg8"
   inkscape:version="0.92.2 5c3e80d, 2017-08-06"
   sodipodi:docname="NagoyaBuiginersLT.svg"
   inkscape:export-filename="/Users/reno.89m/Desktop/NagoyaBuiginersLT.png"
   inkscape:export-xdpi="245.561"
   inkscape:export-ydpi="245.561">
  <defs
     id="defs2" />
  <sodipodi:namedview
     id="base"
     pagecolor="#ffffff"
     bordercolor="#666666"
     borderopacity="1.0"
     inkscape:pageopacity="0.0"
     inkscape:pageshadow="2"
     inkscape:zoom="1"
     inkscape:cx="933.24149"
     inkscape:cy="108.57274"
     inkscape:document-units="mm"
     inkscape:current-layer="layer1"
     showgrid="false"
     inkscape:window-width="1827"
     inkscape:window-height="956"
     inkscape:window-x="31"
     inkscape:window-y="0"
     inkscape:window-maximized="0"
     showguides="false" />
  <metadata
     id="metadata5">
    <rdf:RDF>
      <cc:Work
         rdf:about="">
        <dc:format>image/svg+xml</dc:format>
        <dc:type
           rdf:resource="http://purl.org/dc/dcmitype/StillImage" />
        <dc:title></dc:title>
      </cc:Work>
    </rdf:RDF>
  </metadata>
  <g
     inkscape:groupmode="layer"
     id="layer2"
     inkscape:label="NBL"
     transform="translate(0,-32)">
    <flowRoot
       xml:space="preserve"
       id="flowRoot969"
       style="font-style:normal;font-weight:normal;font-size:40px;line-height:1.25;font-family:sans-serif;letter-spacing:0px;word-spacing:0px;fill:#000000;fill-opacity:1;stroke:none"><flowRegion
         id="flowRegion971"><rect
           id="rect973"
           width="134.67303"
           height="102.02502"
           x="1.0202502"
           y="17.800503" /></flowRegion><flowPara
         id="flowPara975" /></flowRoot>    <flowRoot
       xml:space="preserve"
       id="flowRoot977"
       style="font-style:normal;font-variant:normal;font-weight:normal;font-stretch:normal;font-size:40px;line-height:1.25;font-family:bokeh;-inkscape-font-specification:bokeh;letter-spacing:0px;word-spacing:0px;fill:#000000;fill-opacity:1;stroke:none"><flowRegion
         id="flowRegion979"
         style="font-style:normal;font-variant:normal;font-weight:normal;font-stretch:normal;font-family:bokeh;-inkscape-font-specification:bokeh"><rect
           id="rect981"
           width="416.26208"
           height="204.56017"
           x="-0.5101251"
           y="-9.746254"
           style="font-style:normal;font-variant:normal;font-weight:normal;font-stretch:normal;font-family:bokeh;-inkscape-font-specification:bokeh" /></flowRegion><flowPara
         id="flowPara983" /></flowRoot>    <flowRoot
       xml:space="preserve"
       id="flowRoot845"
       style="font-style:normal;font-variant:normal;font-weight:normal;font-stretch:normal;font-size:40px;line-height:1.25;font-family:BOKEH;-inkscape-font-specification:BOKEH;letter-spacing:0px;word-spacing:0px;fill:#000000;fill-opacity:1;stroke:none"><flowRegion
         id="flowRegion847"
         style="font-style:normal;font-variant:normal;font-weight:normal;font-stretch:normal;font-family:BOKEH;-inkscape-font-specification:BOKEH"><rect
           id="rect849"
           width="318.82819"
           height="199.45892"
           x="-68.86689"
           y="-4.1348944"
           style="font-style:normal;font-variant:normal;font-weight:normal;font-stretch:normal;font-family:BOKEH;-inkscape-font-specification:BOKEH" /></flowRegion><flowPara
         id="flowPara851"></flowPara></flowRoot>    <flowRoot
       xml:space="preserve"
       id="flowRoot853"
       style="font-style:normal;font-weight:normal;font-size:40px;line-height:1.25;font-family:sans-serif;letter-spacing:0px;word-spacing:0px;fill:#000000;fill-opacity:1;stroke:none"><flowRegion
         id="flowRegion855"><rect
           id="rect857"
           width="322.90921"
           height="202.00955"
           x="-97.944023"
           y="-12.296896" /></flowRegion><flowPara
         id="flowPara859"></flowPara></flowRoot>    <g
       aria-label="Nagoya
Beginner's
LT"
       transform="matrix(0.26458333,0,0,0.26458333,22.749939,28.000025)"
       style="font-style:normal;font-weight:normal;font-size:40px;line-height:1.25;font-family:sans-serif;letter-spacing:0px;word-spacing:0px;fill:#44aa00;fill-opacity:1;stroke:none;stroke-width:6.04724407;stroke-miterlimit:4;stroke-dasharray:none"
       id="flowRoot861">
      <path
         d="m 20.121484,171.01602 q -0.2,0.4 -0.6,0.8 v 0.2 h -0.2 v 0.2 h -0.2 q 0,0.2 -0.2,0.2 0,0 -0.2,0.2 -0.2,0 -0.4,0.2 0,0 -0.2,0 0,0 -0.8,0.4 h -0.2 -0.2 -0.2 -0.2 q 0,0.2 -0.2,0.2 h -0.2 -0.2 -0.2 -0.2 -0.2 v -0.2 h -0.2 -0.2 q -0.6,0 -0.8,-0.2 -0.2,0 -0.2,-0.2 h -0.2 -0.2 q 0,-0.2 -0.2,-0.2 h -0.2 v -0.2 h -0.2 v -0.2 h -0.2 l -0.4,-0.4 h -0.2 v -0.2 -0.2 q -0.2,0 -0.2,-0.2 -0.2,0 -0.2,-0.2 l -16.5999996,-26 q -1.2,-1.8 -0.8,-3.8 0.6,-2 2.2,-3.2 1.8,-1.2 3.79999997,-0.6 2.20000003,0.4 3.40000003,2.2 l 7.1999996,11.2 V 38.616016 q 0,-2.2 1.4,-3.6 1.4,-1.6 3.6,-1.6 2.2,0 3.6,1.6 1.6,1.4 1.6,3.6 v 129.600004 0.2 0.2 0.2 l -0.2,0.2 v 0.2 0.2 q 0,0.2 -0.2,0.4 0,0.2 0,0.4 l -0.2,0.2 v 0.2 l -0.2,0.2 q 0,0.2 -0.2,0.2 z m -36.4,-62.6 q 1.2,1.8 0.6,4 -0.4,2 -2,3 -1.4,0.8 -2.8,0.8 -2.8,0 -4.4,-2.2 l -37,-58.000004 V 168.21602 q 0,2.2 -1.4,3.8 -1.4,1.4 -3.6,1.4 -2.2,0 -3.8,-1.4 -1.4,-1.6 -1.4,-3.8 v -129.600004 -0.2 -0.2 -0.2 -0.2 l 0.2,-0.2 v -0.2 q 0,-0.2 0,-0.4 0.2,-0.2 0.2,-0.4 0,-0.2 0.2,-0.2 v -0.2 q 0,-0.2 0.2,-0.2 v -0.2 q 0.2,-0.6 0.8,-0.8 v -0.2 h 0.2 v -0.2 h 0.2 q 0,0 0.2,-0.2 h 0.2 v -0.2 h 0.2 l 0.2,-0.2 h 0.2 l 0.2,-0.2 h 0.2 0.2 v -0.2 h 0.2 0.2 0.2 0.2 0.2 q 0.2,0 0.2,-0.2 h 0.2 0.2 0.2 q 0,0.2 0.2,0.2 h 0.2 0.2 0.2 q 0.2,0 1,0.4 h 0.2 q 0,0 0.2,0.2 h 0.2 l 0.2,0.2 q 0.4,0.4 0.8,0.6 v 0.2 h 0.2 v 0.2 h 0.2 v 0.2 h 0.2 v 0.2 z m 12.6000004,19.6 q 1.2,1.8 0.6,4 -0.4,2 -2.2,3.2 -1.6,0.8 -2.6,0.8 -2.6000004,0 -4.4000004,-2.4 l -4.8,-7.4 q -1,-1.8 -0.6,-3.8 0.4,-2.2 2.2,-3.4 1.8,-1 3.8,-0.6 2.2000004,0.4 3.2000004,2.2 z"
         style="font-style:normal;font-variant:normal;font-weight:normal;font-stretch:normal;font-size:200px;line-height:1.25;font-family:BOKEH;-inkscape-font-specification:BOKEH;letter-spacing:5.36000061px;fill:#66ff00;stroke:#67ff00;stroke-width:4.91338587;stroke-miterlimit:4;stroke-dasharray:none;stroke-opacity:1"
         id="path873"
         inkscape:connector-curvature="0" />
      <path
         d="m 109.95961,142.01602 q 2.2,0 3.6,1.6 1.4,1.4 1.4,3.6 v 7.6 q 0,2.2 -1.4,3.6 -1.4,1.4 -3.6,1.4 -2.2,0 -3.8,-1.4 -1.4,-1.4 -1.4,-3.6 v -7.6 q 0,-2.2 1.4,-3.6 1.6,-1.6 3.8,-1.6 z m 0,21.2 q 2.2,0 3.6,1.4 1.6,1.4 1.6,3.6 0,2.2 -1.6,3.8 -1.4,1.4 -3.6,1.4 h -41.6 q -13.6,0 -21.6,-8.4 -3.2,-3.2 -5,-7 -1.8,-4 -2.6,-7.4 -0.8,-3.4 -1,-6 0,-2.6 0,-3.4 0,-0.8 0,-3.4 0.2,-2.6 1,-6 0.8,-3.4 2.6,-7.2 1.8,-4 5,-7.4 8,-8.4 21.6,-8.4 h 36.4 v -8.8 q 0,-5.200004 -2,-9.800004 -1.8,-4.6 -5,-8 -3.2,-3.4 -7.6,-5.4 -4.2,-2 -9.2,-2 h -2.2 q -8.2,0 -14.6,5.2 -6.2,5 -8.4,13.2 -0.6,2.2 -2.4,3.2 -1.8,1 -4,0.4 -2,-0.4 -3,-2.2 -1,-1.8 -0.6,-4 3.2,-11.6 12,-18.6 4.6,-3.8 9.8,-5.6 5.4,-1.8 11.2,-1.8 h 2.2 q 6.8,0 13,2.6 6.2,2.6 11.2,7.8 4.8,5 7.2,11.6 2.6,6.4 2.6,13.400004 v 31.2 q 0,2.2 -1.4,3.6 -1.4,1.4 -3.6,1.4 -2.2,0 -3.8,-1.4 -1.4,-1.4 -1.4,-3.6 v -12.2 h -36.4 q -9,0 -14.2,5.2 -2.2,2.4 -3.4,5.4 -1.2,2.8 -1.8,5.4 -0.4,2.4 -0.4,4.2 0,1.8 0,1.8 v 0.4 q 0,0.4 0,2.2 0,1.6 0.4,4.2 0.6,2.4 1.8,5.2 1.2,2.8 3.4,5 5.2,5.2 14.2,5.2 z"
         style="font-style:normal;font-variant:normal;font-weight:normal;font-stretch:normal;font-size:200px;line-height:1.25;font-family:BOKEH;-inkscape-font-specification:BOKEH;letter-spacing:5.36000061px;fill:#66ff00;stroke:#67ff00;stroke-width:4.91338587;stroke-miterlimit:4;stroke-dasharray:none;stroke-opacity:1"
         id="path875"
         inkscape:connector-curvature="0" />
      <path
         d="m 182.79149,152.81602 q -2.2,0 -3.6,-1.4 -1.4,-1.6 -1.4,-3.8 0,-2.2 1.4,-3.6 1.4,-1.4 3.6,-1.4 h 7.2 q 2.2,0 3.6,1.4 1.6,1.4 1.6,3.6 0,2.2 -1.6,3.8 -1.4,1.4 -3.6,1.4 z m 26.2,23.2 q 0,14.4 -10,25 -4.8,5.2 -11,7.8 -6.2,2.6 -13.2,2.6 h -2.2 q -12.4,0 -21.8,-8.2 -1.6,-1.4 -1.8,-3.6 -0.2,-2 1.2,-3.6 1.6,-1.6 3.6,-1.8 2,-0.2 3.6,1.2 6.8,5.8 15.2,5.8 h 2.2 q 5,0 9.2,-2 4.4,-2 7.6,-5.4 3.4,-3.4 5.2,-8 2,-4.6 2,-9.8 v -11.6 -89.600004 h -26.8 q -6.2,0 -11.8,1.6 -5.6,1.6 -9.8,4.8 -8,5.8 -8,13.6 v 9.800004 13.2 4.8 q 0,3.8 2,7.2 2,3.4 5.6,6.2 3.6,2.6 8.4,4.4 4.8,1.6 10.4,2 2.2,0.2 3.4,1.8 1.4,1.6 1.2,3.8 -0.2,2 -1.6,3.4 -1.4,1.2 -3.4,1.2 h -0.4 q -7.6,-0.6 -14.2,-3 -6.6,-2.6 -11.4,-6.6 -4.8,-4.2 -7.6,-9.4 -2.6,-5.2 -2.6,-11 v -4.8 -13.2 -9.800004 q 0,-6.4 3.4,-12.2 3,-5.6 8.8,-9.6 5.6,-4 12.6,-6.2 7.2,-2.2 15,-2.2 h 31.8 q 1.4,0 3,0.8 2.2,1.8 2.2,4.4 v 75.000004 z"
         style="font-style:normal;font-variant:normal;font-weight:normal;font-stretch:normal;font-size:200px;line-height:1.25;font-family:BOKEH;-inkscape-font-specification:BOKEH;letter-spacing:5.36000061px;fill:#66ff00;stroke:#67ff00;stroke-width:4.91338587;stroke-miterlimit:4;stroke-dasharray:none;stroke-opacity:1"
         id="path877"
         inkscape:connector-curvature="0" />
      <path
         d="m 269.83275,64.816016 q 7,0.8 13,4 6.2,3 10.6,7.8 4.4,4.8 6.8,10.8 2.6,6 2.6,12.800004 v 10.4 16.8 10.4 q 0,7.2 -3,13.8 -2.8,6.4 -8,11.4 -11,10.4 -26.4,10.4 h -2.2 q -15.4,0 -26.4,-10.4 -5.2,-5 -8.2,-11.4 -2.8,-6.6 -2.8,-13.8 v -10.8 -16 -10.8 q 0,-6.800004 2.8,-13.600004 1,-2 2.8,-2.8 2,-0.8 4,0.2 2,1 2.8,3 0.8,1.8 -0.2,3.8 -1.8,4.6 -1.8,9.400004 v 10.8 16 10.8 q 0,5.2 2,10 2.2,4.6 5.8,8 3.8,3.4 8.6,5.4 5,2 10.6,2 h 2.2 q 5.6,0 10.4,-2 5,-2 8.6,-5.4 3.8,-3.4 5.8,-8 2.2,-4.8 2.2,-10 v -10.4 -16.8 -10.4 q 0,-4.800004 -1.8,-9.000004 -1.8,-4.4 -5,-7.8 -3.2,-3.4 -7.6,-5.6 -4.2,-2.2 -9.2,-2.8 -2.2,-0.4 -3.6,-1.8 -1.2,-1.6 -1,-3.8 0.4,-2.2 1.8,-3.6 1.6,-1.4 3.8,-1 z m -25.6,15.8 q -2.6,0 -4.2,-2.2 -1.2,-1.6 -0.8,-3.6 0.4,-2.2 2,-3.4 5.4,-3.8 11,-5.2 2.2,-0.6 4,0.4 1.8,0.8 2.4,3 0.6,2 -0.4,4 -1,1.8 -3,2.4 -4.6,1.2 -8,3.8 -1.4,0.8 -3,0.8 z"
         style="font-style:normal;font-variant:normal;font-weight:normal;font-stretch:normal;font-size:200px;line-height:1.25;font-family:BOKEH;-inkscape-font-specification:BOKEH;letter-spacing:5.36000061px;fill:#66ff00;stroke:#67ff00;stroke-width:4.91338587;stroke-miterlimit:4;stroke-dasharray:none;stroke-opacity:1"
         id="path879"
         inkscape:connector-curvature="0" />
      <path
         d="m 393.06461,64.816016 q 2.2,0.8 3,2.8 1,1.8 0.2,3.8 l -38.6,109.600004 q 0,0 -0.2,0.2 -5.8,13.6 -14.4,22.4 -9.2,9.8 -18,9.8 h -0.2 q -2.2,0 -3.6,-1.4 -1.4,-1.4 -1.4,-3.6 0,-2.2 1.4,-3.8 1.4,-1.4 3.6,-1.4 2.2,0 5,-1.8 3,-1.8 6,-4.8 3.4,-3.6 6.6,-8.6 3.2,-4.8 5.6,-10.6 l 38.6,-109.400004 q 0.6,-2 2.4,-2.8 2,-1 4,-0.4 z m -72,7 q -0.8,-2 -0.2,-3.8 0.8,-2 2.8,-3 2,-1 3.8,-0.2 2,0.8 3,2.8 l 18.4,41.600004 q 1,2 0.2,4 -0.8,1.8 -2.8,2.8 -1.2,0.4 -2,0.4 -3.2,0 -4.6,-3 z m 24.8,55.600004 q -1,-1.8 -0.2,-3.8 0.8,-2 2.8,-2.8 2,-1 3.8,-0.2 2,0.8 3,2.8 l 3.2,7.6 q 1,1.8 0.2,3.8 -0.8,2 -2.8,2.8 -1,0.6 -2,0.6 -3.4,0 -4.6,-3.2 z"
         style="font-style:normal;font-variant:normal;font-weight:normal;font-stretch:normal;font-size:200px;line-height:1.25;font-family:BOKEH;-inkscape-font-specification:BOKEH;letter-spacing:5.36000061px;fill:#66ff00;stroke:#67ff00;stroke-width:4.91338587;stroke-miterlimit:4;stroke-dasharray:none;stroke-opacity:1"
         id="path881"
         inkscape:connector-curvature="0" />
      <path
         d="m 485.69647,142.01602 q 2.2,0 3.6,1.6 1.4,1.4 1.4,3.6 v 7.6 q 0,2.2 -1.4,3.6 -1.4,1.4 -3.6,1.4 -2.2,0 -3.8,-1.4 -1.4,-1.4 -1.4,-3.6 v -7.6 q 0,-2.2 1.4,-3.6 1.6,-1.6 3.8,-1.6 z m 0,21.2 q 2.2,0 3.6,1.4 1.6,1.4 1.6,3.6 0,2.2 -1.6,3.8 -1.4,1.4 -3.6,1.4 h -41.6 q -13.6,0 -21.6,-8.4 -3.2,-3.2 -5,-7 -1.8,-4 -2.6,-7.4 -0.8,-3.4 -1,-6 0,-2.6 0,-3.4 0,-0.8 0,-3.4 0.2,-2.6 1,-6 0.8,-3.4 2.6,-7.2 1.8,-4 5,-7.4 8,-8.4 21.6,-8.4 h 36.4 v -8.8 q 0,-5.200004 -2,-9.800004 -1.8,-4.6 -5,-8 -3.2,-3.4 -7.6,-5.4 -4.2,-2 -9.2,-2 h -2.2 q -8.2,0 -14.6,5.2 -6.2,5 -8.4,13.2 -0.6,2.2 -2.4,3.2 -1.8,1 -4,0.4 -2,-0.4 -3,-2.2 -1,-1.8 -0.6,-4 3.2,-11.6 12,-18.6 4.6,-3.8 9.8,-5.6 5.4,-1.8 11.2,-1.8 h 2.2 q 6.8,0 13,2.6 6.2,2.6 11.2,7.8 4.8,5 7.2,11.6 2.6,6.4 2.6,13.400004 v 31.2 q 0,2.2 -1.4,3.6 -1.4,1.4 -3.6,1.4 -2.2,0 -3.8,-1.4 -1.4,-1.4 -1.4,-3.6 v -12.2 h -36.4 q -9,0 -14.2,5.2 -2.2,2.4 -3.4,5.4 -1.2,2.8 -1.8,5.4 -0.4,2.4 -0.4,4.2 0,1.8 0,1.8 v 0.4 q 0,0.4 0,2.2 0,1.6 0.4,4.2 0.6,2.4 1.8,5.2 1.2,2.8 3.4,5 5.2,5.2 14.2,5.2 z"
         style="font-style:normal;font-variant:normal;font-weight:normal;font-stretch:normal;font-size:200px;line-height:1.25;font-family:BOKEH;-inkscape-font-specification:BOKEH;letter-spacing:5.36000061px;fill:#66ff00;stroke:#67ff00;stroke-width:4.91338587;stroke-miterlimit:4;stroke-dasharray:none;stroke-opacity:1"
         id="path883"
         inkscape:connector-curvature="0" />
      <path
         d="m 21.521484,385.41602 q 0,1.2 -0.2,4.2 -0.2,3 -1.2,7 -1,3.8 -3.2,8.2 -2,4.4 -5.8,8.2 -10.39999962,10.4 -28.2,10.4 h -49.4 -0.4 q -2.2,0 -3.6,-1.4 -1.4,-1.6 -1.4,-3.8 v -129.6 q 0,-2.2 1.4,-3.6 1.4,-1.4 3.6,-1.4 2.2,0 3.6,1.4 1.6,1.4 1.6,3.6 v 58.6 h 44.6 q 18.00000038,0 28.2,10.6 6.8,6.8 9.2,17 1,3.8 1,6.6 0.2,2.8 0.2,3.8 z m -17.5999996,20.4 q 2.8,-2.8 4.2,-6.2 1.6,-3.4 2.1999996,-6.2 0.8,-3 0.8,-5.2 0.2,-2.2 0.2,-2.6 v -0.4 -0.2 q 0,-0.4 -0.2,-2.6 0,-2.2 -0.8,-5.2 -1.7999996,-7.4 -6.3999996,-12.4 -7.4,-7.4 -21.0000004,-7.4 h -6.6 -0.2 -37.8 v 55.8 h 44.6 q 13.6000004,0 21.0000004,-7.4 z m -54.8000004,-112 q -2.2,0 -3.8,-1.4 -1.4,-1.6 -1.4,-3.8 0,-2.2 1.4,-3.6 1.6,-1.4 3.8,-1.4 h 12.8 q 2.2,0 3.6,1.4 1.4,1.4 1.4,3.6 0,2.2 -1.4,3.8 -1.4,1.4 -3.6,1.4 z m 27,0 q -2.2,0 -3.6,-1.4 -1.4,-1.6 -1.4,-3.8 0,-2.2 1.4,-3.6 1.4,-1.4 3.6,-1.4 14.8000004,0 23.60000038,9 3.60000002,3.8 5.60000002,8.4 2,4.4 2.8,8.4 1,4 1.2,7 0.2,3 0.2,4 0,1.2 -0.4,6.6 -0.4,5.2 -3.2,11.4 -1.2,3.2 -4.6,3.2 -0.80000003,0 -2.00000003,-0.4 -1.99999997,-1 -2.79999997,-2.8 -0.8,-2 0,-4 2,-4.6 2.4,-8.6 0.39999997,-4 0.39999997,-5 v -0.4 -0.8 q 0,-1.2 -0.39999997,-3.4 -0.2,-2.4 -1,-5.2 -0.6,-2.8 -2,-5.8 -1.2,-3.2 -3.6,-5.6 -5.8000004,-5.8 -16.2000004,-5.8 z"
         style="font-style:normal;font-variant:normal;font-weight:normal;font-stretch:normal;font-size:200px;line-height:1.25;font-family:BOKEH;-inkscape-font-specification:BOKEH;letter-spacing:5.36000061px;fill:#66ff00;stroke:#67ff00;stroke-width:4.91338587;stroke-miterlimit:4;stroke-dasharray:none;stroke-opacity:1"
         id="path885"
         inkscape:connector-curvature="0" />
      <path
         d="m 104.55023,325.01602 q 5.2,5.2 8,11.6 3,6.4 3,13.6 v 13 q 0,2.2 -1.6,3.6 -1.4,1.4 -3.6,1.4 -2.2,0 -3.6,-1.4 -1.4,-1.4 -1.4,-3.6 v -13 q 0,-5.2 -2.2,-9.8 -2,-4.6 -5.799995,-8 -3.6,-3.6 -8.6,-5.6 -4.8,-2 -10.4,-2 h -2.4 q -5.6,0 -10.6,2 -4.8,2 -8.6,5.6 -3.6,3.4 -5.8,8 -2,4.6 -2,9.8 v 7.8 h 26.4 q 2.2,0 3.6,1.6 1.4,1.4 1.4,3.6 0,2.2 -1.4,3.6 -1.4,1.4 -3.6,1.4 h -26.4 v 8.8 10.8 q 0,5.2 2,10 2.2,4.6 5.8,8 3.8,3.4 8.6,5.4 5,2 10.6,2 h 2.4 q 7.6,0 13.8,-3.6 6.4,-3.6 9.999995,-9.8 1,-1.8 3,-2.2 2,-0.6 4,0.4 1.8,1 2.2,3 0.6,2 -0.4,4 -5,8.6 -13.799995,13.6 -8.6,4.8 -18.8,4.8 h -2.4 q -15.4,0 -26.2,-10.4 -5.4,-5 -8.2,-11.4 -2.8,-6.6 -2.8,-13.8 v -10.8 -16 -10.8 q 0,-14.8 11,-25.2 10.8,-10.4 26.2,-10.4 h 2.4 q 7.4,0 14.2,2.6 6.8,2.6 11.999995,7.8 z m -7.799995,33 q 2.2,0 3.599995,1.6 1.6,1.4 1.6,3.6 0,2.2 -1.6,3.6 -1.399995,1.4 -3.599995,1.4 h -7.4 q -2.2,0 -3.8,-1.4 -1.4,-1.4 -1.4,-3.6 0,-2.2 1.4,-3.6 1.6,-1.6 3.8,-1.6 z"
         style="font-style:normal;font-variant:normal;font-weight:normal;font-stretch:normal;font-size:200px;line-height:1.25;font-family:BOKEH;-inkscape-font-specification:BOKEH;letter-spacing:5.36000061px;fill:#66ff00;stroke:#67ff00;stroke-width:4.91338587;stroke-miterlimit:4;stroke-dasharray:none;stroke-opacity:1"
         id="path887"
         inkscape:connector-curvature="0" />
      <path
         d="m 182.79149,402.81602 q -2.2,0 -3.6,-1.4 -1.4,-1.6 -1.4,-3.8 0,-2.2 1.4,-3.6 1.4,-1.4 3.6,-1.4 h 7.2 q 2.2,0 3.6,1.4 1.6,1.4 1.6,3.6 0,2.2 -1.6,3.8 -1.4,1.4 -3.6,1.4 z m 26.2,23.2 q 0,14.4 -10,25 -4.8,5.2 -11,7.8 -6.2,2.6 -13.2,2.6 h -2.2 q -12.4,0 -21.8,-8.2 -1.6,-1.4 -1.8,-3.6 -0.2,-2 1.2,-3.6 1.6,-1.6 3.6,-1.8 2,-0.2 3.6,1.2 6.8,5.8 15.2,5.8 h 2.2 q 5,0 9.2,-2 4.4,-2 7.6,-5.4 3.4,-3.4 5.2,-8 2,-4.6 2,-9.8 v -11.6 -89.6 h -26.8 q -6.2,0 -11.8,1.6 -5.6,1.6 -9.8,4.8 -8,5.8 -8,13.6 v 9.8 13.2 4.8 q 0,3.8 2,7.2 2,3.4 5.6,6.2 3.6,2.6 8.4,4.4 4.8,1.6 10.4,2 2.2,0.2 3.4,1.8 1.4,1.6 1.2,3.8 -0.2,2 -1.6,3.4 -1.4,1.2 -3.4,1.2 h -0.4 q -7.6,-0.6 -14.2,-3 -6.6,-2.6 -11.4,-6.6 -4.8,-4.2 -7.6,-9.4 -2.6,-5.2 -2.6,-11 v -4.8 -13.2 -9.8 q 0,-6.4 3.4,-12.2 3,-5.6 8.8,-9.6 5.6,-4 12.6,-6.2 7.2,-2.2 15,-2.2 h 31.8 q 1.4,0 3,0.8 2.2,1.8 2.2,4.4 v 75 z"
         style="font-style:normal;font-variant:normal;font-weight:normal;font-stretch:normal;font-size:200px;line-height:1.25;font-family:BOKEH;-inkscape-font-specification:BOKEH;letter-spacing:5.36000061px;fill:#66ff00;stroke:#67ff00;stroke-width:4.91338587;stroke-miterlimit:4;stroke-dasharray:none;stroke-opacity:1"
         id="path889"
         inkscape:connector-curvature="0" />
      <path
         d="m 231.23275,316.41602 q 2.2,0 3.6,1.4 1.4,1.4 1.4,3.6 v 96.8 q 0,2.2 -1.4,3.8 -1.4,1.4 -3.6,1.4 -2.2,0 -3.8,-1.4 -1.4,-1.6 -1.4,-3.8 v -96.8 q 0,-2.2 1.4,-3.6 1.6,-1.4 3.8,-1.4 z m 0,-33 q 2.2,0 3.6,1.6 1.4,1.4 1.4,3.6 v 14 q 0,2.2 -1.4,3.8 -1.4,1.4 -3.6,1.4 -2.2,0 -3.8,-1.4 -1.4,-1.6 -1.4,-3.8 v -14 q 0,-2.2 1.4,-3.6 1.6,-1.6 3.8,-1.6 z"
         style="font-style:normal;font-variant:normal;font-weight:normal;font-stretch:normal;font-size:200px;line-height:1.25;font-family:BOKEH;-inkscape-font-specification:BOKEH;letter-spacing:5.36000061px;fill:#66ff00;stroke:#67ff00;stroke-width:4.91338587;stroke-miterlimit:4;stroke-dasharray:none;stroke-opacity:1"
         id="path891"
         inkscape:connector-curvature="0" />
      <path
         d="m 325.06774,349.01602 q 2.2,0 3.6,1.6 1.4,1.4 1.4,3.6 v 64 q 0,2.2 -1.4,3.8 -1.4,1.4 -3.6,1.4 -2.2,0 -3.8,-1.4 -1.4,-1.6 -1.4,-3.8 v -64 q 0,-2.2 1.4,-3.6 1.6,-1.6 3.8,-1.6 z m -1.2,-3 q -3.8,0 -4.8,-3.6 -1.2,-3 -3,-6.2 -0.4,-0.6 -1,-1 -0.4,-0.6 -0.8,-1.2 -1.2,-1.2 -1.8,-2 -1.6,-1.4 -1.8,-3.4 0,-2.2 1.4,-3.8 1.6,-1.6 3.6,-1.6 2.2,-0.2 3.8,1.4 0.6,0.6 1.2,1.4 0.8,0.6 1.4,1.4 l 2.4,3 q 1.4,2.2 2.4,4.4 1.2,2.2 1.8,4.6 0.8,2 -0.2,4 -1,1.8 -3.2,2.4 -0.4,0 -0.8,0.2 -0.2,0 -0.6,0 z m -20.2,-30 q 2.2,0.4 3.2,2.2 1,1.8 0.4,4 -0.6,2.2 -2.4,3.2 -1.8,1 -4,0.4 -4,-1.2 -8,-1.2 h -2.4 q -5.6,0 -10.6,2 -4.8,1.8 -8.6,5.2 -3.6,3.2 -5.8,7.6 -2,4.2 -2,9.2 v 69.6 q 0,2.2 -1.4,3.8 -1.4,1.4 -3.6,1.4 -2.2,0 -3.8,-1.4 -1.4,-1.6 -1.4,-3.8 v -69.6 q 0,-7 2.8,-13.2 3,-6.2 8.2,-11.2 5.4,-4.6 12,-7.2 6.8,-2.6 14.2,-2.6 h 2.4 q 5.4,0 10.8,1.6 z"
         style="font-style:normal;font-variant:normal;font-weight:normal;font-stretch:normal;font-size:200px;line-height:1.25;font-family:BOKEH;-inkscape-font-specification:BOKEH;letter-spacing:5.36000061px;fill:#66ff00;stroke:#67ff00;stroke-width:4.91338587;stroke-miterlimit:4;stroke-dasharray:none;stroke-opacity:1"
         id="path893"
         inkscape:connector-curvature="0" />
      <path
         d="m 419.0996,349.01602 q 2.2,0 3.6,1.6 1.4,1.4 1.4,3.6 v 64 q 0,2.2 -1.4,3.8 -1.4,1.4 -3.6,1.4 -2.2,0 -3.8,-1.4 -1.4,-1.6 -1.4,-3.8 v -64 q 0,-2.2 1.4,-3.6 1.6,-1.6 3.8,-1.6 z m -1.2,-3 q -3.8,0 -4.8,-3.6 -1.2,-3 -3,-6.2 -0.4,-0.6 -1,-1 -0.4,-0.6 -0.8,-1.2 -1.2,-1.2 -1.8,-2 -1.6,-1.4 -1.8,-3.4 0,-2.2 1.4,-3.8 1.6,-1.6 3.6,-1.6 2.2,-0.2 3.8,1.4 0.6,0.6 1.2,1.4 0.8,0.6 1.4,1.4 l 2.4,3 q 1.4,2.2 2.4,4.4 1.2,2.2 1.8,4.6 0.8,2 -0.2,4 -1,1.8 -3.2,2.4 -0.4,0 -0.8,0.2 -0.2,0 -0.6,0 z m -20.2,-30 q 2.2,0.4 3.2,2.2 1,1.8 0.4,4 -0.6,2.2 -2.4,3.2 -1.8,1 -4,0.4 -4,-1.2 -8,-1.2 h -2.4 q -5.6,0 -10.6,2 -4.8,1.8 -8.6,5.2 -3.6,3.2 -5.8,7.6 -2,4.2 -2,9.2 v 69.6 q 0,2.2 -1.4,3.8 -1.4,1.4 -3.6,1.4 -2.2,0 -3.8,-1.4 -1.4,-1.6 -1.4,-3.8 v -69.6 q 0,-7 2.8,-13.2 3,-6.2 8.2,-11.2 5.4,-4.6 12,-7.2 6.8,-2.6 14.2,-2.6 h 2.4 q 5.4,0 10.8,1.6 z"
         style="font-style:normal;font-variant:normal;font-weight:normal;font-stretch:normal;font-size:200px;line-height:1.25;font-family:BOKEH;-inkscape-font-specification:BOKEH;letter-spacing:5.36000061px;fill:#66ff00;stroke:#67ff00;stroke-width:4.91338587;stroke-miterlimit:4;stroke-dasharray:none;stroke-opacity:1"
         id="path895"
         inkscape:connector-curvature="0" />
      <path
         d="m 507.13152,325.01602 q 5.2,5.2 8,11.6 3,6.4 3,13.6 v 13 q 0,2.2 -1.6,3.6 -1.4,1.4 -3.6,1.4 -2.2,0 -3.6,-1.4 -1.4,-1.4 -1.4,-3.6 v -13 q 0,-5.2 -2.2,-9.8 -2,-4.6 -5.8,-8 -3.6,-3.6 -8.6,-5.6 -4.8,-2 -10.4,-2 h -2.4 q -5.6,0 -10.6,2 -4.8,2 -8.6,5.6 -3.6,3.4 -5.8,8 -2,4.6 -2,9.8 v 7.8 h 26.4 q 2.2,0 3.6,1.6 1.4,1.4 1.4,3.6 0,2.2 -1.4,3.6 -1.4,1.4 -3.6,1.4 h -26.4 v 8.8 10.8 q 0,5.2 2,10 2.2,4.6 5.8,8 3.8,3.4 8.6,5.4 5,2 10.6,2 h 2.4 q 7.6,0 13.8,-3.6 6.4,-3.6 10,-9.8 1,-1.8 3,-2.2 2,-0.6 4,0.4 1.8,1 2.2,3 0.6,2 -0.4,4 -5,8.6 -13.8,13.6 -8.6,4.8 -18.8,4.8 h -2.4 q -15.4,0 -26.2,-10.4 -5.4,-5 -8.2,-11.4 -2.8,-6.6 -2.8,-13.8 v -10.8 -16 -10.8 q 0,-14.8 11,-25.2 10.8,-10.4 26.2,-10.4 h 2.4 q 7.4,0 14.2,2.6 6.8,2.6 12,7.8 z m -7.8,33 q 2.2,0 3.6,1.6 1.6,1.4 1.6,3.6 0,2.2 -1.6,3.6 -1.4,1.4 -3.6,1.4 h -7.4 q -2.2,0 -3.8,-1.4 -1.4,-1.4 -1.4,-3.6 0,-2.2 1.4,-3.6 1.6,-1.6 3.8,-1.6 z"
         style="font-style:normal;font-variant:normal;font-weight:normal;font-stretch:normal;font-size:200px;line-height:1.25;font-family:BOKEH;-inkscape-font-specification:BOKEH;letter-spacing:5.36000061px;fill:#66ff00;stroke:#67ff00;stroke-width:4.91338587;stroke-miterlimit:4;stroke-dasharray:none;stroke-opacity:1"
         id="path897"
         inkscape:connector-curvature="0" />
      <path
         d="m 540.17275,381.01602 q 2.2,0 3.6,1.4 1.4,1.4 1.4,3.6 v 32.4 q 0,2.2 -1.4,3.6 -1.4,1.4 -3.6,1.4 -2.2,0 -3.8,-1.4 -1.4,-1.4 -1.4,-3.6 v -32.4 q 0,-2.2 1.4,-3.6 1.6,-1.4 3.8,-1.4 z m 45.2,-66.6 q 2.2,0.6 3.2,2.4 1,1.8 0.4,4 -0.6,2.2 -2.4,3.2 -1.8,0.8 -3.8,0.4 -1.8,-0.6 -3.6,-0.8 -1.8,-0.2 -3.6,-0.2 h -2.4 q -5.8,0 -11,2.4 -5,2.4 -8.8,6.6 -3.8,4 -6,9.6 -2.2,5.4 -2.2,11.6 v 14.6 q 0,2.2 -1.4,3.8 -1.4,1.4 -3.6,1.4 -2.2,0 -3.8,-1.4 -1.4,-1.6 -1.4,-3.8 v -14.4 -0.2 -34 q 0,-2.2 1.4,-3.6 1.6,-1.4 3.8,-1.4 2.2,0 3.6,1.4 1.4,1.4 1.4,3.6 v 6.4 l 0.8,-0.8 q 5.4,-5.8 12.4,-8.8 7.2,-3.2 14.8,-3.2 h 2.4 q 5,0 9.8,1.2 z"
         style="font-style:normal;font-variant:normal;font-weight:normal;font-stretch:normal;font-size:200px;line-height:1.25;font-family:BOKEH;-inkscape-font-specification:BOKEH;letter-spacing:5.36000061px;fill:#66ff00;stroke:#67ff00;stroke-width:4.91338587;stroke-miterlimit:4;stroke-dasharray:none;stroke-opacity:1"
         id="path899"
         inkscape:connector-curvature="0" />
      <path
         d="m 604.32649,313.41602 q -2.2,0 -3.8,-1.4 -1.4,-1.6 -1.4,-3.8 v -19.8 q 0,-2.2 1.4,-3.6 1.6,-1.4 3.8,-1.4 2.2,0 3.6,1.4 1.6,1.4 1.6,3.6 v 19.8 q 0,2.2 -1.6,3.8 -1.4,1.4 -3.6,1.4 z"
         style="font-style:normal;font-variant:normal;font-weight:normal;font-stretch:normal;font-size:200px;line-height:1.25;font-family:BOKEH;-inkscape-font-specification:BOKEH;letter-spacing:5.36000061px;fill:#66ff00;stroke:#67ff00;stroke-width:4.91338587;stroke-miterlimit:4;stroke-dasharray:none;stroke-opacity:1"
         id="path901"
         inkscape:connector-curvature="0" />
      <path
         d="m 633.94272,361.21602 q -2.6,-2.8 -4.2,-5.8 -1.4,-3 -2.2,-5.6 -0.6,-2.8 -0.8,-4.8 0,-2.2 0,-2.8 0,-0.6 0,-2.6 0.2,-2.2 0.8,-4.8 0.8,-2.8 2.2,-5.8 1.6,-3.2 4.2,-6 7.6,-8 21.4,-8 h 34.6 q 2.2,0 3.6,1.6 1.6,1.4 1.6,3.6 0,2.2 -1.6,3.6 -1.4,1.4 -3.6,1.4 h -34.6 q -9.6,0 -14,5 -1.8,1.8 -2.8,3.8 -0.8,2 -1.2,3.8 -0.6,2.2 -0.4,4 v 0.6 q 0,0.4 0,1.6 0.2,1.2 0.6,3 0.4,1.6 1.2,3.6 1,2 2.6,3.6 4.4,4.8 14,4.8 h 19.2 0.4 q 10.4,0 17.4,5.4 1.6,1.4 1.8,3.6 0.4,2 -1,3.6 -1.6,2 -4,2 -1.6,0 -3.2,-1 -4.4,-3.4 -11,-3.4 h -16.6 -3 q -14,0 -21.4,-8 z m 68.4,20 q 1,3.8 1,6.6 0.2,2.6 0.2,3.4 0,0.6 -0.2,2.6 0,1.8 -0.4,4.4 -0.4,1.8 -1.8,3 -1.4,1.2 -3.2,1.2 h -0.8 q -2.2,-0.4 -3.4,-2 -1.2,-1.6 -0.8,-3.8 0.2,-1 0.2,-2 0.2,-1 0.2,-1.8 v -1.4 -0.4 q 0,-0.2 -0.2,-2.2 0,-2.2 -0.6,-5.2 -0.2,-0.2 -0.2,-0.8 -0.6,-2 0.4,-3.8 1,-1.8 3.2,-2.4 2.2,-0.4 4,0.6 1.8,1 2.2,3 0.2,0.4 0.2,1 z m -6.2,24.4 q 1.8,1.2 2.2,3.4 0.4,2 -1,3.6 -7.6,10.8 -22.4,10.8 h -43 q -2.2,0 -3.8,-1.4 -1.4,-1.4 -1.4,-3.6 0,-2.2 1.4,-3.6 1.6,-1.6 3.8,-1.6 h 43 q 9.6,0 14.2,-6.4 1.2,-1.8 3.2,-2.2 2.2,-0.4 3.8,1 z"
         style="font-style:normal;font-variant:normal;font-weight:normal;font-stretch:normal;font-size:200px;line-height:1.25;font-family:BOKEH;-inkscape-font-specification:BOKEH;letter-spacing:5.36000061px;fill:#66ff00;stroke:#67ff00;stroke-width:4.91338587;stroke-miterlimit:4;stroke-dasharray:none;stroke-opacity:1"
         id="path903"
         inkscape:connector-curvature="0" />
      <path
         d="m 15.921484,663.21602 q 2.2,0 3.6,1.6 1.6,1.4 1.6,3.6 0,2.2 -1.6,3.6 -1.4,1.4 -3.6,1.4 h -27.8 q -2.2,0 -3.6,-1.4 -1.4,-1.4 -1.4,-3.6 0,-2.2 1.4,-3.6 1.4,-1.6 3.6,-1.6 z m -44,0 q 2.2,0 3.6,1.6 1.6,1.4 1.6,3.6 0,2.2 -1.6,3.6 -1.4,1.4 -3.6,1.4 h -5.8 q -2.2,0 -3.8,-1.4 -1.4,-1.4 -1.4,-3.6 0,-2.2 1.4,-3.6 1.6,-1.6 3.8,-1.6 z m -19.8,0 q 2.2,0 3.6,1.6 1.6,1.4 1.6,3.6 0,2.2 -1.6,3.6 -1.4,1.4 -3.6,1.4 h -19 -1.2 q -1.6,-0.4 -2.8,-1.8 -1.2,-1.4 -1.2,-3.2 v -129.6 q 0,-2.2 1.4,-3.6 1.6,-1.6 3.8,-1.6 2.2,0 3.6,1.6 1.4,1.4 1.4,3.6 v 124.4 z"
         style="font-style:normal;font-variant:normal;font-weight:normal;font-stretch:normal;font-size:200px;line-height:1.25;font-family:BOKEH;-inkscape-font-specification:BOKEH;letter-spacing:5.36000061px;fill:#66ff00;stroke:#67ff00;stroke-width:4.91338587;stroke-miterlimit:4;stroke-dasharray:none;stroke-opacity:1"
         id="path905"
         inkscape:connector-curvature="0" />
      <path
         d="m 83.187735,549.61602 q 2.2,0 3.6,1.4 1.4,1.4 1.4,3.6 v 14.2 q 0,2.2 -1.4,3.8 -1.4,1.4 -3.6,1.4 -2.2,0 -3.8,-1.4 -1.4,-1.6 -1.4,-3.8 v -14.2 q 0,-2.2 1.4,-3.6 1.6,-1.4 3.8,-1.4 z m 0,32.6 q 2.2,0 3.6,1.6 1.4,1.4 1.4,3.6 v 80.8 q 0,2.2 -1.4,3.8 -1.4,1.4 -3.6,1.4 -2.2,0 -3.8,-1.4 -1.4,-1.6 -1.4,-3.8 v -80.8 q 0,-2.2 1.4,-3.6 1.6,-1.6 3.8,-1.6 z m 41.399995,-48.6 q 2.2,0 3.6,1.6 1.4,1.4 1.4,3.6 0,2.2 -1.4,3.6 -1.4,1.4 -3.6,1.4 H 41.587735 q -2.2,0 -3.6,-1.4 -1.4,-1.4 -1.4,-3.6 0,-2.2 1.4,-3.6 1.4,-1.6 3.6,-1.6 z"
         style="font-style:normal;font-variant:normal;font-weight:normal;font-stretch:normal;font-size:200px;line-height:1.25;font-family:BOKEH;-inkscape-font-specification:BOKEH;letter-spacing:5.36000061px;fill:#66ff00;stroke:#67ff00;stroke-width:4.91338587;stroke-miterlimit:4;stroke-dasharray:none;stroke-opacity:1"
         id="path907"
         inkscape:connector-curvature="0" />
    </g>
    <g
       aria-label="Nagoya
Beginner's
LT
"
       transform="matrix(0.26458333,0,0,0.26458333,34.925001,30.162512)"
       style="font-style:normal;font-weight:normal;font-size:40px;line-height:1.25;font-family:sans-serif;letter-spacing:0px;word-spacing:0px;fill:#000000;fill-opacity:1;stroke:none"
       id="flowRoot910">
      <path
         d="m -23.4,165.30117 c -0.133333,0.26667 -0.333333,0.53333 -0.6,0.8 v 0.2 h -0.2 v 0.2 h -0.2 c 0,0.13333 -0.06667,0.2 -0.2,0.2 l -0.2,0.2 c -0.133333,0 -0.266667,0.0667 -0.4,0.2 h -0.2 l -0.8,0.4 h -0.2 -0.2 -0.2 -0.2 c 0,0.13333 -0.333333,0.2 -0.2,0.2 h -0.2 -0.2 -0.2 -0.2 -0.2 v -0.2 h -0.2 -0.2 c -0.4,0 -0.666667,-0.0667 -0.8,-0.2 -0.133333,0 -0.2,-0.0667 -0.2,-0.2 h -0.2 -0.2 c 0,-0.13333 -0.06667,-0.2 -0.2,-0.2 h -0.2 v -0.2 h -0.2 v -0.2 h -0.2 l -0.4,-0.4 h -0.2 v -0.2 -0.2 c -0.133333,0 -0.2,-0.0667 -0.2,-0.2 -0.133333,0 -0.2,-0.0667 -0.2,-0.2 l -16.6,-26 c -0.8,-1.2 -1.066667,-2.46667 -0.8,-3.8 0.4,-1.33333 1.133333,-2.4 2.2,-3.2 1.2,-0.8 2.466667,-1 3.8,-0.6 1.466667,0.26667 2.6,1 3.4,2.2 l 7.2,11.2 V 32.901172 c 0,-1.466667 0.466667,-2.666667 1.4,-3.6 0.933333,-1.066667 2.133333,-1.6 3.6,-1.6 1.466667,0 2.666667,0.533333 3.6,1.6 1.066667,0.933333 1.6,2.133333 1.6,3.6 v 129.599998 0.2 0.2 0.2 l -0.2,0.2 v 0.2 0.2 c 0,0.13333 -0.06667,0.26667 -0.2,0.4 v 0.4 l -0.2,0.2 v 0.2 l -0.2,0.2 c 0,0.13333 -0.06667,0.2 -0.2,0.2 z m -36.4,-62.6 c 0.8,1.2 1,2.53333 0.6,4 -0.266667,1.33333 -0.933333,2.33333 -2,3 -0.933333,0.53333 -1.866667,0.8 -2.8,0.8 -1.866667,0 -3.333333,-0.73333 -4.4,-2.2 l -37,-57.999998 V 162.50117 c 0,1.46667 -0.46667,2.73333 -1.4,3.8 -0.93333,0.93333 -2.13333,1.4 -3.6,1.4 -1.46667,0 -2.73333,-0.46667 -3.8,-1.4 -0.93333,-1.06667 -1.42263,-2.33351 -1.4,-3.8 v -129.599998 -0.2 -0.2 -0.2 -0.2 l 0.2,-0.2 v -0.2 -0.4 c 0.13333,-0.133333 0.2,-0.266667 0.2,-0.4 0,-0.133333 0.0667,-0.2 0.2,-0.2 v -0.2 c 0,-0.133333 0.0667,-0.2 0.2,-0.2 v -0.2 c 0.13333,-0.4 0.4,-0.666667 0.8,-0.8 v -0.2 h 0.2 v -0.2 h 0.2 l 0.2,-0.2 h 0.2 v -0.2 h 0.2 l 0.2,-0.2 h 0.2 l 0.2,-0.2 h 0.2 0.2 v -0.2 h 0.2 0.2 0.2 0.2 0.2 c 0.13333,0 0.2,-0.06667 0.2,-0.2 h 0.2 0.2 0.2 c 0,0.133333 0.0667,0.2 0.2,0.2 h 0.2 0.2 0.2 c 0.13333,0 0.46667,0.133333 1,0.4 h 0.2 l 0.2,0.2 h 0.2 l 0.2,0.2 c 0.26667,0.266667 0.53333,0.466667 0.8,0.6 v 0.2 h 0.2 v 0.2 h 0.2 v 0.2 h 0.2 v 0.2 z m 12.6,19.6 c 0.8,1.2 1,2.53333 0.6,4 -0.266667,1.33333 -1,2.4 -2.2,3.2 -1.066667,0.53333 -1.933333,0.8 -2.6,0.8 -1.733333,0 -3.2,-0.8 -4.4,-2.4 l -4.8,-7.4 c -0.666667,-1.2 -0.866667,-2.46667 -0.6,-3.8 0.266667,-1.46667 1,-2.6 2.2,-3.4 1.2,-0.66667 2.466667,-0.86667 3.8,-0.6 1.466667,0.26667 2.533333,1 3.2,2.2 z"
         style="font-style:normal;font-variant:normal;font-weight:normal;font-stretch:normal;font-size:200px;font-family:BOKEH;-inkscape-font-specification:BOKEH;letter-spacing:5.63999987px;fill:#ffcc00"
         id="path932"
         inkscape:connector-curvature="0"
         sodipodi:nodetypes="cccccccccccccccscccccccsccccscccccccccccccccccscscsccccccscccccccccsccscscsccccccccscscccccccccccccccccccccsccccsccsccccsccccccccccccsccccccc" />
      <path
         d="m 66.718124,136.30117 c 1.466667,0 2.666667,0.53333 3.6,1.6 0.933333,0.93333 1.4,2.13333 1.4,3.6 v 7.6 c 0,1.46667 -0.466667,2.66667 -1.4,3.6 -0.933333,0.93333 -2.133333,1.4 -3.6,1.4 -1.466667,0 -2.733333,-0.46667 -3.8,-1.4 -0.933333,-0.93333 -1.4,-2.13333 -1.4,-3.6 v -7.6 c 0,-1.46667 0.466667,-2.66667 1.4,-3.6 1.066667,-1.06667 2.333333,-1.6 3.8,-1.6 z m 0,21.2 c 1.466667,0 2.666667,0.46667 3.6,1.4 1.066667,0.93333 1.6,2.13333 1.6,3.6 0,1.46667 -0.533333,2.73333 -1.6,3.8 -0.933333,0.93333 -2.133333,1.4 -3.6,1.4 h -41.6 c -9.066667,0 -16.2666666,-2.8 -21.5999996,-8.4 -2.1333334,-2.13333 -3.80000003,-4.46667 -5,-7 -1.2,-2.66667 -2.0666667,-5.13333 -2.6,-7.4 -0.5333334,-2.26667 -0.8666667,-4.26667 -1,-6 v -3.4 -3.4 c 0.1333333,-1.73333 0.4666666,-3.73333 1,-6 0.5333333,-2.26667 1.4,-4.66667 2.6,-7.2 1.19999997,-2.66667 2.8666666,-5.13333 5,-7.4 5.333333,-5.6 12.5333326,-8.4 21.5999996,-8.4 h 36.4 v -8.799998 c 0,-3.466667 -0.666667,-6.733333 -2,-9.8 -1.2,-3.066667 -2.866667,-5.733333 -5,-8 -2.133333,-2.266667 -4.666667,-4.066667 -7.6,-5.4 -2.8,-1.333333 -5.866667,-2 -9.2,-2 h -2.2 c -5.466667,0 -10.333333,1.733333 -14.6,5.2 -4.133333,3.333333 -6.933333,7.733333 -8.4,13.2 -0.4,1.466667 -1.2,2.533333 -2.4,3.2 -1.2,0.666667 -2.5333332,0.8 -3.9999996,0.4 -1.3333334,-0.266667 -2.3333334,-1 -3,-2.2 -0.6666667,-1.2 -0.8666667,-2.533333 -0.6,-4 2.1333333,-7.733333 6.1333332,-13.933333 11.9999996,-18.6 3.066667,-2.533333 6.333333,-4.4 9.8,-5.6 3.6,-1.2 7.333333,-1.8 11.2,-1.8 h 2.2 c 4.533333,0 8.866667,0.866667 13,2.6 4.133333,1.733333 7.866667,4.333333 11.2,7.8 3.2,3.333333 5.6,7.2 7.2,11.6 1.733333,4.266667 2.6,8.733333 2.6,13.4 v 31.199998 c 0,1.46667 -0.466667,2.66667 -1.4,3.6 -0.933333,0.93333 -2.133333,1.4 -3.6,1.4 -1.466667,0 -2.733333,-0.46667 -3.8,-1.4 -0.933333,-0.93333 -1.63727,-2.15265 -1.4,-3.6 v -12.2 h -36.4 c -6,0 -10.733333,1.73333 -14.2,5.2 -1.4666667,1.6 -2.5999999,3.4 -3.3999996,5.4 -0.8,1.86667 -1.4,3.66667 -1.8,5.4 -0.2666667,1.6 -1.291953,3.39724 -0.4,4.2 v 1.8 0.4 2.2 c 0,1.06667 0.1333333,2.46667 0.4,4.2 0.4,1.6 1,3.33333 1.8,5.2 0.7999997,1.86667 1.9333329,3.53333 3.3999996,5 3.466667,3.46667 8.2,5.2 14.2,5.2 z"
         style="font-style:normal;font-variant:normal;font-weight:normal;font-stretch:normal;font-size:200px;font-family:BOKEH;-inkscape-font-specification:BOKEH;letter-spacing:5.63999987px;fill:#ffcc00"
         id="path934"
         inkscape:connector-curvature="0"
         sodipodi:nodetypes="scsssscssssscssssccscccsccscscscssccscscccsssccsssscscscccsccscssss" />
      <path
         d="m 139.83,147.10117 c -1.46667,0 -2.66667,-0.46667 -3.6,-1.4 -0.93333,-1.06667 -1.4,-2.33333 -1.4,-3.8 0,-1.46667 0.46667,-2.66667 1.4,-3.6 0.93333,-0.93333 2.13333,-1.4 3.6,-1.4 h 7.2 c 1.46667,0 2.66667,0.46667 3.6,1.4 1.06667,0.93333 1.6,2.13333 1.6,3.6 0,1.46667 -0.53333,2.73333 -1.6,3.8 -0.93333,0.93333 -2.13333,1.4 -3.6,1.4 z m 26.2,23.2 c 0,9.6 -3.33333,17.93333 -10,25 -3.2,3.46667 -6.86667,6.06667 -11,7.8 -4.13333,1.73333 -8.53333,2.6 -13.2,2.6 h -2.2 c -8.26667,0 -15.53333,-2.73333 -21.8,-8.2 -1.06667,-0.93333 -1.66667,-2.13333 -1.8,-3.6 -0.13333,-1.33333 0.26667,-2.53333 1.2,-3.6 1.06667,-1.06667 2.26667,-1.66667 3.6,-1.8 1.33333,-0.13333 2.53333,0.26667 3.6,1.2 4.53333,3.86667 9.6,5.8 15.2,5.8 h 2.2 c 3.33333,0 6.4,-0.66667 9.2,-2 2.93333,-1.33333 5.46667,-3.13333 7.6,-5.4 2.26667,-2.26667 4,-4.93333 5.2,-8 1.33333,-3.06667 2,-6.33334 2,-9.8 v -11.6 -89.599998 h -26.8 c -4.13333,0 -8.06667,0.533333 -11.8,1.6 -3.73333,1.066667 -7,2.666667 -9.8,4.8 -5.33333,3.866667 -8,8.4 -8,13.6 v 9.8 13.199998 4.8 c 0,2.53333 0.66667,4.93333 2,7.2 1.33333,2.26667 3.2,4.33333 5.6,6.2 2.4,1.73333 5.2,3.2 8.4,4.4 3.2,1.06667 6.66667,1.73333 10.4,2 1.46667,0.13333 2.6,0.73333 3.4,1.8 0.93333,1.06667 1.33333,2.33333 1.2,3.8 -0.13333,1.33333 -0.66667,2.46667 -1.6,3.4 -0.93333,0.8 -2.06667,1.2 -3.4,1.2 h -0.4 c -5.06667,-0.4 -9.8,-1.4 -14.2,-3 -4.4,-1.73333 -8.2,-3.93333 -11.4,-6.6 -3.200001,-2.8 -5.733334,-5.93333 -7.600001,-9.4 -1.733333,-3.46667 -2.6,-7.13333 -2.6,-11 v -4.8 -13.199998 -9.8 c 0,-4.266667 1.133333,-8.333333 3.4,-12.2 2,-3.733333 4.933334,-6.933333 8.800001,-9.6 3.73333,-2.666667 7.93333,-4.733333 12.6,-6.2 4.8,-1.466667 9.8,-2.2 15,-2.2 h 31.8 c 0.93333,0 1.93333,0.266667 3,0.8 1.46667,1.2 2.24621,2.667283 2.2,4.4 v 74.999998 z"
         style="font-style:normal;font-variant:normal;font-weight:normal;font-stretch:normal;font-size:200px;font-family:BOKEH;-inkscape-font-specification:BOKEH;letter-spacing:5.63999987px;fill:#ffcc00"
         id="path936"
         inkscape:connector-curvature="0"
         sodipodi:nodetypes="scsssscssssscssscccscsscccsccsscsccssccccccsccccsccscccsscscs" />
      <path
         d="m 227.15126,59.101172 c 4.66667,0.533333 9,1.866667 13,4 4.13333,2 7.66667,4.6 10.6,7.8 2.93333,3.2 5.2,6.8 6.8,10.8 1.73333,4 2.6,8.266667 2.6,12.8 v 10.399998 16.8 10.4 c 0,4.8 -1,9.4 -3,13.8 -1.86667,4.26667 -4.53333,8.06667 -8,11.4 -7.33333,6.93333 -16.13333,10.4 -26.4,10.4 h -2.2 c -10.26667,0 -19.06667,-3.46667 -26.4,-10.4 -3.46667,-3.33333 -6.2,-7.13333 -8.2,-11.4 -1.86667,-4.4 -3.67403,-9.08025 -2.8,-13.8 v -10.8 -16 -10.799998 c 0,-4.533333 0.93333,-9.066667 2.8,-13.6 0.66667,-1.333333 1.6,-2.266667 2.8,-2.8 1.33333,-0.533333 2.66667,-0.466667 4,0.2 1.33333,0.666667 2.26667,1.666667 2.8,3 0.53333,1.2 0.46667,2.466667 -0.2,3.8 -1.2,3.066667 -2.38269,6.253498 -1.8,9.4 v 10.799998 16 10.8 c 0,3.46667 0.66667,6.8 2,10 1.46667,3.06667 3.4,5.73333 5.8,8 2.53333,2.26667 5.4,4.06667 8.6,5.4 3.33333,1.33333 6.86667,2 10.6,2 h 2.2 c 3.73333,0 7.2,-0.66667 10.4,-2 3.33333,-1.33333 6.2,-3.13333 8.6,-5.4 2.53333,-2.26667 4.46667,-4.93333 5.8,-8 1.46667,-3.2 1.54533,-6.59571 2.2,-10 v -10.4 -16.8 -10.399998 c 0,-3.2 -0.6,-6.2 -1.8,-9 -1.2,-2.933333 -2.86667,-5.533333 -5,-7.8 -2.13333,-2.266667 -4.66667,-4.133333 -7.6,-5.6 -2.8,-1.466667 -5.86667,-2.4 -9.2,-2.8 -1.46667,-0.266667 -2.66667,-0.866667 -3.6,-1.8 -0.8,-1.066667 -1.13333,-2.333333 -1,-3.8 0.26667,-1.466667 0.86667,-2.666667 1.8,-3.6 1.06667,-0.933333 2.33333,-1.266667 3.8,-1 z m -25.6,15.8 c -1.73333,0 -3.13333,-0.733333 -4.2,-2.2 -0.8,-1.066667 -1.06667,-2.266667 -0.8,-3.6 0.26667,-1.466667 0.93333,-2.6 2,-3.4 3.6,-2.533333 7.26667,-4.266667 11,-5.2 1.46667,-0.4 2.8,-0.266667 4,0.4 1.2,0.533333 2,1.533333 2.4,3 0.4,1.333333 0.26667,2.666667 -0.4,4 -0.66667,1.2 -1.66667,2 -3,2.4 -3.06667,0.8 -5.73333,2.066667 -8,3.8 -0.93333,0.533333 -1.93333,0.8 -3,0.8 z"
         style="font-style:normal;font-variant:normal;font-weight:normal;font-stretch:normal;font-size:200px;font-family:BOKEH;-inkscape-font-specification:BOKEH;letter-spacing:5.63999987px;fill:#ffcc00"
         id="path938"
         inkscape:connector-curvature="0"
         sodipodi:nodetypes="ccscsccsccssccsccsccsccsccscccsscccsccscsccccccscccccccccs" />
      <path
         d="m 350.66312,59.101172 c 1.46667,0.533333 2.46667,1.466667 3,2.8 0.66667,1.2 0.73333,2.466667 0.2,3.8 l -38.6,109.599998 -0.2,0.2 c -3.86667,9.06667 -8.66667,16.53333 -14.4,22.4 -6.13333,6.53333 -12.13333,9.8 -18,9.8 h -0.2 c -1.46667,0 -2.66667,-0.46667 -3.6,-1.4 -0.93333,-0.93333 -1.4,-2.13333 -1.4,-3.6 0,-1.46667 0.46667,-2.73333 1.4,-3.8 0.93333,-0.93333 2.13333,-1.4 3.6,-1.4 1.46667,0 3.13333,-0.6 5,-1.8 2,-1.2 4,-2.8 6,-4.8 2.26667,-2.4 4.46667,-5.26667 6.6,-8.6 2.13333,-3.2 4,-6.73333 5.6,-10.6 l 38.6,-109.399998 c 0.4,-1.333333 1.2,-2.266667 2.4,-2.8 1.33333,-0.666667 2.66667,-0.8 4,-0.4 z m -72,7 c -0.53333,-1.333333 -0.6,-2.6 -0.2,-3.8 0.53333,-1.333333 1.46667,-2.333333 2.8,-3 1.33333,-0.666667 2.6,-0.733333 3.8,-0.2 1.33333,0.533333 2.33333,1.466667 3,2.8 l 18.4,41.599998 c 0.66667,1.33333 0.73333,2.66667 0.2,4 -0.53333,1.2 -1.46667,2.13333 -2.8,2.8 -0.8,0.26667 -1.46667,0.4 -2,0.4 -2.13333,0 -3.66667,-1 -4.6,-3 z m 24.8,55.599998 c -0.66667,-1.2 -0.73333,-2.46667 -0.2,-3.8 0.53333,-1.33333 1.46667,-2.26667 2.8,-2.8 1.33333,-0.66667 2.6,-0.73333 3.8,-0.2 1.33333,0.53333 2.33333,1.46667 3,2.8 l 3.2,7.6 c 0.66667,1.2 0.73333,2.46667 0.2,3.8 -0.53333,1.33333 -1.46667,2.26667 -2.8,2.8 -0.66667,0.4 -1.33333,0.6 -2,0.6 -2.26667,0 -3.8,-1.06667 -4.6,-3.2 z"
         style="font-style:normal;font-variant:normal;font-weight:normal;font-stretch:normal;font-size:200px;font-family:BOKEH;-inkscape-font-specification:BOKEH;letter-spacing:5.63999987px;fill:#ffcc00"
         id="path940"
         inkscape:connector-curvature="0"
         sodipodi:nodetypes="ccccccsssscscccccccccscccccscccsccccscscc" />
      <path
         d="m 443.57501,136.30117 c 1.46667,0 2.66667,0.53333 3.6,1.6 0.93333,0.93333 1.4,2.13333 1.4,3.6 v 7.6 c 0,1.46667 -0.46667,2.66667 -1.4,3.6 -0.93333,0.93333 -2.13333,1.4 -3.6,1.4 -1.46667,0 -2.73333,-0.46667 -3.8,-1.4 -0.93333,-0.93333 -1.4,-2.13333 -1.4,-3.6 v -7.6 c 0,-1.46667 0.46667,-2.66667 1.4,-3.6 1.06667,-1.06667 2.33333,-1.6 3.8,-1.6 z m 0,21.2 c 1.46667,0 2.66667,0.46667 3.6,1.4 1.06667,0.93333 1.6,2.13333 1.6,3.6 0,1.46667 -0.53333,2.73333 -1.6,3.8 -0.93333,0.93333 -2.13333,1.4 -3.6,1.4 h -41.6 c -9.06667,0 -16.26667,-2.8 -21.6,-8.4 -2.13333,-2.13333 -3.8,-4.46667 -5,-7 -1.2,-2.66667 -2.06667,-5.13333 -2.6,-7.4 -0.53333,-2.26667 -0.86667,-4.26667 -1,-6 v -3.4 -3.4 c 0.13333,-1.73333 0.46667,-3.73333 1,-6 0.53333,-2.26667 1.4,-4.66667 2.6,-7.2 1.2,-2.66667 2.86667,-5.13333 5,-7.4 5.33333,-5.6 12.53333,-8.4 21.6,-8.4 h 36.4 v -8.799998 c 0,-3.466667 -0.66667,-6.733333 -2,-9.8 -1.2,-3.066667 -2.86667,-5.733333 -5,-8 -2.13333,-2.266667 -4.66667,-4.066667 -7.6,-5.4 -2.8,-1.333333 -5.86667,-2 -9.2,-2 h -2.2 c -5.46667,0 -10.33333,1.733333 -14.6,5.2 -4.13333,3.333333 -6.93333,7.733333 -8.4,13.2 -0.4,1.466667 -1.2,2.533333 -2.4,3.2 -1.2,0.666667 -2.53333,0.8 -4,0.4 -1.33333,-0.266667 -2.33333,-1 -3,-2.2 -0.66667,-1.2 -0.86667,-2.533333 -0.6,-4 2.13333,-7.733333 6.13333,-13.933333 12,-18.6 3.06667,-2.533333 6.33333,-4.4 9.8,-5.6 3.6,-1.2 7.33333,-1.8 11.2,-1.8 h 2.2 c 4.53333,0 8.86667,0.866667 13,2.6 4.13333,1.733333 7.86667,4.333333 11.2,7.8 3.2,3.333333 5.6,7.2 7.2,11.6 1.73333,4.266667 2.6,8.733333 2.6,13.4 v 31.199998 c 0,1.46667 -0.46667,2.66667 -1.4,3.6 -0.93333,0.93333 -2.13333,1.4 -3.6,1.4 -1.46667,0 -2.73333,-0.46667 -3.8,-1.4 -0.93333,-0.93333 -1.4,-2.13333 -1.4,-3.6 v -12.2 h -36.4 c -6,0 -10.73333,1.73333 -14.2,5.2 -1.46667,1.6 -2.6,3.4 -3.4,5.4 -0.8,1.86667 -1.4,3.66667 -1.8,5.4 -0.26667,1.6 -0.4,3 -0.4,4.2 v 1.8 0.4 2.2 c 0,1.06667 0.13333,2.46667 0.4,4.2 0.4,1.6 1,3.33333 1.8,5.2 0.8,1.86667 1.93333,3.53333 3.4,5 3.46667,3.46667 8.2,5.2 14.2,5.2 z"
         style="font-style:normal;font-variant:normal;font-weight:normal;font-stretch:normal;font-size:200px;font-family:BOKEH;-inkscape-font-specification:BOKEH;letter-spacing:5.63999987px;fill:#ffcc00"
         id="path942"
         inkscape:connector-curvature="0"
         sodipodi:nodetypes="scsssscssssscssssccscccsccscscscssccscscccsssccsssscscscccsccscssss" />
      <path
         d="m -22,379.70117 c 0,0.8 -0.06667,2.2 -0.2,4.2 -0.133333,2 -0.533333,4.33333 -1.2,7 -0.666667,2.53333 -1.733333,5.26667 -3.2,8.2 -1.333333,2.93333 -3.266667,5.66667 -5.8,8.2 -6.933333,6.93333 -16.333333,10.4 -28.2,10.4 h -49.4 -0.4 c -1.46667,0 -2.66667,-0.46667 -3.6,-1.4 -0.93333,-1.06667 -1.4,-2.33333 -1.4,-3.8 v -129.6 c 0,-1.46667 0.46667,-2.66667 1.4,-3.6 0.93333,-0.93333 2.13333,-1.4 3.6,-1.4 1.46667,0 2.66667,0.46667 3.6,1.4 1.06667,0.93333 1.6,2.13333 1.6,3.6 v 58.6 h 44.6 c 12,0 21.4,3.53333 28.2,10.6 4.533333,4.53333 7.6,10.2 9.2,17 0.666667,2.53333 1,4.73333 1,6.6 0.133333,1.86667 0.2,3.13333 0.2,3.8 z m -17.6,20.4 c 1.866667,-1.86667 3.266667,-3.93333 4.2,-6.2 1.066667,-2.26667 1.8,-4.33333 2.2,-6.2 0.533333,-2 0.8,-3.73333 0.8,-5.2 0.133333,-1.46667 0.2,-2.33333 0.2,-2.6 v -0.4 -0.2 c 0,-0.26667 -0.06667,-1.13333 -0.2,-2.6 0,-1.46667 -0.266667,-3.2 -0.8,-5.2 -1.2,-4.93333 -3.333333,-9.06667 -6.4,-12.4 -4.933333,-4.93333 -11.933333,-7.4 -21,-7.4 h -6.6 -0.2 -37.8 v 55.8 h 44.6 c 9.066667,0 16.066667,-2.46667 21,-7.4 z m -54.8,-112 c -1.466667,0 -2.733333,-0.46667 -3.8,-1.4 -0.933333,-1.06667 -1.4,-2.33333 -1.4,-3.8 0,-1.46667 0.466667,-2.66667 1.4,-3.6 1.066667,-0.93333 2.333333,-1.4 3.8,-1.4 h 12.8 c 1.466667,0 2.666667,0.46667 3.6,1.4 0.933333,0.93333 1.4,2.13333 1.4,3.6 0,1.46667 -0.466667,2.73333 -1.4,3.8 -0.933333,0.93333 -2.133333,1.4 -3.6,1.4 z m 27,0 c -1.466667,0 -2.666667,-0.46667 -3.6,-1.4 -0.933333,-1.06667 -1.4,-2.33333 -1.4,-3.8 0,-1.46667 0.466667,-2.66667 1.4,-3.6 0.933333,-0.93333 2.133333,-1.4 3.6,-1.4 9.866667,0 17.733333,3 23.6,9 2.4,2.53333 4.266667,5.33333 5.6,8.4 1.333333,2.93333 2.266667,5.73333 2.8,8.4 0.666667,2.66667 1.066667,5 1.2,7 0.133333,2 0.2,3.33333 0.2,4 0,0.8 -0.133333,3 -0.4,6.6 -0.266667,3.46667 -1.333333,7.26667 -3.2,11.4 -0.8,2.13333 -2.333333,3.2 -4.6,3.2 -0.533333,0 -1.2,-0.13333 -2,-0.4 -1.333333,-0.66667 -2.266667,-1.6 -2.8,-2.8 -0.533333,-1.33333 -0.533333,-2.66667 0,-4 1.333333,-3.06667 2.133333,-5.93333 2.4,-8.6 0.266667,-2.66667 -0.25372,-4.86926 0.4,-5 v -0.4 -0.8 c 0,-0.8 -0.133333,-1.93333 -0.4,-3.4 -0.133333,-1.6 -0.466667,-3.33333 -1,-5.2 -0.4,-1.86667 -1.066667,-3.8 -2,-5.8 -0.8,-2.13333 -2,-4 -3.6,-5.6 -3.866667,-3.86667 -9.266667,-5.8 -16.2,-5.8 z"
         style="font-style:normal;font-variant:normal;font-weight:normal;font-stretch:normal;font-size:200px;font-family:BOKEH;-inkscape-font-specification:BOKEH;letter-spacing:5.63999987px;fill:#ffcc00"
         id="path944"
         inkscape:connector-curvature="0"
         sodipodi:nodetypes="ssccsscscsssscscscccssscccscscccsccccssscscsssscssscssscccssccscccsscscccss" />
      <path
         d="m 61.308749,319.30117 c 3.466667,3.46667 6.133333,7.33333 8,11.6 2,4.26667 3,8.8 3,13.6 v 13 c 0,1.46667 -0.533333,2.66667 -1.6,3.6 -0.933333,0.93333 -2.133333,1.4 -3.6,1.4 -1.466667,0 -2.666667,-0.46667 -3.6,-1.4 -0.933333,-0.93333 -1.4,-2.13333 -1.4,-3.6 v -13 c 0,-3.46667 -0.733333,-6.73333 -2.2,-9.8 -1.333333,-3.06667 -3.266667,-5.73333 -5.8,-8 -2.4,-2.4 -5.266667,-4.26667 -8.6,-5.6 -3.2,-1.33333 -6.666667,-2 -10.4,-2 h -2.4 c -3.733333,0 -7.266667,0.66667 -10.6,2 -3.2,1.33333 -6.066667,3.2 -8.6,5.6 -2.4,2.26667 -4.3333332,4.93333 -5.7999996,8 -1.3333334,3.06667 -2,6.33333 -2,9.8 v 7.8 H 32.108749 c 1.466667,0 2.666667,0.53333 3.6,1.6 0.933333,0.93333 1.4,2.13333 1.4,3.6 0,1.46667 -0.466667,2.66667 -1.4,3.6 -0.933333,0.93333 -2.133333,1.4 -3.6,1.4 H 5.7087494 v 8.8 10.8 c 0,3.46667 0.6666666,6.8 2,10 1.4666664,3.06667 3.3999996,5.73333 5.7999996,8 2.533333,2.26667 5.4,4.06667 8.6,5.4 3.333333,1.33333 6.866667,2 10.6,2 h 2.4 c 5.066667,0 9.666667,-1.2 13.8,-3.6 4.266667,-2.4 7.6,-5.66667 10,-9.8 0.666667,-1.2 1.666667,-1.93333 3,-2.2 1.333333,-0.4 2.666667,-0.26667 4,0.4 1.2,0.66667 1.933333,1.66667 2.2,3 0.4,1.33333 0.266667,2.66667 -0.4,4 -3.333333,5.73333 -7.933333,10.26667 -13.8,13.6 -5.733333,3.2 -12,4.8 -18.8,4.8 h -2.4 c -10.266667,0 -19,-3.46667 -26.1999996,-10.4 -3.6,-3.33333 -6.33333336,-7.13333 -8.2,-11.4 -1.8666667,-4.4 -3.6740285,-9.08025 -2.8,-13.8 v -10.8 -16 -10.8 c 0,-9.86667 3.66666664,-18.26667 11,-25.2 7.1999996,-6.93333 15.9333326,-10.4 26.1999996,-10.4 h 2.4 c 4.933333,0 9.666667,0.86667 14.2,2.6 4.533333,1.73333 8.533333,4.33333 12,7.8 z m -7.8,33 c 1.466667,0 2.666667,0.53333 3.6,1.6 1.066667,0.93333 1.6,2.13333 1.6,3.6 0,1.46667 -0.533333,2.66667 -1.6,3.6 -0.933333,0.93333 -2.133333,1.4 -3.6,1.4 h -7.4 c -1.466667,0 -2.733333,-0.46667 -3.8,-1.4 -0.933333,-0.93333 -1.4,-2.13333 -1.4,-3.6 0,-1.46667 0.466667,-2.66667 1.4,-3.6 1.066667,-1.06667 2.333333,-1.6 3.8,-1.6 z"
         style="font-style:normal;font-variant:normal;font-weight:normal;font-stretch:normal;font-size:200px;font-family:BOKEH;-inkscape-font-specification:BOKEH;letter-spacing:5.63999987px;fill:#ffcc00"
         id="path946"
         inkscape:connector-curvature="0"
         sodipodi:nodetypes="scsscsssscccsscccscscsssccscccsscccccccssccsccscssssscscsscssss" />
      <path
         d="m 139.83,397.10117 c -1.46667,0 -2.66667,-0.46667 -3.6,-1.4 -0.93333,-1.06667 -1.4,-2.33333 -1.4,-3.8 0,-1.46667 0.46667,-2.66667 1.4,-3.6 0.93333,-0.93333 2.13333,-1.4 3.6,-1.4 h 7.2 c 1.46667,0 2.66667,0.46667 3.6,1.4 1.06667,0.93333 1.6,2.13333 1.6,3.6 0,1.46667 -0.53333,2.73333 -1.6,3.8 -0.93333,0.93333 -2.13333,1.4 -3.6,1.4 z m 26.2,23.2 c 0,9.6 -3.33333,17.93333 -10,25 -3.2,3.46667 -6.86667,6.06667 -11,7.8 -4.13333,1.73333 -8.53333,2.6 -13.2,2.6 h -2.2 c -8.26667,0 -15.53333,-2.73333 -21.8,-8.2 -1.06667,-0.93333 -1.66667,-2.13333 -1.8,-3.6 -0.13333,-1.33333 0.26667,-2.53333 1.2,-3.6 1.06667,-1.06667 2.26667,-1.66667 3.6,-1.8 1.33333,-0.13333 2.53333,0.26667 3.6,1.2 4.53333,3.86667 9.6,5.8 15.2,5.8 h 2.2 c 3.33333,0 6.4,-0.66667 9.2,-2 2.93333,-1.33333 5.46667,-3.13333 7.6,-5.4 2.26667,-2.26667 4,-4.93333 5.2,-8 1.33333,-3.06667 1.41099,-6.38374 2,-9.8 v -11.6 -89.6 h -26.8 c -4.13333,0 -8.06667,0.53333 -11.8,1.6 -3.73333,1.06667 -7,2.66667 -9.8,4.8 -5.33333,3.86667 -9.039792,8.50502 -8,13.6 v 9.8 13.2 4.8 c 0,2.53333 0.66667,4.93333 2,7.2 1.33333,2.26667 3.2,4.33333 5.6,6.2 2.4,1.73333 5.2,3.2 8.4,4.4 3.2,1.06667 6.66667,1.73333 10.4,2 1.46667,0.13333 2.6,0.73333 3.4,1.8 0.93333,1.06667 1.33333,2.33333 1.2,3.8 -0.13333,1.33333 -0.66667,2.46667 -1.6,3.4 -0.93333,0.8 -2.06667,1.2 -3.4,1.2 h -0.4 c -5.06667,-0.4 -9.8,-1.4 -14.2,-3 -4.4,-1.73333 -8.2,-3.93333 -11.4,-6.6 -3.200001,-2.8 -5.733334,-5.93333 -7.600001,-9.4 -1.733333,-3.46667 -4.08718,-7.43077 -2.6,-11 v -4.8 -13.2 -9.8 c 0,-4.26667 1.133333,-8.33333 3.4,-12.2 2,-3.73333 4.933334,-6.93333 8.800001,-9.6 3.73333,-2.66667 7.93333,-4.73333 12.6,-6.2 4.8,-1.46667 9.8,-2.2 15,-2.2 h 31.8 c 0.93333,0 1.93333,0.26667 3,0.8 1.46667,1.2 2.15379,2.66728 2.2,4.4 v 75 z"
         style="font-style:normal;font-variant:normal;font-weight:normal;font-stretch:normal;font-size:200px;font-family:BOKEH;-inkscape-font-specification:BOKEH;letter-spacing:5.63999987px;fill:#ffcc00"
         id="path948"
         inkscape:connector-curvature="0"
         sodipodi:nodetypes="scsssscssssscssscccscsscccsccsscsccssccccccsccccsccscccsscscs" />
      <path
         d="m 188.55126,310.70117 c 1.46667,0 2.66667,0.46667 3.6,1.4 0.93333,0.93333 1.4,2.13333 1.4,3.6 v 96.8 c 0,1.46667 -0.46667,2.73333 -1.4,3.8 -0.93333,0.93333 -2.13333,1.4 -3.6,1.4 -1.46667,0 -2.73333,-0.46667 -3.8,-1.4 -0.93333,-1.06667 -1.4,-2.33333 -1.4,-3.8 v -96.8 c 0,-1.46667 0.46667,-2.66667 1.4,-3.6 1.06667,-0.93333 2.33333,-1.4 3.8,-1.4 z m 0,-33 c 1.46667,0 2.66667,0.53333 3.6,1.6 0.93333,0.93333 1.4,2.13333 1.4,3.6 v 14 c 0,1.46667 -0.46667,2.73333 -1.4,3.8 -0.93333,0.93333 -2.13333,1.4 -3.6,1.4 -1.46667,0 -2.73333,-0.46667 -3.8,-1.4 -0.93333,-1.06667 -1.4,-2.33333 -1.4,-3.8 v -14 c 0,-1.46667 0.46667,-2.66667 1.4,-3.6 1.06667,-1.06667 2.33333,-1.6 3.8,-1.6 z"
         style="font-style:normal;font-variant:normal;font-weight:normal;font-stretch:normal;font-size:200px;font-family:BOKEH;-inkscape-font-specification:BOKEH;letter-spacing:5.63999987px;fill:#ffcc00"
         id="path950"
         inkscape:connector-curvature="0"
         sodipodi:nodetypes="sssscscsscsscsscscssss" />
      <path
         d="m 282.66625,343.30117 c 1.46667,0 2.66667,0.53333 3.6,1.6 0.93333,0.93333 1.4,2.13333 1.4,3.6 v 64 c 0,1.46667 -0.46667,2.73333 -1.4,3.8 -0.93333,0.93333 -2.13333,1.4 -3.6,1.4 -1.46667,0 -2.73333,-0.46667 -3.8,-1.4 -0.93333,-1.06667 -1.4,-2.33333 -1.4,-3.8 v -64 c 0,-1.46667 0.46667,-2.66667 1.4,-3.6 1.06667,-1.06667 2.33333,-1.6 3.8,-1.6 z m -1.2,-3 c -2.53333,0 -4.13333,-1.2 -4.8,-3.6 -0.8,-2 -1.8,-4.06667 -3,-6.2 -0.26667,-0.4 -0.6,-0.73333 -1,-1 l -0.8,-1.2 c -0.8,-0.8 -1.4,-1.46667 -1.8,-2 -1.06667,-0.93333 -1.66667,-2.06667 -1.8,-3.4 0,-1.46667 0.46667,-2.73333 1.4,-3.8 1.06667,-1.06667 2.26667,-1.6 3.6,-1.6 1.46667,-0.13333 2.73333,0.33333 3.8,1.4 0.4,0.4 0.8,0.86667 1.2,1.4 0.53333,0.4 1,0.86667 1.4,1.4 l 2.4,3 c 0.93333,1.46667 1.73333,2.93333 2.4,4.4 0.8,1.46667 1.4,3 1.8,4.6 0.53333,1.33333 0.46667,2.66667 -0.2,4 -0.66667,1.2 -1.73333,2 -3.2,2.4 -0.26667,0 -0.53333,0.0667 -0.8,0.2 z m -20.2,-30 c 1.46667,0.26667 2.53333,1 3.2,2.2 0.66667,1.2 0.8,2.53333 0.4,4 -0.4,1.46667 -1.2,2.53333 -2.4,3.2 -1.2,0.66667 -2.53333,0.8 -4,0.4 -2.66667,-0.8 -5.33333,-1.2 -8,-1.2 h -2.4 c -3.73333,0 -7.26667,0.66667 -10.6,2 -3.2,1.2 -6.06667,2.93333 -8.6,5.2 -2.4,2.13333 -4.33333,4.66667 -5.8,7.6 -1.33333,2.8 -2,5.86667 -2,9.2 v 69.6 c 0,1.46667 -0.46667,2.73333 -1.4,3.8 -0.93333,0.93333 -2.13333,1.4 -3.6,1.4 -1.46667,0 -2.73333,-0.46667 -3.8,-1.4 -0.93333,-1.06667 -1.4,-2.33333 -1.4,-3.8 v -69.6 c 0,-4.66667 0.93333,-9.06667 2.8,-13.2 2,-4.13333 4.73333,-7.86667 8.2,-11.2 3.6,-3.06667 7.6,-5.46667 12,-7.2 4.53333,-1.73333 9.26667,-2.6 14.2,-2.6 h 2.4 c 3.6,0 7.2,0.53333 10.8,1.6 z"
         style="font-style:normal;font-variant:normal;font-weight:normal;font-stretch:normal;font-size:200px;font-family:BOKEH;-inkscape-font-specification:BOKEH;letter-spacing:5.63999987px;fill:#ffcc00"
         id="path952"
         inkscape:connector-curvature="0"
         sodipodi:nodetypes="scsscscsssssccccccccsccccccccscssscsscccsscscsscccssc" />
      <path
         d="m 376.97814,343.30117 c 1.46667,0 2.66667,0.53333 3.6,1.6 0.93333,0.93333 1.4,2.13333 1.4,3.6 v 64 c 0,1.46667 -0.46667,2.73333 -1.4,3.8 -0.93333,0.93333 -2.13333,1.4 -3.6,1.4 -1.46667,0 -2.73333,-0.46667 -3.8,-1.4 -0.93333,-1.06667 -1.4,-2.33333 -1.4,-3.8 v -64 c 0,-1.46667 0.46667,-2.66667 1.4,-3.6 1.06667,-1.06667 2.33333,-1.6 3.8,-1.6 z m -1.2,-3 c -2.53333,0 -4.13333,-1.2 -4.8,-3.6 -0.8,-2 -1.8,-4.06667 -3,-6.2 -0.26667,-0.4 -0.6,-0.73333 -1,-1 l -0.8,-1.2 c -0.8,-0.8 -1.4,-1.46667 -1.8,-2 -1.06667,-0.93333 -1.66667,-2.06667 -1.8,-3.4 0,-1.46667 0.46667,-2.73333 1.4,-3.8 1.06667,-1.06667 2.26667,-1.6 3.6,-1.6 1.46667,-0.13333 2.73333,0.33333 3.8,1.4 0.4,0.4 0.8,0.86667 1.2,1.4 0.53333,0.4 1,0.86667 1.4,1.4 l 2.4,3 c 0.93333,1.46667 1.73333,2.93333 2.4,4.4 0.8,1.46667 1.4,3 1.8,4.6 0.53333,1.33333 0.46667,2.66667 -0.2,4 -0.66667,1.2 -1.73333,2 -3.2,2.4 -0.26667,0 -0.53333,0.0667 -0.8,0.2 z m -20.2,-30 c 1.46667,0.26667 2.53333,1 3.2,2.2 0.66667,1.2 0.8,2.53333 0.4,4 -0.4,1.46667 -1.2,2.53333 -2.4,3.2 -1.2,0.66667 -2.53333,0.8 -4,0.4 -2.66667,-0.8 -5.33333,-1.2 -8,-1.2 h -2.4 c -3.73333,0 -7.26667,0.66667 -10.6,2 -3.2,1.2 -6.06667,2.93333 -8.6,5.2 -2.4,2.13333 -4.33333,4.66667 -5.8,7.6 -1.33333,2.8 -2,5.86667 -2,9.2 v 69.6 c 0,1.46667 -0.46667,2.73333 -1.4,3.8 -0.93333,0.93333 -2.13333,1.4 -3.6,1.4 -1.46667,0 -2.73333,-0.46667 -3.8,-1.4 -0.93333,-1.06667 -1.4,-2.33333 -1.4,-3.8 v -69.6 c 0,-4.66667 0.93333,-9.06667 2.8,-13.2 2,-4.13333 4.73333,-7.86667 8.2,-11.2 3.6,-3.06667 7.6,-5.46667 12,-7.2 4.53333,-1.73333 9.26667,-2.6 14.2,-2.6 h 2.4 c 3.6,0 7.2,0.53333 10.8,1.6 z"
         style="font-style:normal;font-variant:normal;font-weight:normal;font-stretch:normal;font-size:200px;font-family:BOKEH;-inkscape-font-specification:BOKEH;letter-spacing:5.63999987px;fill:#ffcc00"
         id="path954"
         inkscape:connector-curvature="0"
         sodipodi:nodetypes="scsscscsssssccccccccsccccccccscssscsscccsscscsscccssc" />
      <path
         d="m 463.29003,319.30117 c 3.46667,3.46667 6.13333,7.33333 8,11.6 2,4.26667 3,8.8 3,13.6 v 13 c 0,1.46667 -0.53333,2.66667 -1.6,3.6 -0.93333,0.93333 -2.13333,1.4 -3.6,1.4 -1.46667,0 -2.66667,-0.46667 -3.6,-1.4 -0.93333,-0.93333 -1.4,-2.13333 -1.4,-3.6 v -13 c 0,-3.46667 -0.73333,-6.73333 -2.2,-9.8 -1.33333,-3.06667 -3.26667,-5.73333 -5.8,-8 -2.4,-2.4 -5.26667,-4.26667 -8.6,-5.6 -3.2,-1.33333 -6.66667,-2 -10.4,-2 h -2.4 c -3.73333,0 -7.26667,0.66667 -10.6,2 -3.2,1.33333 -6.06667,3.2 -8.6,5.6 -2.4,2.26667 -4.33333,4.93333 -5.8,8 -1.33333,3.06667 -2.86103,6.44197 -2,9.8 v 7.8 h 26.4 c 1.46667,0 2.66667,0.53333 3.6,1.6 0.93333,0.93333 1.4,2.13333 1.4,3.6 0,1.46667 -0.46667,2.66667 -1.4,3.6 -0.93333,0.93333 -2.13333,1.4 -3.6,1.4 h -26.4 v 8.8 10.8 c 0,3.46667 0.66667,6.8 2,10 1.46667,3.06667 3.4,5.73333 5.8,8 2.53333,2.26667 5.4,4.06667 8.6,5.4 3.33333,1.33333 6.86667,2 10.6,2 h 2.4 c 5.06667,0 9.66667,-1.2 13.8,-3.6 4.26667,-2.4 7.6,-5.66667 10,-9.8 0.66667,-1.2 1.66667,-1.93333 3,-2.2 1.33333,-0.4 2.66667,-0.26667 4,0.4 1.2,0.66667 1.93333,1.66667 2.2,3 0.4,1.33333 0.26667,2.66667 -0.4,4 -3.33333,5.73333 -7.93333,10.26667 -13.8,13.6 -5.73333,3.2 -12,4.8 -18.8,4.8 h -2.4 c -10.26667,0 -19,-3.46667 -26.2,-10.4 -3.6,-3.33333 -6.33333,-7.13333 -8.2,-11.4 -1.86667,-4.4 -3.67403,-9.08025 -2.8,-13.8 v -10.8 -16 -10.8 c 0,-9.86667 3.66667,-18.26667 11,-25.2 7.2,-6.93333 15.93333,-10.4 26.2,-10.4 h 2.4 c 4.93333,0 9.66667,0.86667 14.2,2.6 4.53333,1.73333 8.53333,4.33333 12,7.8 z m -7.8,33 c 1.46667,0 2.66667,0.53333 3.6,1.6 1.06667,0.93333 1.6,2.13333 1.6,3.6 0,1.46667 -0.53333,2.66667 -1.6,3.6 -0.93333,0.93333 -2.13333,1.4 -3.6,1.4 h -7.4 c -1.46667,0 -2.73333,-0.46667 -3.8,-1.4 -0.93333,-0.93333 -1.4,-2.13333 -1.4,-3.6 0,-1.46667 0.46667,-2.66667 1.4,-3.6 1.06667,-1.06667 2.33333,-1.6 3.8,-1.6 z"
         style="font-style:normal;font-variant:normal;font-weight:normal;font-stretch:normal;font-size:200px;font-family:BOKEH;-inkscape-font-specification:BOKEH;letter-spacing:5.63999987px;fill:#ffcc00"
         id="path956"
         inkscape:connector-curvature="0"
         sodipodi:nodetypes="scsscsssscccsscccscscsssccscccsscccccccssccsccscssssscscsscssss" />
      <path
         d="m 496.61123,375.30117 c 1.46667,0 2.66667,0.46667 3.6,1.4 0.93333,0.93333 1.4,2.13333 1.4,3.6 v 32.4 c 0,1.46667 -0.46667,2.66667 -1.4,3.6 -0.93333,0.93333 -2.13333,1.4 -3.6,1.4 -1.46667,0 -2.73333,-0.46667 -3.8,-1.4 -0.93333,-0.93333 -1.4,-2.13333 -1.4,-3.6 v -32.4 c 0,-1.46667 0.46667,-2.66667 1.4,-3.6 1.06667,-0.93333 2.33333,-1.4 3.8,-1.4 z m 45.2,-66.6 c 1.46667,0.4 2.53333,1.2 3.2,2.4 0.66667,1.2 0.8,2.53333 0.4,4 -0.4,1.46667 -1.2,2.53333 -2.4,3.2 -1.2,0.53333 -2.46667,0.66667 -3.8,0.4 -1.2,-0.4 -2.4,-0.66667 -3.6,-0.8 -1.2,-0.13333 -2.4,-0.2 -3.6,-0.2 h -2.4 c -3.86667,0 -7.53333,0.8 -11,2.4 -3.33333,1.6 -6.26667,3.8 -8.8,6.6 -2.53333,2.66667 -4.53333,5.86667 -6,9.6 -1.46667,3.6 -2.2,7.46667 -2.2,11.6 v 14.6 c 0,1.46667 -0.46667,2.73333 -1.4,3.8 -0.93333,0.93333 -2.13333,1.4 -3.6,1.4 -1.46667,0 -2.73333,-0.46667 -3.8,-1.4 -0.93333,-1.06667 -1.4,-2.33333 -1.4,-3.8 v -14.4 -0.2 -34 c 0,-1.46667 0.46667,-2.66667 1.4,-3.6 1.06667,-0.93333 2.33333,-1.4 3.8,-1.4 1.46667,0 2.66667,0.46667 3.6,1.4 0.93333,0.93333 0.96253,2.2001 1.4,3.6 v 6.4 l 0.8,-0.8 c 3.6,-3.86667 7.73333,-6.8 12.4,-8.8 4.8,-2.13333 9.73333,-3.2 14.8,-3.2 h 2.4 c 3.33333,0 6.6,0.4 9.8,1.2 z"
         style="font-style:normal;font-variant:normal;font-weight:normal;font-stretch:normal;font-size:200px;font-family:BOKEH;-inkscape-font-specification:BOKEH;letter-spacing:5.63999987px;fill:#ffcc00"
         id="path958"
         inkscape:connector-curvature="0"
         sodipodi:nodetypes="sssssscsscscssccssscccsscscsccscssscccssc" />
      <path
         d="m 563.045,307.70117 c -1.46667,0 -2.73333,-0.46667 -3.8,-1.4 -0.93333,-1.06667 -1.4,-2.33333 -1.4,-3.8 v -19.8 c 0,-1.46667 0.46667,-2.66667 1.4,-3.6 1.06667,-0.93333 2.33333,-1.4 3.8,-1.4 1.46667,0 2.66667,0.46667 3.6,1.4 1.06667,0.93333 1.6,2.13333 1.6,3.6 v 19.8 c 0,1.46667 -0.53333,2.73333 -1.6,3.8 -0.93333,0.93333 -2.13333,1.4 -3.6,1.4 z"
         style="font-style:normal;font-variant:normal;font-weight:normal;font-stretch:normal;font-size:200px;font-family:BOKEH;-inkscape-font-specification:BOKEH;letter-spacing:5.63999987px;fill:#ffcc00"
         id="path960"
         inkscape:connector-curvature="0"
         sodipodi:nodetypes="scsscscssss" />
      <path
         d="m 590.94126,355.50117 c -1.73333,-1.86667 -3.13333,-3.8 -4.2,-5.8 -0.93333,-2 -1.66667,-3.86667 -2.2,-5.6 -0.4,-1.86667 -0.66667,-3.46667 -0.8,-4.8 v -2.8 -2.6 c 0.13333,-1.46667 0.4,-3.06667 0.8,-4.8 0.53333,-1.86667 1.26667,-3.8 2.2,-5.8 1.06667,-2.13333 2.46667,-4.13333 4.2,-6 5.06667,-5.33333 12.2,-8 21.4,-8 h 34.6 c 1.46667,0 2.66667,0.53333 3.6,1.6 1.06667,0.93333 1.6,2.13333 1.6,3.6 0,1.46667 -0.53333,2.66667 -1.6,3.6 -0.93333,0.93333 -2.13333,1.4 -3.6,1.4 h -34.6 c -6.4,0 -11.06667,1.66667 -14,5 -1.2,1.2 -2.13333,2.46667 -2.8,3.8 -0.53333,1.33333 -0.93333,2.6 -1.2,3.8 -0.4,1.46667 -0.53333,2.8 -0.4,4 v 0.6 1.6 c 0.13333,0.8 0.33333,1.8 0.6,3 0.26667,1.06667 0.66667,2.26667 1.2,3.6 0.66667,1.33333 1.53333,2.53333 2.6,3.6 2.93333,3.2 7.63444,5.46308 14,4.8 h 19.2 0.4 c 6.93333,0 12.73333,1.8 17.4,5.4 1.06667,0.93333 1.66667,2.13333 1.8,3.6 0.26667,1.33333 -0.0667,2.53333 -1,3.6 -1.06667,1.33333 -2.4,2 -4,2 -1.06667,0 -2.13333,-0.33333 -3.2,-1 -2.93333,-2.26667 -6.63159,-2.87369 -11,-3.4 h -16.6 -3 c -9.33333,0 -16.46667,-2.66667 -21.4,-8 z m 68.4,20 c 0.66667,2.53333 1,4.73333 1,6.6 0.13333,1.73333 0.2,2.86667 0.2,3.4 0,0.4 -0.0667,1.26667 -0.2,2.6 0,1.2 -0.13333,2.66667 -0.4,4.4 -0.26667,1.2 -0.86667,2.2 -1.8,3 -0.93333,0.8 -2,1.2 -3.2,1.2 h -0.8 c -1.46667,-0.26667 -2.6,-0.93333 -3.4,-2 -0.8,-1.06667 -1.06667,-2.33333 -0.8,-3.8 0.13333,-0.66667 0.2,-1.33333 0.2,-2 0.13333,-0.66667 0.2,-1.26667 0.2,-1.8 v -1.4 -0.4 c 0,-0.13333 -0.0667,-0.86667 -0.2,-2.2 0,-1.46667 -0.2,-3.2 -0.6,-5.2 -0.13333,-0.13333 -0.2,-0.4 -0.2,-0.8 -0.4,-1.33333 -0.26667,-2.6 0.4,-3.8 0.66667,-1.2 1.73333,-2 3.2,-2.4 1.46667,-0.26667 2.8,-0.0667 4,0.6 1.2,0.66667 1.93333,1.66667 2.2,3 0.13333,0.26667 0.2,0.6 0.2,1 z m -6.2,24.4 c 1.2,0.8 1.93333,1.93333 2.2,3.4 0.26667,1.33333 -0.0667,2.53333 -1,3.6 -5.06667,7.2 -12.53333,10.8 -22.4,10.8 h -43 c -1.46667,0 -2.73333,-0.46667 -3.8,-1.4 -0.93333,-0.93333 -1.4,-2.13333 -1.4,-3.6 0,-1.46667 0.46667,-2.66667 1.4,-3.6 1.06667,-1.06667 2.33333,-1.6 3.8,-1.6 h 43 c 6.4,0 11.13333,-2.13333 14.2,-6.4 0.8,-1.2 1.86667,-1.93333 3.2,-2.2 1.46667,-0.26667 2.73333,0.0667 3.8,1 z"
         style="font-style:normal;font-variant:normal;font-weight:normal;font-stretch:normal;font-size:200px;font-family:BOKEH;-inkscape-font-specification:BOKEH;letter-spacing:5.63999987px;fill:#ffcc00"
         id="path962"
         inkscape:connector-curvature="0"
         sodipodi:nodetypes="cccccccccsscscsscccccccccscscccscscscccsccsscsccscscccscscccccsscssssccc" />
      <path
         d="m -27.6,657.50117 c 1.466667,0 2.666667,0.53333 3.6,1.6 1.066667,0.93333 1.6,2.13333 1.6,3.6 0,1.46667 -0.533333,2.66667 -1.6,3.6 -0.933333,0.93333 -2.133333,1.4 -3.6,1.4 h -27.8 c -1.466667,0 -2.666667,-0.46667 -3.6,-1.4 -0.933333,-0.93333 -1.4,-2.13333 -1.4,-3.6 0,-1.46667 0.466667,-2.66667 1.4,-3.6 0.933333,-1.06667 2.133333,-1.6 3.6,-1.6 z m -44,0 c 1.466667,0 2.666667,0.53333 3.6,1.6 1.066667,0.93333 1.6,2.13333 1.6,3.6 0,1.46667 -0.533333,2.66667 -1.6,3.6 -0.933333,0.93333 -2.133333,1.4 -3.6,1.4 h -5.8 c -1.466667,0 -2.733333,-0.46667 -3.8,-1.4 -0.933333,-0.93333 -1.4,-2.13333 -1.4,-3.6 0,-1.46667 0.466667,-2.66667 1.4,-3.6 1.066667,-1.06667 2.333333,-1.6 3.8,-1.6 z m -19.8,0 c 1.466667,0 2.666667,0.53333 3.6,1.6 1.066667,0.93333 1.6,2.13333 1.6,3.6 0,1.46667 -0.533333,2.66667 -1.6,3.6 -0.933333,0.93333 -2.133333,1.4 -3.6,1.4 h -19 -1.2 c -1.06667,-0.26667 -2,-0.86667 -2.8,-1.8 -0.8,-0.93333 -1.2,-2 -1.2,-3.2 v -129.6 c 0,-1.46667 0.46667,-2.66667 1.4,-3.6 1.06667,-1.06667 2.33333,-1.6 3.8,-1.6 1.46667,0 2.66667,0.53333 3.6,1.6 0.93333,0.93333 1.4,2.13333 1.4,3.6 v 124.4 z"
         style="font-style:normal;font-variant:normal;font-weight:normal;font-stretch:normal;font-size:200px;font-family:BOKEH;-inkscape-font-specification:BOKEH;letter-spacing:5.63999987px;fill:#ffcc00"
         id="path964"
         inkscape:connector-curvature="0"
         sodipodi:nodetypes="scscsssscssscscsscssssscscsccssssscscs" />
      <path
         d="m 39.946249,543.90117 c 1.466667,0 2.666667,0.46667 3.6,1.4 0.933333,0.93333 1.4,2.13333 1.4,3.6 v 14.2 c 0,1.46667 -0.466667,2.73333 -1.4,3.8 -0.933333,0.93333 -2.133333,1.4 -3.6,1.4 -1.466667,0 -2.733333,-0.46667 -3.8,-1.4 -0.933333,-1.06667 -1.4,-2.33333 -1.4,-3.8 v -14.2 c 0,-1.46667 0.466667,-2.66667 1.4,-3.6 1.066667,-0.93333 2.333333,-1.4 3.8,-1.4 z m 0,32.6 c 1.466667,0 2.666667,0.53333 3.6,1.6 0.933333,0.93333 1.4,2.13333 1.4,3.6 v 80.8 c 0,1.46667 -0.466667,2.73333 -1.4,3.8 -0.933333,0.93333 -2.133333,1.4 -3.6,1.4 -1.466667,0 -2.733333,-0.46667 -3.8,-1.4 -0.933333,-1.06667 -1.4,-2.33333 -1.4,-3.8 v -80.8 c 0,-1.46667 0.466667,-2.66667 1.4,-3.6 1.066667,-1.06667 2.333333,-1.6 3.8,-1.6 z m 41.4,-48.6 c 1.466667,0 2.666667,0.53333 3.6,1.6 0.933333,0.93333 1.4,2.13333 1.4,3.6 0,1.46667 -0.466667,2.66667 -1.4,3.6 -0.933333,0.93333 -2.133333,1.4 -3.6,1.4 H -1.6537506 c -1.4666667,0 -2.6666667,-0.46667 -3.6,-1.4 -0.9333334,-0.93333 -1.4,-2.13333 -1.4,-3.6 0,-1.46667 0.4666666,-2.66667 1.4,-3.6 0.9333333,-1.06667 2.1333333,-1.6 3.6,-1.6 z"
         style="font-style:normal;font-variant:normal;font-weight:normal;font-stretch:normal;font-size:200px;font-family:BOKEH;-inkscape-font-specification:BOKEH;letter-spacing:5.63999987px;fill:#ffcc00"
         id="path966"
         inkscape:connector-curvature="0"
         sodipodi:nodetypes="sssscscsscsscsscscssssscsssssscss" />
    </g>
  </g>
  <g
     inkscape:groupmode="layer"
     id="layer1"
     inkscape:label="Wakaba"
     transform="translate(0,-32)">
    <path
       style="fill:#eeaaff;fill-opacity:1;stroke:none;stroke-width:0.66297847;stroke-linecap:round;stroke-linejoin:miter;stroke-miterlimit:4;stroke-dasharray:none;stroke-opacity:1"
       d="m 272.46881,210 12.15447,-12.15273 v -74.00102 h -26.1462 l -26.14675,-4.9e-4 v 74.00151 L 244.48479,210"
       id="path1095" />
    <path
       style="fill:#ffcc00;fill-opacity:1;stroke:none;stroke-width:0.66193604px;stroke-linecap:butt;stroke-linejoin:miter;stroke-opacity:1"
       d="M 258.47641,123.23381 232.32992,97.110803 v 74.803557 l 26.14649,26.14648"
       id="path978-4-7"
       inkscape:connector-curvature="0"
       sodipodi:nodetypes="cccc" />
    <path
       style="fill:#00ff00;fill-opacity:1;stroke:none;stroke-width:0.66297847;stroke-linecap:round;stroke-linejoin:miter;stroke-miterlimit:4;stroke-dasharray:none;stroke-opacity:1"
       d="m 258.47682,198.03744 26.14646,-26.14648 V 97.087413 l -26.14687,26.146397"
       id="path1069"
       inkscape:connector-curvature="0"
       sodipodi:nodetypes="cccc" />
  </g>
</svg>
